<?xml version="1.0" encoding="utf-8"?>
<!-- Generator: Adobe Illustrator 27.0.1, SVG Export Plug-In . SVG Version: 6.00 Build 0)  -->
<svg version="1.1" id="Layer_1" xmlns="http://www.w3.org/2000/svg" xmlns:xlink="http://www.w3.org/1999/xlink" x="0px" y="0px"
	 viewBox="0 0 551.68 329.44" style="enable-background:new 0 0 551.68 329.44;" xml:space="preserve">
<style type="text/css">
	.st0{fill:#BF7551;}
	.st1{fill:#885822;}
	.st2{fill:#F09A68;}
	.st3{fill:#BA6F48;}
	.st4{fill:#CC895A;}
	.st5{fill:#99632A;}
	.st6{fill:#F8C6A3;}
	.st7{fill:#CCA084;}
	.st8{fill:#734C2E;}
	.st9{fill:#FFFFFF;}
	.st10{fill:#513411;}
	.st11{fill:#9A9B63;}
	.st12{fill:#53734E;}
	.st13{fill:#9FA582;}
	.st14{fill:#156B92;}
	.st15{fill:#075969;}
	.st16{opacity:0.5;fill:#CC895A;enable-background:new    ;}
</style>
<g>
	<g>
		<g>
			<path class="st0" d="M251.13,164.84c0,0,0.97-2.52,5.03-1.5c4.06,1.02,12.21,2.58,16.63-0.15c4.42-2.73,3.85,7.73-5.58,9.52
				C257.78,174.51,251.81,171.51,251.13,164.84z"/>
			<path class="st1" d="M262.19,173.43c-6.61,0-10.72-3.12-11.28-8.58c0-0.03,0-0.07,0.01-0.1c0.03-0.08,0.75-1.88,3.42-1.88
				c0.57,0,1.2,0.08,1.86,0.25c2.48,0.63,6.18,1.37,9.7,1.37c2.88,0,5.16-0.5,6.77-1.5c0.52-0.32,1-0.48,1.42-0.48
				c0.86,0,1.44,0.66,1.54,1.76c0.23,2.41-2,7.41-8.4,8.63C265.46,173.27,263.75,173.43,262.19,173.43z M251.34,164.88
				c0.57,5.25,4.42,8.14,10.85,8.14c1.54,0,3.21-0.17,4.98-0.51c6.13-1.16,8.28-5.9,8.06-8.17c-0.04-0.42-0.23-1.38-1.12-1.38
				c-0.35,0-0.75,0.14-1.2,0.42c-1.68,1.04-4.03,1.56-6.99,1.56c-3.56,0-7.3-0.75-9.81-1.39c-0.63-0.16-1.22-0.24-1.75-0.24
				C252.19,163.31,251.46,164.62,251.34,164.88z"/>
		</g>
		<g>
			<g>
				<g>
					<path class="st2" d="M274.14,161.56c0,0-2.52-0.21-3.06,2.01c-0.54,2.22,1.45,5.92,3.28,5.96c1.82,0.03,5.51-1.32,5.07-4.73
						C278.63,158.48,274.14,161.56,274.14,161.56z"/>
					<path class="st3" d="M274.42,169.74L274.42,169.74h-0.06c-0.7-0.01-1.45-0.49-2.12-1.36c-0.96-1.24-1.74-3.31-1.36-4.86
						c0.53-2.17,2.78-2.2,3.21-2.18c0.26-0.16,1.25-0.75,2.36-0.75c1.22,0,2.76,0.72,3.2,4.17c0.15,1.19-0.16,2.23-0.92,3.1
						C277.59,169.15,275.7,169.74,274.42,169.74z M273.97,161.76c-0.53,0-2.27,0.13-2.68,1.86c-0.3,1.24,0.26,3.17,1.29,4.5
						c0.59,0.76,1.22,1.19,1.79,1.2h0.06c1.22,0,2.98-0.59,3.98-1.73c0.68-0.77,0.95-1.7,0.82-2.77c-0.32-2.53-1.26-3.81-2.79-3.81
						c-1.13,0-2.17,0.71-2.18,0.71c-0.04,0.03-0.09,0.04-0.13,0.04C274.13,161.77,274.07,161.76,273.97,161.76z"/>
				</g>
				<g>
					<path class="st3" d="M277.7,163.39c-0.11,0.09-0.22,0.18-0.35,0.28c-0.89,0.67-2.36,1.1-3.14,0.68
						c-0.25-0.13-0.54-0.41-0.5-0.99c0.09-1.55,2.87-2.68,2.99-2.73c0.11-0.04,0.23,0.01,0.27,0.12c0.04,0.11-0.01,0.23-0.12,0.27
						c-0.74,0.3-2.66,1.3-2.73,2.37c-0.02,0.29,0.07,0.48,0.28,0.59c0.55,0.29,1.86-0.02,2.69-0.65c1.08-0.81,1.31-1.33,1.31-1.34
						c0.04-0.1,0.17-0.16,0.28-0.11c0.11,0.04,0.16,0.17,0.11,0.27C278.79,162.18,278.59,162.65,277.7,163.39z"/>
					<path class="st3" d="M278.6,165.39c-0.23,0.19-0.47,0.34-0.69,0.45c-0.92,0.47-2.08,0.63-2.75,0.39c-0.3-0.11-0.5-0.3-0.6-0.56
						c-0.21-0.58,0.18-1.29,0.19-1.32c0.06-0.1,0.19-0.14,0.29-0.08s0.14,0.18,0.08,0.29c-0.09,0.16-0.29,0.64-0.16,0.97
						c0.05,0.15,0.17,0.25,0.35,0.31c0.49,0.18,1.53,0.09,2.41-0.37c0.51-0.26,1.16-0.73,1.38-1.54c0.03-0.11,0.15-0.18,0.26-0.15
						c0.11,0.03,0.18,0.15,0.14,0.26C279.34,164.64,278.99,165.08,278.6,165.39z"/>
					<path class="st3" d="M278.99,167.32c-0.01,0.01-0.03,0.02-0.05,0.03c-0.09,0.04-2.14,0.84-3.1,0.14
						c-0.36-0.27-0.53-0.7-0.48-1.28c0.01-0.12,0.11-0.21,0.23-0.2s0.2,0.11,0.19,0.22c-0.03,0.44,0.07,0.73,0.31,0.91
						c0.64,0.47,2.17,0.03,2.7-0.19c0.11-0.04,0.23,0.01,0.28,0.12C279.09,167.17,279.06,167.27,278.99,167.32z"/>
					<path class="st3" d="M276.67,169.26c-0.04,0.03-0.08,0.05-0.13,0.05c-0.03,0-0.75,0.01-1.08-0.51
						c-0.25-0.4-0.21-0.96,0.14-1.68c0.05-0.11,0.18-0.15,0.28-0.1c0.11,0.05,0.15,0.18,0.1,0.28c-0.28,0.57-0.33,1.01-0.17,1.27
						c0.21,0.32,0.72,0.32,0.72,0.32c0.12,0,0.22,0.09,0.22,0.21C276.74,169.15,276.71,169.21,276.67,169.26z"/>
					<path class="st3" d="M274.47,167.01c-0.04,0.04-0.09,0.07-0.13,0.1c-0.27,0.17-0.56,0.22-0.87,0.13
						c-1.18-0.35-2.21-2.64-2.26-2.74c-0.04-0.11,0-0.23,0.11-0.28c0.11-0.05,0.23,0,0.28,0.11c0.28,0.62,1.17,2.27,1.99,2.51
						c0.19,0.06,0.36,0.03,0.52-0.08c0.22-0.14,0.35-0.33,0.4-0.59c0.19-0.92-0.72-2.27-0.73-2.28c-0.06-0.1-0.04-0.22,0.05-0.29
						c0.1-0.07,0.23-0.04,0.29,0.05c0.04,0.06,1.01,1.5,0.79,2.6C274.85,166.55,274.7,166.81,274.47,167.01z"/>
				</g>
			</g>
		</g>
	</g>
	<g>
		<g>
			<path class="st0" d="M259.28,160.36c0,0,1.83-1.99,5.23,0.45s10.43,6.87,15.54,5.94c5.11-0.93,0.76,8.6-8.68,6.82
				C261.94,171.79,257.48,166.82,259.28,160.36z"/>
			<path class="st1" d="M273.69,174.01c-0.77,0-1.56-0.08-2.35-0.23c-5.56-1.05-9.5-3.22-11.4-6.27c-1.31-2.11-1.6-4.53-0.86-7.21
				c0.01-0.03,0.02-0.06,0.05-0.09s0.78-0.84,2.2-0.84c1.03,0,2.14,0.42,3.3,1.25c3.15,2.25,9.14,6.03,13.96,6.03
				c0.5,0,0.98-0.04,1.42-0.12c0.88-0.16,1.56-0.03,1.98,0.37c0.29,0.27,0.44,0.66,0.44,1.13
				C282.43,170.07,279.34,174.01,273.69,174.01z M259.47,160.46c-0.69,2.53-0.42,4.83,0.82,6.82c1.83,2.95,5.68,5.05,11.12,6.08
				c0.77,0.14,1.54,0.22,2.28,0.22c5.16,0,8.32-3.59,8.32-5.54c0-0.36-0.1-0.63-0.3-0.83c-0.32-0.3-0.88-0.39-1.61-0.26
				c-0.47,0.09-0.98,0.13-1.5,0.13c-4.94,0-11.01-3.82-14.2-6.1c-1.09-0.78-2.12-1.17-3.06-1.17
				C260.25,159.81,259.62,160.33,259.47,160.46z"/>
		</g>
		<g>
			<g>
				<g>
					<path class="st2" d="M281.91,165.71c0,0-2.27-1.12-3.58,0.76c-1.31,1.87-0.81,6.05,0.88,6.74c1.69,0.7,5.61,0.78,6.45-2.55
						C287.21,164.49,281.91,165.71,281.91,165.71z"/>
					<path class="st3" d="M281.38,173.82L281.38,173.82c-0.81,0-1.64-0.15-2.26-0.41c-0.64-0.26-1.17-0.99-1.47-2.04
						c-0.44-1.5-0.41-3.71,0.51-5.02c0.54-0.77,1.32-1.18,2.26-1.18c0.72,0,1.32,0.23,1.52,0.32c0.41-0.08,2.5-0.42,3.59,0.98
						c0.7,0.9,0.82,2.33,0.33,4.24C285.15,173.51,282.49,173.82,281.38,173.82z M280.41,165.6c-0.81,0-1.45,0.34-1.91,1
						c-0.73,1.04-0.92,3.04-0.45,4.66c0.27,0.92,0.71,1.55,1.23,1.76c0.58,0.24,1.34,0.37,2.1,0.37l0,0c1.01,0,3.43-0.27,4.07-2.78
						c0.45-1.77,0.36-3.08-0.26-3.87c-1.04-1.33-3.22-0.82-3.23-0.82c-0.05,0.01-0.1,0-0.14-0.02
						C281.81,165.9,281.17,165.6,280.41,165.6z"/>
				</g>
				<g>
					<path class="st3" d="M284.55,168.73c-0.13,0.04-0.27,0.09-0.43,0.13c-1.07,0.3-2.6,0.16-3.17-0.51
						c-0.18-0.21-0.35-0.58-0.1-1.1c0.65-1.41,3.65-1.45,3.78-1.45c0.12,0,0.21,0.09,0.21,0.21c0,0.12-0.09,0.21-0.21,0.21
						c-0.79,0.01-2.95,0.24-3.4,1.21c-0.12,0.26-0.11,0.47,0.04,0.65c0.4,0.47,1.73,0.66,2.74,0.38c1.29-0.36,1.71-0.76,1.71-0.76
						c0.08-0.08,0.21-0.08,0.3,0c0.08,0.08,0.09,0.21,0,0.3C286,167.99,285.64,168.37,284.55,168.73z"/>
					<path class="st3" d="M284.66,170.92c-0.29,0.09-0.57,0.14-0.81,0.17c-1.03,0.1-2.16-0.17-2.7-0.64
						c-0.24-0.21-0.36-0.46-0.36-0.74c0.01-0.62,0.63-1.14,0.66-1.16c0.09-0.08,0.22-0.06,0.29,0.03s0.06,0.22-0.03,0.29
						c-0.14,0.12-0.5,0.5-0.51,0.84c0,0.15,0.07,0.29,0.21,0.42c0.39,0.34,1.39,0.64,2.38,0.54c0.57-0.06,1.35-0.26,1.85-0.92
						c0.07-0.09,0.21-0.11,0.3-0.04s0.11,0.2,0.04,0.29C285.62,170.48,285.13,170.76,284.66,170.92z"/>
					<path class="st3" d="M284.32,172.86c-0.02,0.01-0.04,0.01-0.06,0.01c-0.1,0-2.3,0-2.94-1.01c-0.24-0.38-0.24-0.84,0.02-1.37
						c0.05-0.11,0.18-0.15,0.28-0.1s0.15,0.18,0.1,0.28c-0.19,0.39-0.2,0.71-0.04,0.96c0.43,0.67,2.01,0.82,2.58,0.81
						c0.12,0,0.21,0.09,0.21,0.21C284.46,172.74,284.4,172.83,284.32,172.86z"/>
					<path class="st3" d="M281.44,173.81c-0.04,0.01-0.09,0.01-0.14,0c-0.03-0.01-0.7-0.27-0.82-0.88
						c-0.09-0.46,0.16-0.97,0.75-1.51c0.09-0.08,0.22-0.07,0.3,0.01c0.08,0.09,0.07,0.22-0.01,0.3c-0.46,0.43-0.68,0.82-0.62,1.12
						c0.07,0.38,0.55,0.56,0.55,0.56c0.11,0.04,0.16,0.16,0.12,0.27C281.55,173.74,281.5,173.79,281.44,173.81z"/>
					<path class="st3" d="M280.22,170.9c-0.05,0.02-0.11,0.03-0.16,0.04c-0.32,0.06-0.6,0-0.86-0.2c-0.97-0.75-1.1-3.27-1.1-3.37
						c-0.01-0.12,0.08-0.22,0.2-0.22c0.12-0.01,0.21,0.08,0.22,0.2c0.03,0.67,0.26,2.54,0.94,3.06c0.15,0.12,0.32,0.16,0.51,0.12
						c0.25-0.05,0.45-0.18,0.59-0.41c0.51-0.79,0.16-2.37,0.16-2.39c-0.03-0.11,0.04-0.22,0.16-0.25c0.11-0.03,0.23,0.04,0.25,0.16
						c0.02,0.07,0.39,1.77-0.21,2.71C280.74,170.62,280.5,170.81,280.22,170.9z"/>
				</g>
			</g>
		</g>
	</g>
	<g>
		<g>
			<path class="st4" d="M252.15,175.54c1.15-1.28,1.44-2.96,0.67-4.48c-0.99-1.95-4.57-2.6-6.25-1.3c-0.23,0.18,0.07,0.35,0.25,0.4
				c0.24,0.07,0.48,0.12,0.73,0.18c-1.2,0.17-2.37,0.66-2.9,1.86c0,0.05,0.01,0.09,0.05,0.12c0.27,0.23,0.63,0.3,1.01,0.32
				c-0.76,0.41-1.33,0.96-1.54,1.98c-0.02,0.08,0.06,0.14,0.11,0.18c0.3,0.23,0.65,0.27,1,0.21c-0.38,0.93-0.5,2.11,0.27,2.63
				c0.48,0.33,0.85,0.29,1.19,0.1c0.53,0.4,1.21,0.51,2,0.19c0.51-0.21,0.94-0.45,1.31-0.7
				C250.88,176.89,251.6,176.15,252.15,175.54z"/>
			<path class="st5" d="M247.85,178.33L247.85,178.33c-0.41,0-0.79-0.12-1.13-0.34c-0.42,0.19-0.84,0.14-1.29-0.17
				c-0.79-0.53-0.77-1.62-0.46-2.57c-0.3-0.01-0.58-0.1-0.82-0.28c-0.16-0.12-0.22-0.25-0.19-0.39c0.16-0.77,0.52-1.35,1.15-1.81
				c-0.19-0.05-0.38-0.14-0.55-0.28c-0.09-0.09-0.13-0.19-0.12-0.3c0-0.02,0.01-0.05,0.02-0.07c0.38-0.88,1.12-1.48,2.18-1.79
				c-0.13-0.06-0.31-0.17-0.35-0.36c-0.01-0.08-0.01-0.23,0.16-0.37c0.6-0.46,1.46-0.72,2.43-0.72c1.81,0,3.51,0.86,4.14,2.09
				c0.79,1.57,0.53,3.33-0.71,4.71c-0.56,0.62-1.31,1.38-2.17,1.74c-0.39,0.26-0.83,0.5-1.31,0.7
				C248.49,178.26,248.16,178.33,247.85,178.33z M246.74,177.52c0.04,0,0.09,0.02,0.13,0.04c0.51,0.38,1.12,0.44,1.79,0.16
				c0.46-0.19,0.88-0.41,1.28-0.68c0.82-0.34,1.53-1.06,2.05-1.65c1.12-1.25,1.36-2.83,0.64-4.24c-0.56-1.1-2.1-1.86-3.76-1.86
				c-0.85,0-1.61,0.21-2.13,0.6c0.04,0.02,0.09,0.05,0.14,0.06c0.19,0.05,0.39,0.1,0.59,0.15l0.13,0.03
				c0.1,0.02,0.17,0.11,0.16,0.22c0,0.1-0.08,0.18-0.18,0.2c-1.35,0.19-2.26,0.74-2.7,1.65c0.18,0.14,0.45,0.21,0.84,0.23
				c0.1,0,0.18,0.07,0.2,0.16s-0.02,0.19-0.11,0.23c-0.81,0.44-1.24,0.98-1.42,1.79c0.01,0,0.01,0.01,0.02,0.02
				c0.23,0.18,0.53,0.23,0.84,0.17c0.07-0.01,0.15,0.02,0.2,0.08s0.06,0.14,0.03,0.21c-0.34,0.85-0.47,1.92,0.19,2.37
				c0.36,0.25,0.64,0.28,0.97,0.09C246.67,177.54,246.7,177.52,246.74,177.52z"/>
		</g>
		<g>
			<g>
				<path class="st4" d="M262.42,154.68c-7.23,3.62-18.76,14.34-13.99,23.57c4.77,9.23,21.74,10.45,24.91,6.84
					c3.16-3.62,7.84-20.12,6.45-26.18C278.39,152.85,275.88,147.95,262.42,154.68z"/>
				<path class="st5" d="M266.43,187.18L266.43,187.18c-6.57,0-15.06-2.76-18.2-8.83c-1.33-2.58-1.5-5.44-0.51-8.49
					c1.25-3.82,4.05-7.12,6.19-9.22c2.55-2.51,5.62-4.74,8.4-6.14c4.4-2.2,7.82-3.27,10.47-3.27c5.03,0,6.35,3.94,7.2,7.63
					c1.35,5.89-3.16,22.56-6.5,26.37C272.41,186.46,269.78,187.18,266.43,187.18z M272.79,151.65c-2.58,0-5.94,1.06-10.28,3.23
					c-8.29,4.15-13.14,11.31-14.38,15.11c-0.96,2.94-0.8,5.69,0.48,8.17c3.06,5.91,11.38,8.61,17.82,8.61
					c3.22,0,5.74-0.68,6.74-1.81c2.99-3.42,7.82-19.8,6.4-26C278.57,154.57,277.03,151.65,272.79,151.65z"/>
			</g>
			<g>
				<path class="st6" d="M279.7,160.02c-0.37-0.58-0.9-0.93-1.71-0.59c-1.27,0.54-2.26,1.7-3.11,2.76
					c-2.05,2.57-3.76,5.44-5.24,8.37c-1.86,3.7-5.57,13.34-1.48,16.34c2.4-0.2,4.3-0.82,5.16-1.81
					C275.92,182.12,279.31,168.29,279.7,160.02z"/>
				<path class="st7" d="M268.17,187.11c-0.04,0-0.09-0.01-0.12-0.04c-4.01-2.94-0.82-12.15,1.42-16.6c1.68-3.34,3.4-6.09,5.27-8.41
					c0.86-1.07,1.88-2.26,3.19-2.82c0.79-0.34,1.48-0.1,1.97,0.68c0.02,0.04,0.04,0.08,0.03,0.12c-0.38,7.89-3.68,22.06-6.43,25.19
					c-0.88,1-2.76,1.67-5.3,1.88C268.18,187.11,268.17,187.11,268.17,187.11z M278.59,159.51c-0.16,0-0.33,0.04-0.51,0.12
					c-1.21,0.52-2.19,1.66-3.02,2.69c-1.84,2.3-3.55,5.03-5.22,8.34c-2.18,4.32-5.3,13.2-1.61,16.03c2.36-0.21,4.15-0.84,4.94-1.73
					c2.48-2.84,5.9-16.29,6.32-24.87C279.23,159.7,278.94,159.51,278.59,159.51z"/>
			</g>
		</g>
	</g>
	<g>
		<g>
			<g>
				<path class="st4" d="M286.77,173.21c0.7,0.01,1.4-0.01,2.11-0.09c8.45-0.91,14.6-8.11,13.74-16.1
					c-0.86-7.98-10.4-15.91-18.84-15c-8.45,0.91-12.6,10.3-11.74,18.28c0.04,0.38,0.1,0.76,0.17,1.13
					c0.54,11.01,9.05,16.18,11.18,15.81C284.43,177.07,285.72,175.15,286.77,173.21z"/>
				<path class="st5" d="M283.15,177.48L283.15,177.48c-2.42,0-10.62-5-11.16-16.03c-0.08-0.4-0.13-0.77-0.17-1.11
					c-0.88-8.19,3.43-17.6,11.93-18.51c0.45-0.05,0.9-0.07,1.37-0.07c8.11,0,16.88,7.56,17.71,15.26
					c0.87,8.09-5.38,15.41-13.93,16.33c-0.64,0.07-1.33,0.1-2.01,0.09c-1.38,2.51-2.55,3.87-3.47,4.03
					C283.34,177.48,283.25,177.48,283.15,177.48z M285.12,142.18c-0.45,0-0.89,0.02-1.32,0.07c-8.24,0.88-12.41,10.06-11.55,18.05
					c0.04,0.34,0.09,0.69,0.17,1.11c0.5,10.28,8.18,15.66,10.74,15.66l0,0c0.07,0,0.14-0.01,0.2-0.02c0.78-0.14,1.93-1.53,3.24-3.93
					c0.04-0.07,0.11-0.1,0.19-0.11c0.7,0.02,1.41-0.01,2.08-0.08c8.32-0.89,14.4-8.01,13.56-15.86
					C301.6,149.55,293.04,142.18,285.12,142.18z"/>
			</g>
			<path class="st4" d="M277.11,150.46c2.67,0.98,4.34,3.17,6.02,5.36c2.28,2.97,4.38,6.08,6.4,9.23c1.44,2.24,2.71,4.57,4.15,6.81
				c5.85-2.58,9.63-8.45,8.94-14.82c-0.86-7.98-10.4-15.91-18.84-15c-4.83,0.52-8.25,3.81-10.14,8.03
				C274.78,149.88,276,150.05,277.11,150.46z"/>
			<g>
				<path class="st6" d="M286.77,173.21c0.02,0,0.04,0,0.05,0c-1.11-1.93-3.98-2.98-5.98-3.48c-2.07-0.52-4.44-0.86-6.52-0.22
					c2.8,5.45,7.55,8,9.07,7.74C284.43,177.07,285.72,175.15,286.77,173.21z"/>
				<path class="st7" d="M283.15,177.48L283.15,177.48c-1.79,0-6.33-2.63-9.02-7.87c-0.03-0.05-0.03-0.12-0.01-0.18
					c0.03-0.06,0.07-0.1,0.13-0.12c0.78-0.24,1.64-0.36,2.58-0.36c1.19,0,2.52,0.19,4.05,0.58c1.77,0.44,4.93,1.5,6.12,3.58
					c0.04,0.06,0.04,0.15,0,0.21c-0.02,0.04-0.06,0.07-0.1,0.09c-1.38,2.53-2.56,3.89-3.48,4.05
					C283.34,177.48,283.25,177.48,283.15,177.48z M274.62,169.65c2.63,4.94,6.86,7.42,8.53,7.42l0,0c0.07,0,0.14-0.01,0.2-0.02
					c0.78-0.13,1.91-1.51,3.21-3.87c-1.18-1.85-4.1-2.82-5.76-3.24C278.24,169.3,276.26,169.21,274.62,169.65z"/>
			</g>
			<g>
				<path class="st5" d="M285.33,176.56c1.17-1.53-0.2-2.28-1.63-2.43c-1.09-0.11-3.73-0.36-3.77,1.28
					c-0.03,1.03,1.06,1.67,1.93,1.91C283.03,177.62,284.53,177.6,285.33,176.56z"/>
				<path class="st8" d="M283.14,177.7L283.14,177.7c-0.43,0-0.89-0.06-1.34-0.18c-0.98-0.27-2.12-0.98-2.09-2.12
					c0.02-0.71,0.5-1.56,2.64-1.56c0.55,0,1.08,0.05,1.37,0.08c0.53,0.05,1.79,0.27,2.16,1.13c0.21,0.48,0.07,1.03-0.39,1.64
					C284.99,177.35,284.17,177.7,283.14,177.7z M282.35,174.26c-1.45,0-2.19,0.39-2.21,1.16c-0.03,0.95,1.1,1.52,1.77,1.7
					c0.41,0.11,0.84,0.17,1.23,0.17c0.62,0,1.48-0.15,2.02-0.85c0.37-0.48,0.48-0.89,0.34-1.22c-0.19-0.44-0.89-0.78-1.82-0.87
					C283.4,174.31,282.88,174.26,282.35,174.26z"/>
			</g>
		</g>
		<g>
			<path class="st9" d="M287.37,171.31c-2.53,0.15-4.64-0.88-4.72-2.28c-0.08-1.41,1.9-2.67,4.43-2.82s4.64,0.88,4.72,2.28
				C291.87,169.9,289.89,171.15,287.37,171.31z"/>
			<g>
				<path class="st10" d="M286.67,170.9c-1.46,0.09-2.68-0.45-2.72-1.19c-0.04-0.74,1.1-1.41,2.56-1.5
					c1.46-0.08,2.67,0.45,2.71,1.19C289.27,170.15,288.13,170.82,286.67,170.9z"/>
				<path class="st9" d="M287.52,169.46c-0.47,0.03-0.86-0.14-0.88-0.38c-0.01-0.24,0.36-0.46,0.82-0.48
					c0.47-0.03,0.86,0.14,0.88,0.38C288.36,169.23,287.99,169.43,287.52,169.46z"/>
			</g>
			<path class="st8" d="M290.34,164.76c0,0,4.11,2.65,2.15,5.32c0,0-0.91,1.31-2.71,0.83C289.78,170.9,292.22,168.77,290.34,164.76z
				"/>
		</g>
		<g>
			<g>
				<path class="st11" d="M300.03,167.57c0.31,0,0.65-0.01,0.98,0.05c12.22-7.95,5.17-24.71-4.27-29.38
					c-9.44-4.68-15.74,1.91-15.74,1.91l-0.75,0.85l17.64,26.44l1.79,0.14C299.79,167.58,299.91,167.57,300.03,167.57z"/>
				<path class="st12" d="M301,167.83c-0.01,0-0.03,0-0.04,0c-0.23-0.04-0.47-0.05-0.68-0.05h-0.25c-0.08,0-0.16,0-0.24,0.01
					l-0.11,0.01l-1.82-0.14c-0.06-0.01-0.12-0.04-0.16-0.09l-17.64-26.44c-0.05-0.08-0.04-0.18,0.02-0.26l0.75-0.86
					c0.04-0.04,3.57-3.66,9.19-3.66c2.24,0,4.53,0.57,6.81,1.7c5.8,2.87,10.47,10.12,10.87,16.86c0.22,3.78-0.74,9.09-6.58,12.88
					C301.09,167.82,301.05,167.83,301,167.83z M300.28,167.36c0.2,0,0.44,0,0.68,0.04c5.61-3.68,6.53-8.81,6.32-12.46
					c-0.39-6.6-4.96-13.7-10.63-16.51c-2.21-1.1-4.44-1.65-6.62-1.65c-5.43,0-8.84,3.49-8.88,3.52l-0.64,0.73L298,167.24l1.69,0.14
					l0.08-0.01c0.09,0,0.17-0.01,0.26-0.01H300.28L300.28,167.36z"/>
			</g>
			<path class="st13" d="M298.55,142.89c3.32,1.2,5.79,3.59,7.54,6.49c-1.83-4.83-5.45-9.08-9.51-11.09
				c-9.44-4.68-15.74,1.91-15.74,1.91l-0.75,0.85l4.86,6.03C290.18,143.81,293.15,140.93,298.55,142.89z"/>
			<g>
				<path class="st14" d="M300.03,167.57c0.31,0,0.65-0.01,0.98,0.05c1.29-0.84,1.78-1.16,2.66-2.17
					c-2.63-7.41-13.19-20.36-15.39-22.6c-1.56-1.59-3.26-3-4.92-4.46c-1.52,0.89-2.36,1.76-2.36,1.76l-0.75,0.85l17.64,26.44
					l1.79,0.14C299.79,167.58,299.91,167.57,300.03,167.57z"/>
				<path class="st15" d="M301.01,167.83c-0.01,0-0.03,0-0.04,0c-0.23-0.04-0.48-0.05-0.69-0.05h-0.25c-0.08,0-0.16,0-0.24,0.01
					l-0.11,0.01l-1.82-0.14c-0.06-0.01-0.12-0.04-0.16-0.09l-17.64-26.44c-0.05-0.08-0.04-0.18,0.02-0.26l0.75-0.86
					c0.04-0.04,0.89-0.91,2.42-1.8c0.08-0.04,0.18-0.04,0.24,0.02c0.36,0.32,0.72,0.63,1.08,0.94c1.29,1.12,2.62,2.27,3.85,3.53
					c2.29,2.34,12.83,15.33,15.44,22.68c0.03,0.07,0.01,0.15-0.04,0.21c-0.9,1.03-1.43,1.38-2.71,2.21
					C301.09,167.82,301.05,167.83,301.01,167.83z M300.28,167.36c0.2,0,0.44,0,0.68,0.04c1.18-0.77,1.67-1.09,2.46-1.99
					c-2.66-7.31-13.03-20.09-15.3-22.41c-1.22-1.24-2.54-2.39-3.83-3.51c-0.32-0.28-0.65-0.56-0.97-0.84
					c-1.39,0.83-2.18,1.64-2.19,1.65l-0.64,0.73L298,167.24l1.69,0.14l0.08-0.01c0.09,0,0.17-0.01,0.26-0.01H300.28L300.28,167.36z"
					/>
			</g>
			<path class="st14" d="M286.75,146.07c0.96-0.57,1.92-1.14,2.78-1.84c-0.53-0.62-0.96-1.09-1.25-1.38c-1.56-1.59-3.26-3-4.92-4.46
				c-1.52,0.89-2.36,1.76-2.36,1.76l-0.75,0.85l4.34,6.5C285.29,147.01,286,146.52,286.75,146.07z"/>
			<g>
				<path class="st11" d="M281,140.15c0,0-6.43-0.2-7.91,0.93c0,0-0.62,0.44-0.16,0.87c0.46,0.43,15.23,16.41,23.62,31.71
					c0,0,0.6,1.8,1.44,1.14c0.49-0.38,3-7.17,3-7.17S294.32,154.12,281,140.15z"/>
				<path class="st12" d="M297.62,175.15L297.62,175.15c-0.77,0-1.22-1.28-1.27-1.43c-8.49-15.5-23.43-31.51-23.56-31.63
					c-0.21-0.2-0.25-0.4-0.24-0.54c0.03-0.37,0.38-0.63,0.42-0.66c1.12-0.85,4.83-0.98,6.94-0.98c0.66,0,1.1,0.01,1.1,0.01
					c0.05,0,0.11,0.03,0.14,0.07c13.19,13.84,19.95,27.4,20.02,27.54c0.03,0.05,0.03,0.11,0.01,0.17c-0.42,1.14-2.55,6.86-3.06,7.27
					C297.96,175.1,297.79,175.15,297.62,175.15z M279.91,140.35c-3.5,0-5.94,0.33-6.69,0.9c-0.07,0.05-0.24,0.2-0.25,0.35
					c0,0.02-0.01,0.1,0.1,0.2c0.13,0.12,15.12,16.18,23.66,31.77c0.14,0.41,0.52,1.18,0.89,1.18l0,0c0.08,0,0.15-0.03,0.24-0.1
					c0.3-0.27,1.71-3.79,2.89-6.99c-0.58-1.14-7.27-14.08-19.85-27.29C280.75,140.35,280.39,140.35,279.91,140.35z"/>
			</g>
			<path class="st13" d="M286.41,146.12c-1.42-1.65-3.8-4.3-5.41-5.98c0,0-6.43-0.2-7.91,0.93c0,0-0.62,0.44-0.16,0.87
				c0.17,0.16,2.31,2.46,5.37,6.08C278.51,147.92,284.17,146.88,286.41,146.12z"/>
		</g>
		<path class="st8" d="M280.06,176.08c-0.03,0-0.05,0-0.08-0.02c-0.13-0.06-3.29-1.43-3.47-3.74c-0.05-0.59,0.11-1.04,0.47-1.35
			c0.88-0.75,2.63-0.31,2.71-0.3c0.11,0.03,0.18,0.14,0.15,0.25c-0.03,0.11-0.14,0.18-0.26,0.15c-0.02,0-1.62-0.4-2.33,0.21
			c-0.26,0.22-0.36,0.54-0.33,0.99c0.17,2.05,3.19,3.37,3.22,3.38c0.11,0.05,0.16,0.17,0.11,0.28
			C280.22,176.02,280.14,176.08,280.06,176.08z"/>
		<g>
			<g>
				<g>
					<path class="st4" d="M293.78,147.39c-0.39-6.94,8.79-9.91,11.68-4.36c4.14,7.95-7.34,9.11-7.34,9.11
						S294.05,152.2,293.78,147.39z"/>
					<path class="st5" d="M298.12,152.35c-0.18,0-4.27-0.06-4.55-4.94c-0.14-2.53,0.93-4.23,1.86-5.21c1.34-1.42,3.29-2.27,5.2-2.27
						c2.19,0,4.03,1.1,5.02,3.01c1.08,2.07,1.21,3.89,0.4,5.4c-1.82,3.37-7.66,3.99-7.9,4.02L298.12,152.35z M300.63,140.35
						c-1.8,0-3.63,0.8-4.89,2.14c-0.87,0.92-1.88,2.52-1.75,4.89c0.26,4.5,3.97,4.55,4.13,4.55v0.21v-0.21
						c0.04,0,5.85-0.63,7.56-3.8c0.74-1.38,0.61-3.06-0.4-5C304.35,141.36,302.66,140.35,300.63,140.35z"/>
				</g>
				<path class="st4" d="M296.59,151.84c2.95-0.87,5.93-2.75,7.19-5.48c0.13-0.74-0.01-1.44-0.52-2.03
					c-2.29-2.64-5.82-0.55-7.51,2.32c-0.55,1.25-0.92,2.57-0.76,3.88C295.48,151.06,295.99,151.62,296.59,151.84z"/>
				<path class="st5" d="M294.84,150.32c-0.33-3.05,1.58-5.56,3.71-6.74c1.71-0.95,3.41-0.96,4.43-0.03
					c0.8,0.73,1.18,1.53,1.11,2.39c-0.15,1.83-2.28,3.21-2.37,3.27c-0.1,0.06-0.22,0.03-0.29-0.06c-0.06-0.1-0.04-0.23,0.06-0.29
					c0.02-0.01,2.04-1.33,2.17-2.95c0.06-0.72-0.27-1.4-0.97-2.04c-0.89-0.8-2.4-0.77-3.95,0.09c-2.1,1.16-3.97,3.7-3.43,6.74
					c0.02,0.12-0.06,0.23-0.17,0.25c-0.12,0.02-0.22-0.06-0.24-0.17C294.88,150.62,294.85,150.46,294.84,150.32z"/>
			</g>
			<path class="st16" d="M303.57,141.88c-0.98-0.81-2.34-1.18-3.63-1c-0.76,0.11-1.53,0.32-2.19,0.74
				c-0.37,0.24-1.38,1.05-0.56,1.41c0.73,0.33,1.56-0.07,2.26-0.31c1.51-0.53,2.88-0.32,4.17,1.01c0.36,0.37,1.56,1.11,1.21-0.03
				C304.6,142.99,304.14,142.36,303.57,141.88z"/>
		</g>
	</g>
	<g>
		<g>
			<path class="st4" d="M261.96,162.68c0,0,0.93,2.32,7.69,4.19c6.76,1.87,13.23-0.15,15.82-2.16c2.59-2,0.15-7.94-3.9-6.44
				c-3.72,1.38-7.27,0.77-10.55-1.33c-2.2-1.41-4.39-3.37-7.17-2.53C260.05,155.55,259.37,159.93,261.96,162.68z"/>
			<path class="st5" d="M275.17,167.82L275.17,167.82c-1.9,0-3.78-0.25-5.58-0.75c-6.38-1.76-7.65-3.94-7.81-4.27
				c-1.36-1.46-1.89-3.4-1.41-5.19c0.44-1.64,1.68-2.88,3.42-3.41c0.46-0.14,0.94-0.21,1.4-0.21c1.85,0,3.43,1.08,4.96,2.12
				c0.32,0.22,0.65,0.44,0.97,0.65c3.36,2.16,6.87,2.6,10.36,1.31c0.46-0.17,0.91-0.25,1.35-0.25c1.6,0,3.03,1.15,3.64,2.94
				c0.56,1.65,0.21,3.27-0.89,4.12C283.7,166.34,279.75,167.82,275.17,167.82z M265.19,154.4c-0.43,0-0.86,0.06-1.28,0.19
				c-1.59,0.48-2.73,1.62-3.13,3.11c-0.44,1.63,0.08,3.48,1.34,4.81c0.02,0.02,0.03,0.04,0.04,0.07c0.01,0.02,1.02,2.26,7.55,4.06
				c1.76,0.49,3.6,0.73,5.47,0.73c4.48,0,8.34-1.43,10.17-2.85c0.96-0.74,1.25-2.17,0.75-3.65c-0.42-1.22-1.52-2.65-3.24-2.65
				c-0.39,0-0.79,0.07-1.2,0.23c-3.61,1.34-7.26,0.88-10.74-1.35c-0.33-0.21-0.66-0.43-0.98-0.66
				C268.43,155.45,266.91,154.4,265.19,154.4z"/>
		</g>
		<g>
			<g>
				<path class="st6" d="M283.45,155.86c-0.91,0.77-1.72,1.72-1.86,2.37c-0.45,1.01,0.05,2.5,1.07,4.15
					c1.72,2.79,5.26,1.59,6.59,0.47c1.34-1.12,0.59-5.05-1.13-6.38c-1.64-1.25-1.72-1.15-2.01-1.06
					C286.04,155.39,284.76,154.74,283.45,155.86z"/>
				<path class="st7" d="M285.76,164.31c-1.41,0-2.55-0.63-3.28-1.81c-1.16-1.88-1.52-3.34-1.08-4.34c0.16-0.73,1.1-1.75,1.92-2.44
					c0.55-0.46,1.16-0.7,1.81-0.7c0.47,0,0.84,0.13,0.98,0.18c0.07-0.02,0.14-0.04,0.22-0.04c0.28,0,0.64,0.17,1.92,1.15
					c1.21,0.93,1.88,2.93,1.91,4.43c0.02,1.04-0.25,1.85-0.76,2.28C288.62,163.65,287.2,164.31,285.76,164.31z M285.13,155.42
					c-0.55,0-1.07,0.2-1.54,0.6c-0.95,0.81-1.67,1.71-1.79,2.25c-0.39,0.9-0.03,2.26,1.04,3.99c0.82,1.33,2.04,1.61,2.92,1.61
					c1.33,0,2.67-0.62,3.36-1.19c0.41-0.34,0.63-1.04,0.61-1.95c-0.03-1.6-0.78-3.37-1.74-4.1c-0.99-0.76-1.47-1.07-1.66-1.07
					c-0.03,0-0.06,0.01-0.12,0.03l-0.05,0.02h-0.09c-0.01,0-0.04-0.01-0.08-0.03C285.87,155.54,285.56,155.42,285.13,155.42z"/>
			</g>
			<g>
				<g>
					<path class="st7" d="M287.54,155.96c0.02,0.03,0.02,0.07,0.01,0.11c-0.16,0.96-1.23,1.83-1.28,1.87
						c-0.09,0.07-0.21,0.06-0.28-0.03s-0.06-0.21,0.03-0.28c0.01-0.01,1-0.82,1.13-1.62c0.02-0.11,0.12-0.18,0.23-0.17
						C287.46,155.85,287.51,155.89,287.54,155.96z"/>
					<path class="st7" d="M289.07,157.61c0.43,1.01-1.18,2.2-1.24,2.25c-0.09,0.07-0.22,0.05-0.28-0.04
						c-0.07-0.09-0.04-0.21,0.04-0.28c0.4-0.29,1.39-1.18,1.11-1.78c-0.04-0.12,0-0.22,0.1-0.27c0.1-0.05,0.22,0,0.27,0.09
						C289.06,157.59,289.07,157.6,289.07,157.61z"/>
					<path class="st7" d="M289.84,160.09c0.02,0.04,0.02,0.09,0.01,0.13c-0.32,1.25-1.28,1.83-1.32,1.85
						c-0.1,0.06-0.22,0.03-0.28-0.07s-0.02-0.22,0.07-0.28c0.01-0.01,0.85-0.52,1.13-1.61c0.03-0.11,0.14-0.17,0.25-0.15
						C289.77,159.99,289.82,160.04,289.84,160.09z"/>
				</g>
				<path class="st7" d="M285.99,155.18c0.01,0.02,0.02,0.04,0.02,0.06c0.01,0.11-0.07,0.21-0.18,0.22
					c-0.56,0.05-1.5,0.95-1.81,1.29c-0.07,0.08-0.2,0.09-0.28,0.01c-0.08-0.08-0.09-0.2-0.01-0.29c0.13-0.14,1.25-1.35,2.07-1.42
					C285.88,155.05,285.96,155.1,285.99,155.18z"/>
			</g>
		</g>
	</g>
	<g>
		<path class="st4" d="M265.16,176.35c-4.69-2.58-11.73,0.61-11.61,5.52c-3.53-0.68-6.44-1.83-7.06-1.71
			c-3.56,0.68-2.16,9.78,0.35,11.83c2.73,2.23,3.9-1.05,3.9-1.05s8.68,3.02,19.42,1.54c1.12-0.49,3.65-1.91,3.51-4.5
			C273.45,183.85,267.02,177.37,265.16,176.35z"/>
		<path class="st5" d="M264.12,193.1L264.12,193.1c-6.93,0-12.21-1.57-13.26-1.9c-0.22,0.5-0.92,1.78-2.24,1.78
			c-0.6,0-1.25-0.28-1.91-0.83c-1.87-1.53-3.11-6.75-2.34-9.81c0.35-1.37,1.07-2.2,2.08-2.39c0.34-0.06,1.18,0.17,2.43,0.53
			c1.17,0.34,2.75,0.79,4.46,1.13c0.03-1.39,0.62-2.71,1.7-3.81c1.55-1.59,4-2.58,6.4-2.58c1.38,0,2.7,0.33,3.82,0.94
			c1.93,1.06,8.4,7.63,8.62,11.81c0.14,2.74-2.5,4.2-3.64,4.7c-0.02,0.01-0.04,0.01-0.05,0.02
			C268.21,192.96,266.17,193.1,264.12,193.1z M250.74,190.71c0.02,0,0.04,0,0.07,0.01c0.06,0.02,5.66,1.94,13.31,1.94l0,0
			c2.03,0,4.04-0.13,5.98-0.4c1.08-0.47,3.49-1.82,3.36-4.28c-0.09-1.73-1.37-4.17-3.59-6.87c-1.85-2.24-3.9-4.1-4.81-4.6
			c-1.06-0.58-2.31-0.89-3.62-0.89c-2.29,0-4.62,0.94-6.09,2.45c-1.07,1.1-1.62,2.4-1.58,3.77c0,0.06-0.03,0.12-0.07,0.17
			c-0.05,0.04-0.11,0.06-0.18,0.05c-1.82-0.35-3.51-0.84-4.75-1.19c-1.1-0.32-1.96-0.58-2.23-0.52c-0.85,0.16-1.44,0.86-1.75,2.08
			c-0.75,2.93,0.42,7.93,2.19,9.38c0.59,0.48,1.14,0.73,1.65,0.73c1.29,0,1.91-1.67,1.92-1.69
			C250.57,190.77,250.65,190.71,250.74,190.71z"/>
	</g>
	<g>
		<path class="st5" d="M263.91,190.73c-0.04,0-0.07-0.01-0.1-0.03c-0.04-0.02-3.88-2.09-7.01-4.33c-3.2-2.29-3.5-4.58-3.51-4.68
			c-0.01-0.11,0.07-0.22,0.18-0.23c0.12-0.01,0.22,0.07,0.24,0.19c0,0.02,0.3,2.21,3.34,4.38c3.11,2.23,6.93,4.28,6.96,4.31
			c0.1,0.05,0.14,0.18,0.09,0.29C264.05,190.68,263.98,190.73,263.91,190.73z"/>
	</g>
</g>
</svg>
