<?xml version="1.0" encoding="utf-8"?>
<!-- Generator: Adobe Illustrator 27.2.0, SVG Export Plug-In . SVG Version: 6.00 Build 0)  -->
<svg version="1.1" id="Calque_1" xmlns="http://www.w3.org/2000/svg" xmlns:xlink="http://www.w3.org/1999/xlink" x="0px" y="0px"
	 viewBox="0 0 90 70" style="enable-background:new 0 0 90 70;" xml:space="preserve">
<style type="text/css">
	.st0{fill:#BF7551;}
	.st1{fill:#885822;}
	.st2{fill:#F09A68;}
	.st3{fill:#BA6F48;}
	.st4{fill:#CC895A;}
	.st5{fill:#99632A;}
	.st6{fill:#F8C6A3;}
	.st7{fill:#CCA084;}
	.st8{fill:#734C2E;}
	.st9{fill:#FFFFFF;}
	.st10{fill:#513411;}
	.st11{fill:#9A9B63;}
	.st12{fill:#53734E;}
	.st13{fill:#9FA582;}
	.st14{fill:#156B92;}
	.st15{fill:#075969;}
	.st16{opacity:0.5;fill:#CC895A;enable-background:new    ;}
</style>
<g>
	<g>
		<g>
			<g>
				<path class="st0" d="M15.8,34.3c0,0,1.2-2.9,5.9-1.7s14.4,3,19.5-0.1c5.2-3.1,4.6,8.9-6.6,11C23.7,45.5,16.6,42,15.8,34.3z"/>
				<path class="st1" d="M28.9,44.2c-7.8,0-12.6-3.6-13.3-9.9v-0.1c0-0.1,0.9-2.2,4-2.2c0.7,0,1.4,0.1,2.2,0.2
					c2.9,0.7,7.3,1.6,11.4,1.6c3.4,0,6.1-0.6,8-1.7c0.6-0.3,1.2-0.6,1.6-0.6c1.1,0,1.6,0.8,1.8,2.1c0.2,2.8-2.4,8.5-9.9,9.9
					C32.8,44.1,30.8,44.2,28.9,44.2z M16,34.4c0.7,6,5.2,9.4,12.8,9.4c1.8,0,3.8-0.2,5.9-0.6c7.2-1.4,9.8-6.8,9.5-9.5
					c0-0.5-0.2-1.6-1.3-1.6c-0.5,0-0.9,0.1-1.4,0.5c-2,1.2-4.7,1.8-8.2,1.8c-4.2,0-8.6-0.9-11.5-1.6c-0.7-0.2-1.4-0.2-2.1-0.2
					C17.1,32.5,16.3,34,16,34.4z"/>
			</g>
			<g>
				<g>
					<g>
						<path class="st2" d="M42.9,30.6c0,0-2.9-0.2-3.6,2.3c-0.7,2.5,1.6,6.8,3.9,6.9c2.1,0,6.5-1.5,6-5.4
							C48.2,27,42.9,30.6,42.9,30.6z"/>
						<path class="st3" d="M43.2,39.9L43.2,39.9L43.2,39.9c-0.9,0-1.8-0.6-2.6-1.6c-1.2-1.4-2-3.8-1.6-5.7c0.6-2.5,3.3-2.5,3.8-2.5
							c0.4-0.2,1.4-0.9,2.8-0.9c1.4,0,3.3,0.8,3.8,4.8c0.1,1.4-0.2,2.5-1.1,3.6C47,39.4,44.8,39.9,43.2,39.9z M42.8,30.8
							c-0.6,0-2.7,0.1-3.2,2.2c-0.4,1.4,0.4,3.7,1.5,5.2c0.7,0.9,1.4,1.4,2.1,1.4h0.1c1.4,0,3.5-0.7,4.7-2c0.8-0.9,1.1-2,0.9-3.2
							c-0.4-2.9-1.5-4.4-3.3-4.4c-1.3,0-2.6,0.8-2.6,0.8H43C42.9,30.8,42.9,30.8,42.8,30.8z"/>
					</g>
					<g>
						<path class="st3" d="M47.1,32.7c-0.1,0.1-0.2,0.2-0.5,0.3c-1.1,0.8-2.8,1.3-3.6,0.8c-0.2-0.1-0.6-0.5-0.6-1.2
							c0.1-1.8,3.4-3.1,3.5-3.1c0.1,0,0.2,0,0.4,0.1c0,0.1,0,0.2-0.1,0.3c-0.8,0.3-3.2,1.5-3.2,2.8c0,0.3,0.1,0.6,0.4,0.7
							c0.7,0.3,2.2,0,3.2-0.7c1.3-0.9,1.5-1.5,1.5-1.5c0-0.1,0.2-0.2,0.4-0.1c0.1,0,0.2,0.2,0.1,0.3C48.4,31.3,48.2,31.8,47.1,32.7z
							"/>
						<path class="st3" d="M48.2,35c-0.2,0.2-0.6,0.3-0.8,0.5c-1.1,0.6-2.5,0.7-3.3,0.5c-0.4-0.1-0.6-0.3-0.7-0.7
							c-0.2-0.7,0.2-1.5,0.2-1.5c0.1-0.1,0.2-0.1,0.4-0.1c0.1,0.1,0.1,0.2,0.1,0.3c-0.1,0.2-0.4,0.7-0.2,1.2
							c0.1,0.1,0.2,0.2,0.5,0.3c0.6,0.2,1.8,0.1,2.8-0.5c0.6-0.3,1.4-0.8,1.6-1.7c0-0.1,0.1-0.2,0.4-0.1c0.2,0.1,0.2,0.1,0.1,0.3
							C49,34,48.6,34.6,48.2,35z"/>
						<path class="st3" d="M48.6,37.2L48.6,37.2c-0.1,0.1-2.6,1-3.8,0.2c-0.5-0.3-0.6-0.8-0.6-1.5c0-0.1,0.1-0.2,0.2-0.2
							c0.1,0,0.2,0.1,0.2,0.2c0,0.5,0.1,0.8,0.4,1c0.7,0.6,2.6,0,3.2-0.2c0.1,0,0.2,0,0.4,0.1C48.8,37,48.8,37.2,48.6,37.2z"/>
						<path class="st3" d="M45.9,39.5l-0.1,0.1c0,0-0.9,0-1.3-0.6c-0.2-0.5-0.2-1.2,0.1-2c0.1-0.1,0.2-0.1,0.4-0.1
							c0.1,0.1,0.1,0.2,0.1,0.3c-0.4,0.7-0.4,1.2-0.2,1.5c0.2,0.3,0.8,0.3,0.8,0.3c0.1,0,0.2,0.1,0.2,0.2
							C45.9,39.4,45.9,39.4,45.9,39.5z"/>
						<path class="st3" d="M43.3,36.8l-0.1,0.1c-0.4,0.2-0.7,0.2-1.1,0.1c-1.4-0.5-2.6-3-2.7-3.1c0-0.1,0-0.2,0.1-0.3
							c0.1-0.1,0.2,0,0.4,0.1c0.4,0.7,1.4,2.7,2.4,2.9c0.2,0.1,0.5,0,0.6-0.1c0.2-0.1,0.5-0.3,0.5-0.7c0.2-1-0.8-2.7-0.8-2.7
							c-0.1-0.1,0-0.2,0.1-0.3c0.1-0.1,0.2,0,0.4,0.1c0,0.1,1.2,1.7,0.9,3C43.8,36.2,43.6,36.6,43.3,36.8z"/>
					</g>
				</g>
			</g>
		</g>
		<g>
			<g>
				<path class="st0" d="M25.5,29.2c0,0,2.1-2.3,6.1,0.5s12.2,8,18.2,6.8c6-1,0.9,9.9-10.2,7.9C28.5,42.4,23.3,36.6,25.5,29.2z"/>
				<path class="st1" d="M42.4,44.9c-0.9,0-1.9-0.1-2.8-0.2C33,43.4,28.4,41,26.2,37.4c-1.5-2.4-1.9-5.2-1.1-8.3c0,0,0-0.1,0.1-0.1
					s0.9-0.9,2.6-0.9c1.2,0,2.5,0.5,3.9,1.4c3.6,2.5,10.7,6.9,16.5,6.9c0.6,0,1.2,0,1.6-0.1c1.1-0.2,1.9,0,2.4,0.5
					c0.4,0.3,0.5,0.8,0.5,1.3C52.6,40.4,49,44.9,42.4,44.9z M25.7,29.3c-0.8,2.9-0.5,5.5,0.9,7.9c2.1,3.3,6.7,5.9,13.1,7
					c0.9,0.1,1.8,0.2,2.7,0.2c6.1,0,9.8-4.2,9.8-6.3c0-0.5-0.1-0.7-0.4-0.9c-0.4-0.3-1.1-0.5-1.9-0.3c-0.6,0.1-1.2,0.1-1.8,0.1
					c-5.8,0-12.9-4.4-16.7-7c-1.3-0.9-2.5-1.4-3.6-1.4C26.5,28.5,25.8,29.1,25.7,29.3z"/>
			</g>
			<g>
				<g>
					<g>
						<path class="st2" d="M52.1,35.3c0,0-2.7-1.3-4.2,0.9c-1.5,2.2-0.9,7,1.1,7.7c2,0.8,6.6,0.9,7.5-3
							C58.3,33.9,52.1,35.3,52.1,35.3z"/>
						<path class="st3" d="M51.5,44.7L51.5,44.7c-0.9,0-1.9-0.1-2.7-0.5c-0.7-0.3-1.4-1.2-1.8-2.3c-0.5-1.7-0.5-4.3,0.6-5.8
							c0.6-0.9,1.5-1.4,2.7-1.4c0.8,0,1.5,0.2,1.8,0.3c0.5-0.1,2.9-0.5,4.2,1.2c0.8,1,0.9,2.7,0.4,4.8
							C55.8,44.3,52.8,44.7,51.5,44.7z M50.3,35.2c-0.9,0-1.6,0.3-2.2,1.2c-0.8,1.2-1.1,3.5-0.5,5.4c0.4,1,0.8,1.8,1.4,2.1
							c0.7,0.2,1.5,0.5,2.5,0.5l0,0c1.2,0,4-0.3,4.8-3.2c0.5-2.1,0.5-3.6-0.4-4.5c-1.2-1.5-3.8-0.9-3.8-0.9c-0.1,0-0.1,0-0.1,0
							C51.9,35.5,51.2,35.2,50.3,35.2z"/>
					</g>
					<g>
						<path class="st3" d="M55.2,38.8c-0.1,0-0.4,0.1-0.5,0.1c-1.3,0.3-3.1,0.2-3.8-0.6c-0.2-0.2-0.5-0.7-0.1-1.3
							c0.7-1.6,4.2-1.6,4.5-1.6c0.1,0,0.2,0.1,0.2,0.2c0,0.1-0.1,0.2-0.2,0.2c-0.9,0-3.4,0.2-4,1.4c-0.1,0.3-0.1,0.6,0,0.7
							c0.5,0.6,2,0.8,3.2,0.5c1.5-0.5,2-0.9,2-0.9c0.1-0.1,0.2-0.1,0.4,0c0.1,0.1,0.1,0.2,0,0.3C56.9,38,56.4,38.4,55.2,38.8z"/>
						<path class="st3" d="M55.3,41.3c-0.4,0.1-0.7,0.1-0.9,0.2c-1.2,0.1-2.6-0.2-3.2-0.7c-0.2-0.2-0.5-0.6-0.5-0.8
							c0-0.7,0.7-1.3,0.8-1.4c0.1-0.1,0.2-0.1,0.4,0c0.1,0.1,0.1,0.2,0,0.3c-0.1,0.1-0.6,0.6-0.6,0.9c0,0.1,0.1,0.3,0.2,0.5
							c0.5,0.3,1.6,0.7,2.8,0.6c0.7-0.1,1.6-0.3,2.2-1c0.1-0.1,0.2-0.1,0.4,0c0.1,0.1,0.1,0.2,0,0.3C56.4,40.9,55.8,41.2,55.3,41.3z
							"/>
						<path class="st3" d="M54.9,43.6L54.9,43.6c-0.2,0-2.8,0-3.5-1.2c-0.2-0.5-0.2-0.9,0-1.6c0.1-0.1,0.2-0.1,0.4-0.1
							c0.1,0.1,0.1,0.2,0.1,0.3c-0.2,0.5-0.2,0.8,0,1.2c0.5,0.8,2.4,0.9,3.1,0.9c0.1,0,0.2,0.1,0.2,0.2C55.1,43.4,55,43.5,54.9,43.6
							z"/>
						<path class="st3" d="M51.5,44.7h-0.1c0,0-0.8-0.3-0.9-1c-0.1-0.6,0.2-1.2,0.9-1.7c0.1-0.1,0.2-0.1,0.4,0
							c0.1,0.1,0.1,0.2,0,0.3c-0.6,0.5-0.8,0.9-0.7,1.3c0.1,0.5,0.7,0.7,0.7,0.7c0.1,0,0.2,0.2,0.1,0.3
							C51.7,44.5,51.6,44.7,51.5,44.7z"/>
						<path class="st3" d="M50.1,41.3c-0.1,0-0.1,0-0.2,0c-0.4,0.1-0.7,0-1.1-0.2c-1.2-0.9-1.3-3.8-1.3-3.9c0-0.1,0.1-0.2,0.2-0.2
							c0.1,0,0.2,0.1,0.2,0.2c0,0.8,0.4,2.9,1.1,3.6c0.1,0.1,0.4,0.2,0.6,0.1c0.2-0.1,0.5-0.2,0.7-0.5c0.6-0.9,0.2-2.8,0.2-2.8
							c0-0.1,0-0.2,0.2-0.2c0.1,0,0.2,0,0.2,0.2c0,0.1,0.5,2.1-0.2,3.1C50.6,41,50.4,41.2,50.1,41.3z"/>
					</g>
				</g>
			</g>
		</g>
		<g>
			<g>
				<path class="st4" d="M17,46.6c1.3-1.5,1.6-3.5,0.8-5.2c-1.2-2.2-5.4-3-7.3-1.5c-0.2,0.2,0.1,0.5,0.2,0.5
					c0.2,0.1,0.6,0.1,0.8,0.2c-1.4,0.2-2.8,0.8-3.4,2.2c0,0.1,0,0.1,0.1,0.1c0.4,0.2,0.7,0.3,1.2,0.3c-0.9,0.5-1.5,1.2-1.8,2.3
					c0,0.1,0.1,0.1,0.1,0.2C8.2,46,8.5,46.2,9,46c-0.5,1-0.6,2.4,0.4,3c0.6,0.3,1.1,0.3,1.4,0.1c0.6,0.5,1.4,0.6,2.4,0.2
					c0.6-0.2,1.1-0.5,1.5-0.8C15.6,48.2,16.4,47.3,17,46.6z"/>
				<path class="st5" d="M12,49.9L12,49.9c-0.5,0-0.9-0.1-1.3-0.3c-0.5,0.2-0.9,0.1-1.5-0.2c-0.9-0.6-0.9-1.8-0.6-3
					c-0.4,0-0.7-0.1-0.9-0.3c-0.2-0.1-0.2-0.2-0.2-0.5c0.2-0.9,0.6-1.6,1.3-2.1C8.5,43.3,8.3,43.3,8,43c-0.1-0.1-0.1-0.2-0.1-0.3
					v-0.1c0.5-1,1.3-1.7,2.6-2.1c-0.1-0.1-0.4-0.2-0.5-0.5c0-0.1,0-0.2,0.2-0.5c0.7-0.6,1.8-0.8,2.8-0.8c2.1,0,4.1,1,4.8,2.4
					c0.9,1.8,0.6,3.8-0.8,5.4c-0.7,0.7-1.5,1.6-2.6,2c-0.5,0.3-0.9,0.6-1.5,0.8C12.7,49.9,12.4,49.9,12,49.9z M10.6,48.9h0.1
					c0.6,0.5,1.3,0.5,2.1,0.2c0.6-0.2,1.1-0.5,1.5-0.8c0.9-0.3,1.8-1.3,2.5-1.8c1.3-1.4,1.6-3.2,0.7-4.8c-0.7-1.3-2.5-2.2-4.5-2.2
					c-1.1,0-1.9,0.2-2.5,0.7l0.1,0.1c0.2,0.1,0.5,0.1,0.7,0.1h0.1c0.1,0,0.2,0.1,0.2,0.2c0,0.1-0.1,0.2-0.2,0.2
					c-1.6,0.2-2.7,0.8-3.2,1.8c0.2,0.1,0.5,0.2,0.9,0.2c0.1,0,0.2,0.1,0.2,0.2s0,0.2-0.1,0.2c-0.9,0.5-1.4,1.2-1.6,2.1l0,0
					c0.2,0.2,0.6,0.2,0.9,0.2c0.1,0,0.1,0,0.2,0.1c0.1,0.1,0.1,0.1,0,0.2c-0.4,1-0.6,2.2,0.2,2.8C9.8,49.2,10.2,49.2,10.6,48.9
					L10.6,48.9z"/>
			</g>
			<g>
				<g>
					<path class="st4" d="M29.1,22.6C20.6,26.8,7,39.1,12.6,49.9c5.6,10.6,25.5,12,29.3,7.9c3.8-4.2,9.2-23.2,7.5-30.2
						C47.9,20.4,45,14.8,29.1,22.6z"/>
					<path class="st5" d="M33.8,60.1L33.8,60.1C26,60.1,16,56.9,12.4,50c-1.5-3-1.8-6.2-0.6-9.8c1.4-4.4,4.8-8.2,7.3-10.6
						c3.1-2.9,6.6-5.4,9.9-7c5.2-2.5,9.2-3.8,12.4-3.8c5.9,0,7.5,4.5,8.5,8.8c1.6,6.8-3.8,26.1-7.6,30.5
						C40.9,59.3,37.8,60.1,33.8,60.1z M41.3,19c-3.1,0-6.9,1.3-12.1,3.7c-9.8,4.7-15.4,13-16.9,17.4c-1.2,3.3-0.9,6.6,0.6,9.5
						c3.6,6.8,13.4,9.9,20.9,9.9c3.8,0,6.7-0.8,7.9-2.1c3.5-3.9,9.2-22.9,7.5-30C48.2,22.5,46.3,19,41.3,19z"/>
				</g>
				<g>
					<path class="st6" d="M49.5,28.7c-0.5-0.7-1.1-1-2-0.7c-1.5,0.6-2.7,2-3.6,3.2c-2.5,3-4.5,6.2-6.1,9.7
						c-2.2,4.3-6.6,15.4-1.8,18.8c2.8-0.2,5.1-0.9,6.1-2.1C45,54.2,49,38.3,49.5,28.7z"/>
					<path class="st7" d="M35.9,60h-0.1c-4.7-3.3-0.9-14,1.6-19.2c2-3.8,4-7,6.2-9.7c1.1-1.3,2.2-2.7,3.8-3.2
						c0.9-0.3,1.8-0.1,2.4,0.8v0.1c-0.5,9.1-4.4,25.5-7.5,29.1C41.1,59,38.9,59.8,35.9,60L35.9,60z M48.2,28.2c-0.2,0-0.4,0-0.6,0.1
						c-1.4,0.6-2.6,2-3.5,3.1c-2.1,2.7-4.2,5.8-6.1,9.6c-2.6,5-6.2,15.2-1.9,18.5c2.8-0.2,4.8-0.9,5.8-2c2.9-3.2,6.9-18.8,7.4-28.7
						C48.9,28.4,48.5,28.2,48.2,28.2z"/>
				</g>
			</g>
		</g>
		<g>
			<g>
				<g>
					<path class="st4" d="M57.8,44c0.8,0,1.6,0,2.5-0.1c9.9-1,17.2-9.4,16.1-18.6S64.2,6.9,54.3,8c-9.9,1-14.8,11.9-13.8,21.1
						c0,0.5,0.1,0.9,0.2,1.3C41.3,43,51.5,49,53.9,48.6C55,48.5,56.5,46.2,57.8,44z"/>
					<path class="st5" d="M53.5,48.9L53.5,48.9c-2.8,0-12.5-5.8-13.2-18.5c-0.1-0.5-0.1-0.9-0.2-1.3c-1.1-9.5,4-20.3,14-21.4
						c0.5-0.1,1.1-0.1,1.6-0.1c9.5,0,19.9,8.8,20.8,17.7c1.1,9.4-6.4,17.8-16.4,18.8c-0.7,0.1-1.5,0.1-2.4,0.1
						c-1.6,2.9-3.1,4.5-4.1,4.6C53.7,48.9,53.6,48.9,53.5,48.9z M55.8,8.2c-0.5,0-1.1,0-1.5,0.1c-9.6,1-14.6,11.7-13.7,20.9
						c0,0.3,0.1,0.8,0.2,1.3c0.6,11.9,9.6,18.1,12.6,18.1l0,0c0.1,0,0.1,0,0.2,0c0.9-0.1,2.2-1.7,3.8-4.5c0-0.1,0.1-0.1,0.2-0.1
						c0.8,0,1.6,0,2.5-0.1c9.8-1,16.9-9.2,16-18.4C75.2,16.6,65.1,8.2,55.8,8.2z"/>
				</g>
				<path class="st4" d="M46.4,17.8c3.2,1.2,5.1,3.7,7.1,6.2c2.7,3.5,5.2,7,7.5,10.6c1.6,2.5,3.2,5.3,4.8,7.9
					c6.9-3,11.3-9.7,10.5-17.1C75.2,16.1,64.1,7,54.2,8.1c-5.6,0.6-9.6,4.4-11.9,9.2C43.7,17.1,45.1,17.2,46.4,17.8z"/>
				<g>
					<path class="st6" d="M57.8,44L57.8,44c-1.3-2.2-4.6-3.5-6.9-4c-2.5-0.6-5.2-1-7.6-0.2c3.3,6.2,8.9,9.2,10.7,8.9
						C55,48.5,56.5,46.2,57.8,44z"/>
					<path class="st7" d="M53.5,48.9L53.5,48.9c-2.1,0-7.4-3-10.6-9.1c0-0.1,0-0.1,0-0.2c0-0.1,0.1-0.1,0.1-0.1
						c0.9-0.2,1.9-0.5,3.1-0.5c1.4,0,2.9,0.2,4.8,0.7c2.1,0.5,5.8,1.7,7.2,4.2c0,0.1,0,0.1,0,0.2l-0.1,0.1c-1.6,2.9-3.1,4.5-4.1,4.7
						C53.7,48.9,53.6,48.9,53.5,48.9z M43.5,39.8c3.1,5.7,8.1,8.5,10,8.5l0,0c0.1,0,0.1,0,0.2,0c0.9-0.1,2.2-1.7,3.8-4.5
						c-1.4-2.2-4.8-3.2-6.8-3.7C47.7,39.5,45.5,39.4,43.5,39.8z"/>
				</g>
				<g>
					<path class="st5" d="M56.1,47.9c1.4-1.7-0.2-2.7-1.9-2.8c-1.3-0.1-4.4-0.5-4.5,1.5c0,1.2,1.3,2,2.2,2.2
						C53.3,49,55.1,49,56.1,47.9z"/>
					<path class="st8" d="M53.5,49.2L53.5,49.2c-0.5,0-1.1-0.1-1.5-0.2c-1.2-0.3-2.5-1.2-2.5-2.4c0-0.8,0.6-1.8,3.1-1.8
						c0.7,0,1.3,0.1,1.6,0.1c0.6,0.1,2.1,0.3,2.6,1.3c0.2,0.6,0.1,1.2-0.5,1.8C55.7,48.7,54.8,49.2,53.5,49.2z M52.6,45.2
						c-1.6,0-2.6,0.5-2.6,1.4c0,1,1.3,1.7,2.1,2c0.5,0.1,0.9,0.2,1.4,0.2c0.7,0,1.8-0.1,2.4-1c0.5-0.6,0.6-1,0.4-1.4
						c-0.2-0.5-1.1-0.9-2.1-1C53.8,45.2,53.2,45.2,52.6,45.2z"/>
				</g>
			</g>
			<g>
				<path class="st9" d="M58.5,41.8c-2.9,0.1-5.4-1-5.5-2.7c-0.1-1.6,2.2-3.1,5.2-3.2s5.4,1,5.5,2.7C63.8,40.2,61.5,41.7,58.5,41.8z
					"/>
				<g>
					<path class="st10" d="M57.7,41.3c-1.8,0.1-3.2-0.5-3.2-1.4c0-0.8,1.3-1.6,3.1-1.7c1.8-0.1,3.2,0.5,3.2,1.4
						C60.8,40.5,59.3,41.2,57.7,41.3z"/>
					<path class="st9" d="M58.6,39.7c-0.6,0-1.1-0.1-1.1-0.5c0-0.2,0.5-0.6,0.9-0.6c0.6,0,1.1,0.1,1.1,0.5
						C59.7,39.4,59.2,39.6,58.6,39.7z"/>
				</g>
				<path class="st8" d="M61.9,34.3c0,0,4.8,3,2.5,6.1c0,0-1.1,1.5-3.2,0.9C61.3,41.3,64.2,38.9,61.9,34.3z"/>
			</g>
			<g>
				<g>
					<path class="st11" d="M73.4,37.5c0.4,0,0.7,0,1.2,0.1c14.4-9.1,6.1-28.5-5.1-33.9C58.4-1.7,51,5.9,51,5.9l-0.9,1l20.7,30.5
						l2.1,0.1C73.1,37.5,73.2,37.5,73.4,37.5z"/>
					<path class="st12" d="M74.5,37.7L74.5,37.7c-0.4,0-0.6-0.1-0.8-0.1h-0.4c-0.1,0-0.2,0-0.2,0H73l-2.1-0.1c-0.1,0-0.1,0-0.2-0.1
						L49.9,6.9c-0.1-0.1,0-0.2,0-0.3l0.9-1c0,0,4.2-4.3,10.8-4.3c2.6,0,5.3,0.7,8,2c6.8,3.3,12.4,11.7,12.8,19.5
						c0.2,4.4-0.8,10.5-7.8,14.9C74.6,37.7,74.5,37.7,74.5,37.7z M73.7,37.3c0.2,0,0.5,0,0.8,0c6.6-4.3,7.6-10.2,7.4-14.4
						c-0.5-7.6-5.9-15.8-12.5-19c-2.6-1.3-5.2-1.8-7.8-1.8c-6.4,0-10.4,4-10.5,4l-0.7,0.8L71.1,37l2,0.1h0.1c0.1,0,0.2,0,0.4,0
						L73.7,37.3L73.7,37.3z"/>
				</g>
				<path class="st13" d="M71.7,9c3.9,1.4,6.8,4.2,8.8,7.5C78.4,11,74.2,6,69.4,3.7C58.3-1.7,50.9,5.9,50.9,5.9l-0.9,1l5.8,6.9
					C61.8,10,65.2,6.7,71.7,9z"/>
				<g>
					<path class="st14" d="M73.4,37.5c0.4,0,0.7,0,1.2,0.1c1.5-0.9,2.1-1.4,3.2-2.5C74.6,26.5,62.2,11.5,59.6,9
						c-1.9-1.8-3.9-3.5-5.8-5.2c-1.8,1-2.8,2.1-2.8,2.1l-0.9,1l20.7,30.5l2.1,0.1C73.1,37.5,73.2,37.5,73.4,37.5z"/>
					<path class="st15" d="M74.5,37.7L74.5,37.7c-0.4,0-0.6-0.1-0.8-0.1h-0.4c-0.1,0-0.2,0-0.2,0H73l-2.1-0.1c-0.1,0-0.1,0-0.2-0.1
						L49.9,6.9c-0.1-0.1,0-0.2,0-0.3l0.9-1c0,0,1.1-1,2.8-2.1c0.1,0,0.2,0,0.2,0c0.5,0.3,0.8,0.7,1.3,1c1.5,1.3,3.1,2.7,4.6,4
						c2.7,2.7,15.1,17.7,18.1,26.2c0,0.1,0,0.1,0,0.2c-1.1,1.2-1.6,1.6-3.2,2.5C74.6,37.7,74.5,37.7,74.5,37.7z M73.7,37.3
						c0.2,0,0.5,0,0.8,0c1.4-0.9,2-1.3,2.9-2.3c-3.2-8.4-15.3-23.2-18-25.9c-1.4-1.4-2.9-2.8-4.5-4c-0.4-0.3-0.7-0.7-1.2-0.9
						C52.2,5.1,51.2,6,51.2,6l-0.7,0.8L71.1,37l2,0.1h0.1c0.1,0,0.2,0,0.4,0L73.7,37.3L73.7,37.3z"/>
				</g>
				<path class="st14" d="M57.8,12.7c1.2-0.7,2.2-1.3,3.3-2.1c-0.6-0.7-1.2-1.3-1.4-1.6c-1.9-1.8-3.9-3.5-5.8-5.2
					c-1.8,1-2.8,2.1-2.8,2.1l-0.9,1l5.1,7.5C56.1,13.7,56.9,13.1,57.8,12.7z"/>
				<g>
					<path class="st11" d="M51,5.8c0,0-7.5-0.2-9.3,1c0,0-0.7,0.5-0.2,1c0.6,0.5,17.9,18.9,27.8,36.6c0,0,0.7,2.1,1.6,1.3
						c0.6-0.5,3.5-8.3,3.5-8.3S66.6,21.9,51,5.8z"/>
					<path class="st12" d="M70.5,46.3L70.5,46.3c-0.9,0-1.4-1.5-1.5-1.6C59,26.8,41.5,8.3,41.2,8.2C41,8,41,7.7,41,7.6
						c0-0.5,0.5-0.7,0.5-0.8c1.3-1,5.6-1.2,8.1-1.2c0.8,0,1.3,0,1.3,0c0.1,0,0.1,0,0.1,0.1c15.5,15.9,23.5,31.6,23.5,31.7
						c0,0.1,0,0.1,0,0.2c-0.5,1.3-3.1,8-3.6,8.4C71,46.2,70.8,46.3,70.5,46.3z M49.7,6c-4.1,0-6.9,0.3-7.9,1
						c-0.1,0.1-0.2,0.2-0.2,0.5c0,0,0,0.1,0.1,0.2c0.1,0.1,17.8,18.7,27.9,36.7c0.1,0.5,0.6,1.4,1.1,1.4l0,0c0.1,0,0.1,0,0.2-0.1
						c0.4-0.3,2-4.4,3.4-8.1c-0.7-1.3-8.6-16.3-23.4-31.5C50.8,6,50.3,6,49.7,6z"/>
				</g>
				<path class="st13" d="M57.3,12.7c-1.6-1.8-4.5-5-6.4-6.9c0,0-7.5-0.2-9.3,1c0,0-0.7,0.5-0.2,1c0.2,0.2,2.7,2.9,6.4,7
					C48.1,14.8,54.8,13.6,57.3,12.7z"/>
			</g>
			<path class="st8" d="M49.9,47.3C49.8,47.3,49.8,47.3,49.9,47.3c-0.2-0.1-4-1.6-4.2-4.4c-0.1-0.7,0.1-1.2,0.6-1.6
				c1.1-0.9,3.1-0.3,3.2-0.3c0.1,0,0.2,0.1,0.1,0.2s-0.1,0.2-0.4,0.1c0,0-1.9-0.5-2.7,0.2c-0.4,0.2-0.5,0.6-0.4,1.2
				c0.2,2.4,3.8,3.9,3.8,3.9c0.1,0.1,0.2,0.2,0.1,0.3C50.1,47.2,49.9,47.3,49.9,47.3z"/>
			<g>
				<g>
					<g>
						<path class="st4" d="M66.1,14.2c-0.5-8,10.4-11.4,13.8-5.1c4.8,9.1-8.6,10.5-8.6,10.5S66.4,19.7,66.1,14.2z"/>
						<path class="st5" d="M71.1,19.8c-0.2,0-5.1-0.1-5.4-5.7c-0.1-2.9,1.1-4.8,2.2-6c1.5-1.6,3.9-2.7,6.1-2.7
							c2.6,0,4.7,1.3,5.9,3.5c1.3,2.4,1.4,4.5,0.5,6.2C78.3,19.1,71.5,19.8,71.1,19.8L71.1,19.8z M74.1,6c-2.1,0-4.2,0.9-5.8,2.4
							c-1.1,1-2.2,2.9-2.1,5.7c0.4,5.2,4.7,5.3,4.8,5.3v0.2v-0.2c0,0,6.8-0.7,8.9-4.4c0.8-1.6,0.7-3.6-0.5-5.8
							C78.5,7.3,76.5,6,74.1,6z"/>
					</g>
					<path class="st4" d="M69.4,19.3c3.4-1,6.9-3.2,8.5-6.3c0.1-0.8,0-1.6-0.6-2.3c-2.7-3-6.8-0.7-8.8,2.7c-0.7,1.4-1.1,3-0.9,4.5
						C68.1,18.5,68.6,19,69.4,19.3z"/>
					<path class="st5" d="M67.2,17.5c-0.4-3.6,1.9-6.5,4.4-7.7c2-1,4-1.2,5.2,0c0.9,0.8,1.4,1.7,1.3,2.8c-0.1,2.1-2.7,3.7-2.8,3.8
						s-0.2,0-0.4-0.1c-0.1-0.1,0-0.2,0.1-0.3c0,0,2.4-1.5,2.6-3.3c0.1-0.8-0.4-1.6-1.2-2.3c-1.1-0.9-2.8-0.9-4.6,0.1
						c-2.5,1.4-4.7,4.3-4,7.7c0,0.1-0.1,0.2-0.2,0.2c-0.1,0-0.2-0.1-0.2-0.2C67.4,17.9,67.4,17.8,67.2,17.5z"/>
				</g>
				<path class="st16" d="M77.6,7.8c-1.2-0.9-2.7-1.4-4.2-1.2c-0.9,0.1-1.8,0.3-2.6,0.8c-0.5,0.2-1.6,1.3-0.7,1.6
					c0.8,0.3,1.9-0.1,2.7-0.3c1.8-0.6,3.4-0.3,4.9,1.2c0.5,0.5,1.9,1.3,1.4,0C78.8,9.1,78.2,8.4,77.6,7.8z"/>
			</g>
		</g>
		<g>
			<g>
				<path class="st4" d="M28.6,31.8c0,0,1.1,2.7,9.1,4.8s15.5-0.1,18.6-2.5c3.1-2.3,0.1-9.1-4.6-7.4c-4.4,1.6-8.6,0.9-12.5-1.5
					c-2.6-1.6-5.2-3.9-8.5-2.9C26.4,23.5,25.6,28.6,28.6,31.8z"/>
				<path class="st5" d="M44.2,37.7L44.2,37.7c-2.2,0-4.5-0.2-6.6-0.9c-7.5-2.1-8.9-4.5-9.2-5c-1.6-1.7-2.2-3.9-1.6-6
					c0.5-1.8,2-3.3,4-3.9c0.6-0.1,1.1-0.2,1.6-0.2c2.2,0,4,1.3,5.9,2.4c0.4,0.2,0.7,0.5,1.2,0.7c4,2.5,8.1,3,12.2,1.5
					c0.6-0.2,1.1-0.2,1.6-0.2c1.9,0,3.5,1.3,4.2,3.3c0.7,1.8,0.2,3.8-1.1,4.7C54.2,36,49.6,37.7,44.2,37.7z M32.4,22.3
					c-0.5,0-1.1,0.1-1.5,0.2c-1.9,0.6-3.2,1.8-3.6,3.6c-0.5,1.8,0.1,4,1.5,5.5c0,0,0,0,0,0.1c0,0,1.2,2.7,8.9,4.7
					c2.1,0.6,4.2,0.8,6.5,0.8c5.3,0,9.8-1.6,12-3.3c1.2-0.8,1.4-2.5,0.9-4.2c-0.5-1.4-1.8-3-3.8-3c-0.5,0-0.9,0.1-1.4,0.2
					c-4.2,1.5-8.6,1-12.6-1.6c-0.4-0.2-0.8-0.5-1.2-0.8C36.2,23.4,34.4,22.3,32.4,22.3z"/>
			</g>
			<g>
				<g>
					<path class="st6" d="M53.8,24c-1.1,0.9-2,2-2.2,2.8c-0.5,1.2,0.1,2.9,1.3,4.7c2,3.2,6.2,1.8,7.8,0.6c1.5-1.3,0.7-5.9-1.3-7.4
						c-1.9-1.4-2-1.3-2.4-1.3C56.9,23.4,55.5,22.6,53.8,24z"/>
					<path class="st7" d="M56.6,33.7c-1.6,0-3.1-0.7-3.9-2.1c-1.4-2.2-1.8-3.8-1.3-5c0.2-0.8,1.3-2.1,2.2-2.8
						c0.7-0.6,1.4-0.8,2.1-0.8c0.6,0,0.9,0.1,1.2,0.2c0.1,0,0.1,0,0.2,0c0.4,0,0.7,0.2,2.2,1.3c1.4,1,2.2,3.3,2.2,5.1
						c0,1.2-0.2,2.2-0.9,2.7C59.9,32.9,58.3,33.7,56.6,33.7z M55.8,23.4c-0.7,0-1.3,0.2-1.8,0.7c-1.1,0.9-2,2-2.1,2.5
						c-0.5,1,0,2.7,1.2,4.6c0.9,1.5,2.4,1.8,3.4,1.8c1.5,0,3.2-0.7,4-1.4c0.5-0.3,0.7-1.2,0.7-2.2c0-1.8-0.9-3.9-2-4.7
						c-1.2-0.9-1.8-1.3-2-1.3h-0.1H57h-0.1c0,0,0,0-0.1,0C56.8,23.5,56.4,23.4,55.8,23.4z"/>
				</g>
				<g>
					<g>
						<path class="st7" d="M58.6,24.1v0.1c-0.2,1.2-1.4,2.1-1.5,2.2c-0.1,0.1-0.2,0.1-0.4,0c-0.1-0.1-0.1-0.2,0-0.3
							c0,0,1.2-0.9,1.3-1.8c0-0.1,0.1-0.2,0.2-0.2C58.6,23.9,58.6,24,58.6,24.1z"/>
						<path class="st7" d="M60.5,26c0.5,1.2-1.4,2.5-1.4,2.5c-0.1,0.1-0.2,0.1-0.4,0c-0.1-0.1,0-0.2,0-0.3c0.5-0.3,1.6-1.4,1.3-2.1
							c0-0.1,0-0.2,0.1-0.3C60.3,25.6,60.4,25.8,60.5,26L60.5,26z"/>
						<path class="st7" d="M61.3,28.8V29c-0.4,1.4-1.5,2.1-1.5,2.2c-0.1,0.1-0.2,0-0.4-0.1c-0.1-0.1,0-0.2,0.1-0.3
							c0,0,1.1-0.6,1.3-1.8c0-0.1,0.1-0.2,0.2-0.1C61.3,28.7,61.3,28.7,61.3,28.8z"/>
					</g>
					<path class="st7" d="M56.9,23.2L56.9,23.2c0,0.2-0.1,0.3-0.2,0.3c-0.7,0.1-1.8,1-2.1,1.5c-0.1,0.1-0.2,0.1-0.4,0
						c-0.1-0.1-0.1-0.2,0-0.3c0.1-0.1,1.4-1.6,2.5-1.6C56.8,23,56.9,23.1,56.9,23.2z"/>
				</g>
			</g>
		</g>
		<g>
			<path class="st4" d="M32.4,47.5c-5.5-3-13.8,0.7-13.7,6.3c-4.1-0.8-7.5-2.1-8.4-2c-4.2,0.8-2.6,11.3,0.5,13.6
				c3.2,2.5,4.6-1.3,4.6-1.3s10.2,3.5,22.8,1.7c1.3-0.6,4.2-2.2,4.1-5.2C42.1,56.2,34.5,48.8,32.4,47.5z"/>
			<path class="st5" d="M31.1,66.9L31.1,66.9c-8.1,0-14.4-1.8-15.7-2.2c-0.2,0.6-1.1,2.1-2.6,2.1c-0.7,0-1.4-0.3-2.2-0.9
				C8.4,64.2,7,58.1,7.9,54.6c0.5-1.6,1.3-2.5,2.5-2.8c0.4-0.1,1.4,0.2,2.8,0.6s3.3,0.9,5.3,1.3c0-1.6,0.7-3.1,2-4.4
				c1.9-1.8,4.7-3,7.5-3c1.6,0,3.2,0.3,4.5,1c2.2,1.3,9.9,8.8,10.1,13.6c0.1,3.1-2.9,4.8-4.2,5.4c0,0,0,0-0.1,0
				C35.9,66.8,33.6,66.9,31.1,66.9z M15.3,64.2C15.5,64.2,15.5,64.2,15.3,64.2c0.1,0,6.7,2.2,15.8,2.2l0,0c2.4,0,4.7-0.1,7.1-0.5
				c1.3-0.6,4.1-2.1,4-5c-0.1-2-1.6-4.8-4.2-8c-2.2-2.5-4.6-4.7-5.6-5.3c-1.3-0.7-2.7-1-4.2-1c-2.7,0-5.4,1-7.2,2.8
				c-1.3,1.3-1.9,2.8-1.9,4.4c0,0.1,0,0.1-0.1,0.2c-0.1,0-0.1,0.1-0.2,0.1c-2.1-0.5-4.1-0.9-5.6-1.4c-1.3-0.3-2.4-0.7-2.6-0.6
				c-1.1,0.2-1.6,1-2.1,2.4c-0.9,3.3,0.5,9.1,2.6,10.9c0.7,0.6,1.3,0.8,1.9,0.8c1.5,0,2.2-2,2.2-2C15.2,64.3,15.2,64.2,15.3,64.2z"
				/>
		</g>
		<g>
			<path class="st5" d="M30.9,64.2h-0.1c0,0-4.6-2.4-8.2-5c-3.8-2.7-4.1-5.3-4.1-5.4c0-0.1,0.1-0.2,0.2-0.2c0.1,0,0.2,0.1,0.2,0.2
				c0,0,0.4,2.5,3.9,5.1c3.6,2.5,8.1,5,8.2,5c0.1,0.1,0.1,0.2,0.1,0.3C31.1,64.2,31,64.2,30.9,64.2z"/>
		</g>
	</g>
</g>
</svg>
