<?xml version="1.0" encoding="utf-8"?>
<!-- Generator: Adobe Illustrator 27.0.1, SVG Export Plug-In . SVG Version: 6.00 Build 0)  -->
<svg version="1.1" id="Calque_1" xmlns="http://www.w3.org/2000/svg" xmlns:xlink="http://www.w3.org/1999/xlink" x="0px" y="0px"
	 viewBox="0 0 40 40" style="enable-background:new 0 0 40 40;" xml:space="preserve">
<style type="text/css">
	.st0{fill:#523622;}
	.st1{fill:#81583E;}
	.st2{fill:#CD6931;}
	.st3{fill:#F0DA94;}
	.st4{fill:#D0AA86;}
	.st5{fill:#BF7E55;}
	.st6{opacity:0.22;}
	.st7{fill:#6C482C;}
	.st8{opacity:0.22;fill:#6C482C;enable-background:new    ;}
	.st9{fill:#784F32;}
</style>
<g>
	<g>
		<g id="Layer_1_00000167359984375727152360000006437556202670363030_">
			<g>
				<path class="st0" d="M39.68,22c0,0,0-0.02,0-0.03c-0.03-0.08-0.06-0.16-0.07-0.24c-0.02-0.14,0-0.29,0.04-0.42
					c-0.04-0.38-0.11-0.77-0.19-1.14c-0.08-0.36-0.17-0.72-0.25-1.08c-0.07-0.33-0.15-0.67-0.1-1c0.04-0.33,0.14-0.66,0.15-1
					c0-0.04,0-0.07,0-0.1c-0.04-0.05-0.08-0.09-0.13-0.14c-0.07-0.07-0.14-0.14-0.17-0.23c-0.04-0.11-0.07-0.22-0.1-0.33
					c-0.05-0.26-0.06-0.53-0.07-0.79c-0.08-0.18-0.17-0.36-0.25-0.54c-0.02-0.01-0.04-0.03-0.06-0.04
					c-0.17-0.12-0.34-0.25-0.52-0.35c-0.02-0.01-0.02-0.04-0.01-0.06c0.08-0.08,0.16-0.17,0.25-0.26c-0.25-0.56-0.43-1.13-0.7-1.67
					c-0.07-0.15-0.15-0.3-0.24-0.44c-0.17-0.17-0.29-0.38-0.36-0.61c-0.01-0.03-0.02-0.06-0.02-0.08c-0.13-0.25-0.25-0.51-0.35-0.78
					c-0.19-0.56-0.27-1.16-0.49-1.71c-0.1-0.1-0.2-0.19-0.31-0.26c-0.22-0.15-0.47-0.26-0.73-0.3c-0.02,0-0.03-0.03-0.02-0.05
					c0.02-0.15,0.06-0.29,0.09-0.43c0.02-0.12,0.05-0.25,0.05-0.38c-0.4-0.36-0.9-0.53-1.45-0.23c-0.03,0.02-0.07-0.02-0.05-0.05
					c0.05-0.11,0.06-0.22,0.06-0.33c0-0.06,0.02-0.16,0-0.22c-0.03-0.08-0.21-0.17-0.27-0.22c-0.08-0.06-0.17-0.12-0.25-0.18
					c-0.2-0.14-0.39-0.27-0.59-0.41c-0.06-0.01-0.11-0.02-0.17-0.04c-0.17-0.04-0.32-0.13-0.45-0.24c-0.1-0.09-0.19-0.2-0.26-0.32
					c-0.5-0.34-1-0.69-1.48-1.05c-0.12,0.06-0.24,0.13-0.35,0.21c-0.02,0.01-0.05,0-0.05-0.02c-0.06-0.18-0.07-0.37-0.07-0.56
					c-0.19-0.15-0.38-0.31-0.58-0.45c-0.05-0.04-0.1-0.07-0.15-0.11c-0.07,0-0.15,0-0.22-0.01c-0.21-0.02-0.37-0.15-0.5-0.32
					c-0.06-0.08-0.11-0.17-0.16-0.26c-0.6-0.38-1.24-0.71-1.89-1c-0.19-0.08-0.39-0.17-0.6-0.1c-0.27,0.09-0.49,0.34-0.7,0.53
					c-0.02,0.02-0.07,0.01-0.06-0.03c0-0.05,0-0.11-0.01-0.16c-0.11-0.57-0.92-0.78-1.38-0.89c-0.02,0-0.04-0.01-0.06-0.01
					c-0.05,0-0.1,0-0.15,0.01c-0.12,0-0.23,0.04-0.35,0.06c-0.1,0.01-0.21,0.01-0.32-0.02c-0.19-0.05-0.37-0.15-0.54-0.24
					c-0.5-0.04-0.99-0.04-1.47-0.04c-0.67,0.01-1.34,0.05-2.02,0.13c-0.21,0.12-0.42,0.23-0.67,0.23c-0.17,0-0.34-0.03-0.51-0.07
					c-0.04,0.01-0.08,0.01-0.12,0.02c-0.32,0.06-0.64,0.12-0.95,0.19c-0.06,0.07-0.11,0.15-0.19,0.2c-0.14,0.09-0.33,0.04-0.48-0.02
					c-0.38,0.11-0.75,0.25-1.11,0.41c-0.45,0.21-1.16,0.58-1.14,1.18c0,0.04-0.05,0.05-0.07,0.02c-0.17-0.24-0.45-0.37-0.68-0.56
					c-0.05-0.04-0.08-0.09-0.14-0.08c-0.07,0.01-0.17,0.11-0.22,0.16c-0.15,0.11-0.3,0.21-0.45,0.32c-0.52,0.37-1.04,0.73-1.57,1.06
					C10,4.18,9.73,4.34,9.46,4.49C9.33,4.55,9.21,4.61,9.09,4.67c-0.1,0.11-0.21,0.22-0.32,0.31c-0.24,0.2-0.54,0.3-0.8,0.45
					C7.67,5.6,7.4,5.8,7.17,6.05C6.99,6.23,6.84,6.42,6.69,6.62C6.72,6.7,6.75,6.77,6.79,6.84c0.01,0.02,0,0.04-0.01,0.05
					C6.29,7.12,5.85,7.42,5.46,7.78c0,0.02-0.01,0.04-0.02,0.06C5.4,8.02,5.4,8.25,5.22,8.35C5.09,8.43,4.93,8.46,4.78,8.5
					C4.36,9.02,4,9.6,3.68,10.2c-0.16,0.3-0.34,0.6-0.51,0.9c-0.01,0.04-0.01,0.08-0.02,0.12c-0.02,0.15-0.05,0.29-0.11,0.42
					c-0.1,0.2-0.26,0.33-0.41,0.48c-0.03,0.03-0.06,0.06-0.09,0.1c-0.07,0.13-0.13,0.26-0.19,0.39c-0.01,0.04-0.01,0.07-0.01,0.11
					c0,0.03-0.02,0.04-0.05,0.04c-0.05,0.12-0.1,0.24-0.13,0.37c0.06,0.15,0.14,0.29,0.22,0.42c0.02,0.03-0.01,0.06-0.04,0.06
					c-0.09-0.02-0.19-0.01-0.28,0c-0.02,0.18-0.02,0.36-0.02,0.55c0,0.22-0.02,0.45-0.12,0.64c-0.08,0.16-0.22,0.26-0.37,0.34
					c-0.02,0.08-0.04,0.17-0.05,0.25c0.12,0.3,0.07,0.66,0,0.97c-0.1,0.45-0.27,0.89-0.43,1.33c0.02,0.1,0.02,0.2,0.01,0.31
					c-0.02,0.11-0.07,0.21-0.12,0.31c-0.05,0.09-0.1,0.18-0.15,0.27c-0.01,0.02-0.02,0.04-0.04,0.06c0,0.02-0.01,0.04-0.02,0.07
					c-0.06,0.31-0.03,0.62,0,0.93c0.07,0.74,0.24,1.46,0.39,2.19c0.03,0.17,0.07,0.33,0.1,0.5c0.16-0.03,0.32-0.06,0.47-0.08
					c0.04-0.01,0.07,0.04,0.03,0.07c-0.15,0.09-0.31,0.17-0.46,0.25c0.02,0.11,0.03,0.22,0.05,0.33c0.02,0.13,0.03,0.26,0.04,0.4
					c0.07,0.06,0.12,0.12,0.15,0.2c0.05,0.16-0.01,0.31-0.11,0.44c0.02,0.37,0,0.74-0.01,1.11c0.16,0.28,0.3,0.56,0.44,0.85
					c0.39,0.82,0.7,1.68,1,2.54c0.03,0.04,0.06,0.09,0.1,0.13c0.07,0.1,0.15,0.19,0.22,0.29c0.05,0.08,0.1,0.18,0.15,0.27
					c0.05,0.1,0.07,0.21,0.1,0.32c0.05,0.25,0.12,0.51,0.2,0.75c0.03,0.11,0.07,0.21,0.11,0.31c0.14,0.1,0.28,0.18,0.44,0.23
					c0.34-0.04,0.67-0.16,1-0.29c0.03-0.01,0.05,0.03,0.04,0.06c-0.18,0.37-0.41,0.7-0.63,1.05c0.05,0.09,0.1,0.19,0.15,0.28
					c0.04,0.07,0.08,0.16,0.15,0.21c0.05,0.05,0.12,0.07,0.19,0.1c0.06,0.03,0.12,0.06,0.17,0.11c0.06,0.07,0.1,0.15,0.11,0.24
					s0,0.17,0.01,0.25c0,0.05,0.01,0.09,0.02,0.13c0.02,0.02,0.03,0.04,0.05,0.05c0.24,0.26,0.57,0.5,0.94,0.38
					c0.05-0.01,0.06,0.04,0.03,0.07c-0.11,0.08-0.17,0.2-0.23,0.32c0.02,0.17,0.06,0.34,0.12,0.5l0,0c0.01,0.01,0.02,0.02,0.04,0.03
					c0.51,0.44,1.04,0.86,1.57,1.28c0.5,0.4,1,0.9,1.52,1.37c0.03,0.01,0.07,0.02,0.1,0.03c0.16,0.04,0.35,0.01,0.5,0.1
					c0.13,0.07,0.22,0.21,0.29,0.34c0.06,0.12,0.12,0.26,0.19,0.38c0.68,0.43,1.42,0.68,2.29,0.52c0.02,0,0.04,0,0.05,0.03
					c0.04,0.22,0.16,0.4,0.32,0.55c0.01,0.01,0.02,0.02,0.04,0.03c0.2,0.07,0.39,0.15,0.58,0.24c0.21,0.1,0.42,0.2,0.62,0.32
					c0.02,0.01,0.05,0.03,0.07,0.04c0.11,0.04,0.21,0.08,0.32,0.13c0.08,0.03,0.17,0.06,0.25,0.09c0.07,0.01,0.14,0.02,0.21,0.03
					c0.32,0.04,0.64,0.04,0.95,0.11c0.13-0.08,0.22-0.21,0.28-0.36c0.01-0.03,0.05-0.02,0.07,0c0.1,0.21,0.15,0.43,0.22,0.65
					c0.4,0.07,0.82,0.12,1.22,0.15c0.16-0.02,0.33-0.02,0.49-0.02c0.35,0,0.7,0.01,1.06,0.02c0.35,0.01,0.7,0.02,1.05,0
					c0.32-0.02,0.63-0.08,0.94-0.18c0.3-0.09,0.6-0.22,0.89-0.35c0.13-0.06,0.27-0.14,0.4-0.18c0.11-0.04,0.22-0.05,0.34-0.04
					c0.25,0.03,0.47,0.15,0.7,0.23c0.07,0.02,0.15,0.03,0.22,0.04c0.16,0.01,0.32-0.03,0.49-0.08c0.04-0.02,0.07-0.05,0.11-0.07
					c0.2-0.14,0.39-0.3,0.6-0.44c0.1-0.07,0.2-0.13,0.32-0.19c0.12-0.06,0.24-0.09,0.37-0.09c0.11,0,0.22,0.01,0.33,0.01
					c0.17-0.04,0.33-0.08,0.5-0.13c0.25-0.06,0.51-0.13,0.76-0.2c0.04-0.07,0.09-0.13,0.15-0.18c0.14-0.12,0.3-0.12,0.47-0.07
					c0.02,0,0.03,0.01,0.05,0.01c0.05-0.04,0.1-0.07,0.15-0.1c0.16-0.1,0.32-0.19,0.49-0.3c0.21-0.13,0.42-0.26,0.62-0.4
					c0.22-0.15,0.43-0.32,0.65-0.48c0.44-0.34,0.85-0.71,1.26-1.09c0.2-0.19,0.4-0.37,0.61-0.56c0.1-0.09,0.2-0.18,0.3-0.27
					c0.09-0.07,0.2-0.14,0.3-0.2c0.19-0.11,0.4-0.24,0.52-0.43c0.01-0.01,0.01-0.03,0.02-0.04l0,0c0.01-0.04,0-0.07,0-0.12
					c-0.01-0.06,0.01-0.11,0.07-0.14c0.07-0.05,0.16-0.07,0.25-0.06c0.1,0.02,0.19,0.07,0.29,0.09c0.04,0.01,0.09,0.03,0.13,0.02
					c0.04-0.01,0.07-0.02,0.11-0.04c0.08-0.03,0.16-0.07,0.24-0.12c0.35-0.21,0.64-0.52,0.91-0.83c0.26-0.3,0.5-0.63,0.72-0.96
					c0.5-0.72,1.15-1.41,1.29-2.31c-0.05-0.09-0.1-0.17-0.15-0.25c-0.01-0.02,0-0.05,0.02-0.06c0.2-0.07,0.4-0.14,0.6-0.2
					c0.15-0.38,0.3-0.78,0.43-1.17c0.21-0.63,0.4-1.27,0.65-1.89c0.23-0.55,0.45-1.11,0.68-1.66c0.12-0.28,0.23-0.56,0.32-0.84
					c-0.16-0.11-0.32-0.22-0.49-0.31c-0.03-0.01-0.02-0.05,0-0.07c0.48-0.37,0.57-1.04,0.57-1.6L39.68,22z"/>
				<path class="st1" d="M38.54,23.51c0.47-0.36,0.55-1,0.55-1.56c0-0.6-0.09-1.2-0.22-1.78c-0.08-0.35-0.17-0.7-0.24-1.05
					c-0.07-0.32-0.14-0.64-0.1-0.97c0.04-0.33,0.14-0.64,0.14-0.97c0-0.3-0.09-0.59-0.19-0.88c-0.15-0.41-0.33-0.8-0.52-1.19
					c-0.02-0.01-0.04-0.03-0.06-0.04c-0.17-0.11-0.32-0.24-0.5-0.34c-0.02-0.01-0.02-0.04-0.01-0.06c0.08-0.08,0.16-0.16,0.24-0.25
					c-0.24-0.54-0.42-1.1-0.68-1.63c-0.32-0.62-0.72-1.19-0.95-1.85c-0.19-0.55-0.27-1.13-0.47-1.67c-0.09-0.09-0.19-0.18-0.3-0.26
					c-0.21-0.15-0.45-0.25-0.71-0.3c-0.02,0-0.03-0.03-0.02-0.04c0.02-0.14,0.06-0.28,0.09-0.42c0.02-0.12,0.05-0.24,0.05-0.37
					c-0.39-0.35-0.87-0.52-1.41-0.22c-0.03,0.02-0.06-0.02-0.05-0.05c0.04-0.1,0.05-0.21,0.06-0.32c0-0.06,0.02-0.16,0-0.21
					c-0.03-0.07-0.2-0.16-0.27-0.21c-0.08-0.06-0.16-0.11-0.24-0.17c-0.36-0.26-0.72-0.5-1.08-0.75c-0.6-0.41-1.19-0.82-1.77-1.24
					c-0.12,0.06-0.23,0.13-0.34,0.21c-0.02,0.01-0.05,0-0.05-0.02c-0.06-0.18-0.07-0.36-0.07-0.54c-0.18-0.15-0.37-0.3-0.56-0.44
					c-0.3-0.21-0.59-0.42-0.9-0.61c-0.61-0.39-1.26-0.73-1.92-1.02c-0.18-0.08-0.38-0.16-0.57-0.1C25.21,2.29,25,2.53,24.8,2.72
					c-0.02,0.02-0.06,0.01-0.06-0.03c0-0.05,0-0.11-0.01-0.16c-0.11-0.56-0.89-0.76-1.34-0.87c-0.91-0.22-1.86-0.25-2.79-0.23
					c-0.65,0.01-1.3,0.05-1.95,0.12c-0.2,0.12-0.41,0.22-0.65,0.22c-0.17,0-0.33-0.02-0.49-0.06c-0.04,0-0.07,0.01-0.12,0.02
					c-0.9,0.16-1.82,0.37-2.66,0.76c-0.44,0.21-1.12,0.57-1.11,1.15c0,0.04-0.05,0.04-0.07,0.02c-0.16-0.23-0.44-0.37-0.66-0.54
					c-0.05-0.04-0.07-0.08-0.13-0.07c-0.07,0.01-0.16,0.11-0.22,0.15c-0.15,0.1-0.29,0.2-0.43,0.31c-0.5,0.35-1.01,0.7-1.53,1.03
					C10.33,4.7,10.07,4.86,9.79,5C9.54,5.13,9.28,5.24,9.04,5.38C8.6,5.66,8.2,5.99,7.77,6.3C7.54,6.46,7.3,6.63,7.04,6.76
					C7.06,6.93,7.11,7.1,7.2,7.28c0.01,0.02,0,0.04-0.01,0.05c-0.7,0.33-1.3,0.82-1.81,1.4c-0.47,0.55-0.85,1.16-1.2,1.8
					c-0.35,0.66-0.75,1.29-1.1,1.94c-0.15,0.29-0.28,0.58-0.38,0.89c0.06,0.14,0.14,0.28,0.21,0.41c0.02,0.03-0.01,0.06-0.04,0.05
					c-0.09-0.02-0.18-0.01-0.27,0C2.58,14,2.58,14.17,2.57,14.35c0,0.21-0.02,0.43-0.12,0.63c-0.08,0.15-0.21,0.26-0.36,0.33
					c-0.02,0.08-0.03,0.16-0.05,0.24c0.12,0.29,0.07,0.64,0,0.94c-0.13,0.56-0.35,1.08-0.54,1.62c-0.07,0.22-0.15,0.43-0.19,0.66
					c-0.06,0.3-0.03,0.6,0,0.9c0.07,0.72,0.23,1.42,0.38,2.12c0.03,0.16,0.06,0.32,0.09,0.48c0.15-0.03,0.31-0.05,0.46-0.08
					c0.04,0,0.07,0.04,0.03,0.07c-0.15,0.09-0.3,0.16-0.45,0.24c0.02,0.11,0.03,0.21,0.05,0.32c0.04,0.3,0.04,0.59,0.07,0.89
					c0.04,0.4,0,0.81,0,1.21c0.15,0.27,0.3,0.55,0.43,0.83c0.44,0.93,0.77,1.89,1.1,2.85c0.17,0.48,0.33,0.96,0.5,1.44
					c0.19,0.18,0.4,0.32,0.63,0.39c0.33-0.04,0.65-0.16,0.96-0.28c0.03-0.01,0.05,0.03,0.04,0.05c-0.18,0.36-0.4,0.69-0.62,1.03
					c0.04,0.08,0.07,0.16,0.12,0.24c0.19,0.39,0.41,0.78,0.7,1.1c0.23,0.26,0.55,0.48,0.91,0.37c0.04-0.01,0.06,0.04,0.03,0.07
					c-0.17,0.14-0.23,0.37-0.36,0.55c0.08,0.08,0.17,0.17,0.25,0.25c0.01,0.01,0.02,0.02,0.03,0.03c0.49,0.43,1.01,0.83,1.52,1.24
					c1.39,1.11,2.72,3.03,4.73,2.65c0.02,0,0.04,0,0.05,0.03c0.04,0.22,0.15,0.39,0.32,0.54c0.3,0.27,0.69,0.43,1.07,0.57
					c0.01,0,0.02-0.01,0.03,0c0.16,0.05,0.32,0.11,0.48,0.18c0.31,0.11,0.63,0.22,0.95,0.3c0.14,0.01,0.27,0,0.4-0.06
					c0.14-0.07,0.24-0.21,0.3-0.36c0.01-0.03,0.05-0.02,0.06,0c0.1,0.2,0.15,0.41,0.21,0.63c0.97,0.16,1.97,0.21,2.96,0.22
					c0.62,0.01,1.2-0.01,1.8-0.21c0.5-0.17,1-0.39,1.53-0.45c0.28-0.03,0.53,0.1,0.81,0.11c0.32,0.02,0.65-0.15,0.92-0.29
					c0.27-0.14,0.54-0.29,0.82-0.41c0.29-0.12,0.59-0.19,0.89-0.26c0.25-0.06,0.5-0.12,0.74-0.19c0.04-0.07,0.09-0.13,0.14-0.18
					c0.13-0.12,0.29-0.11,0.45-0.07c0.03,0.01,0.07,0.02,0.1,0.03c0.72-0.25,1.39-0.58,1.96-1.11c0.44-0.41,0.88-0.82,1.36-1.18
					c0.45-0.34,0.89-0.66,1.25-1.09c0.13-0.15,0.09-0.41,0.26-0.56c0.16-0.13,0.36-0.06,0.52,0.01c0.09,0.04,0.17,0.08,0.27,0.05
					c0.07-0.02,0.13-0.06,0.19-0.11c0.12-0.09,0.24-0.19,0.35-0.3c0.2-0.2,0.4-0.41,0.61-0.6c0.87-0.78,1.41-1.82,1.92-2.87
					c0.01-0.01,0.01-0.03,0.02-0.04c-0.04-0.19-0.16-0.37-0.26-0.53c-0.01-0.02,0-0.05,0.02-0.05c0.2-0.07,0.39-0.13,0.59-0.2
					c0.15-0.37,0.29-0.75,0.41-1.14c0.2-0.61,0.39-1.23,0.63-1.83c0.22-0.54,0.44-1.08,0.66-1.61c0.11-0.27,0.22-0.54,0.31-0.82
					c-0.15-0.11-0.31-0.21-0.48-0.3C38.52,23.57,38.52,23.54,38.54,23.51L38.54,23.51z"/>
				<ellipse class="st2" cx="20.18" cy="20.59" rx="17.94" ry="18.2"/>
				<ellipse class="st3" cx="20.18" cy="20.59" rx="17.28" ry="17.53"/>
				<ellipse class="st4" cx="20.2" cy="20.77" rx="16.64" ry="16.67"/>
				<ellipse class="st5" cx="20.18" cy="20.59" rx="11.39" ry="11.55"/>
				<g>
					<g class="st6">
						<path class="st7" d="M19.64,20.63C19.64,20.63,19.62,20.66,19.64,20.63L19.64,20.63z"/>
						<path class="st7" d="M19.67,21C19.67,21,19.67,21.01,19.67,21L19.67,21C19.66,20.99,19.66,20.99,19.67,21L19.67,21z"/>
						<path class="st7" d="M19.6,20.73C19.6,20.73,19.6,20.76,19.6,20.73L19.6,20.73z"/>
						<path class="st7" d="M19.62,20.92C19.62,20.92,19.63,20.95,19.62,20.92L19.62,20.92z"/>
						<path class="st7" d="M19.81,21.08C19.81,21.08,19.81,21.08,19.81,21.08c0.01,0,0.01,0,0.02,0c0,0,0,0,0.01,0
							C19.81,21.07,19.81,21.07,19.81,21.08L19.81,21.08z"/>
						<path class="st7" d="M20.51,20.73c-0.01-0.12-0.04-0.25-0.12-0.34c-0.04-0.05-0.09-0.09-0.15-0.12
							c-0.03-0.02-0.07-0.04-0.11-0.04c-0.01,0-0.03-0.01-0.04-0.01c-0.02,0-0.03,0-0.05-0.01h0c-0.01,0-0.01,0-0.02,0
							c-0.07-0.01-0.15,0-0.22,0.02c-0.05,0.01-0.09,0.03-0.13,0.05c-0.06,0.03-0.13,0.07-0.16,0.13c0,0.01-0.01,0.02-0.01,0.03
							c-0.11,0.07-0.2,0.19-0.24,0.32c-0.07,0.26,0.03,0.52,0.28,0.63c0.14,0.06,0.31,0.05,0.45,0.01c0.17-0.05,0.32-0.15,0.42-0.3
							C20.48,20.99,20.51,20.85,20.51,20.73L20.51,20.73z M20.13,20.83c0,0,0,0.03,0,0.04c0,0.02,0,0.04,0,0.05c0,0,0,0,0,0.01
							c0,0.01-0.01,0.02-0.01,0.04l0,0c0,0,0-0.01,0.01-0.01c0,0,0,0.01-0.01,0.01c0,0.01-0.01,0.01-0.01,0.02l0,0
							c0,0-0.01,0.01-0.01,0.02c0,0,0,0,0,0c0,0-0.01,0.01-0.02,0.02l0,0c-0.01,0-0.01,0.01-0.02,0.01c0,0,0.01,0,0.01,0
							c-0.01,0-0.01,0.01-0.02,0.01l0,0c-0.01,0-0.02,0.01-0.02,0c-0.01,0-0.01,0-0.02,0.01H20c-0.03,0.01-0.05,0.01-0.08,0.02
							c0.01,0,0,0-0.01,0l0,0c0,0-0.01,0-0.02,0c0,0,0.01,0,0.01,0c-0.01,0-0.02,0-0.04,0c-0.01,0-0.02,0-0.03,0c0,0,0,0,0.01,0
							c0,0-0.01,0-0.01,0l0,0c-0.01,0-0.01,0-0.01,0c-0.02,0-0.04-0.01-0.06-0.02l0,0c-0.01,0-0.02-0.01-0.03-0.02
							c-0.01-0.01-0.02-0.01-0.03-0.02l0,0c0,0,0,0,0,0c0,0,0,0-0.01-0.01L19.68,21c-0.01-0.01-0.02-0.02-0.03-0.04
							c-0.01-0.02-0.02-0.04-0.03-0.05c0,0,0,0,0,0.01c0,0,0,0,0,0c0-0.01-0.01-0.02-0.01-0.04c0-0.02-0.01-0.04-0.01-0.06
							c0-0.01,0-0.03,0-0.04c0-0.02,0-0.04,0.01-0.07v0.01v-0.01c0-0.01,0.01-0.02,0.01-0.04c0,0,0-0.01,0-0.01l0,0l0,0
							c0-0.01,0.01-0.01,0.01-0.02c0-0.01,0.01-0.02,0.02-0.03l0,0l0,0l0,0l0,0c0.01-0.01,0.02-0.01,0.03-0.02
							c0.01,0,0.02-0.01,0.03-0.02c0,0,0.01,0,0.02-0.01c0,0,0.01,0,0.01,0c0.04-0.02,0.05-0.03,0.01-0.01c0,0,0.01,0,0.01,0
							c0.01,0,0.02-0.01,0.03-0.01c0,0,0.01,0,0.01,0c0.02,0,0.03,0,0.05-0.01c0.02-0.01,0.04-0.01,0.05-0.02
							c0.01,0,0.02-0.01,0.02-0.01c0.01,0,0.01,0.01,0.02,0.01c0.01,0.01,0.02,0.02,0.04,0.03c0,0,0,0,0.01,0l0,0c0,0,0,0,0.01,0.01
							c0,0,0,0,0,0c0,0.01,0.01,0.01,0.02,0.02c0.03,0.04,0.05,0.07,0.07,0.11c0,0,0,0,0,0c0,0,0,0,0-0.01
							c0,0.01,0.01,0.02,0.01,0.03c0.01,0.02,0.02,0.04,0.02,0.07C20.14,20.79,20.14,20.81,20.13,20.83c0.01,0,0.01-0.01,0.01-0.01
							C20.14,20.82,20.14,20.83,20.13,20.83L20.13,20.83z"/>
						<path class="st7" d="M20.13,20.82C20.13,20.82,20.13,20.79,20.13,20.82L20.13,20.82z"/>
						<path class="st7" d="M20.11,20.98c0,0,0.01-0.01,0.01-0.02l0,0C20.11,20.98,20.1,20.99,20.11,20.98L20.11,20.98z"/>
						<path class="st7" d="M19.9,21.08C19.9,21.08,19.9,21.08,19.9,21.08c0.01,0,0.01,0,0.01,0C19.91,21.08,19.9,21.08,19.9,21.08
							L19.9,21.08L19.9,21.08z"/>
						<path class="st7" d="M20.1,20.68C20.11,20.71,20.11,20.69,20.1,20.68L20.1,20.68z"/>
						<path class="st7" d="M19.65,20.62C19.65,20.62,19.65,20.62,19.65,20.62C19.65,20.62,19.65,20.62,19.65,20.62
							c0,0-0.01,0.01-0.01,0.01C19.63,20.63,19.64,20.62,19.65,20.62L19.65,20.62z"/>
						<path class="st7" d="M20.04,21.04L20.04,21.04C20.04,21.04,20.04,21.04,20.04,21.04c-0.01,0-0.02,0.01-0.02,0.01
							C20.03,21.05,20.03,21.05,20.04,21.04L20.04,21.04z"/>
						<path class="st7" d="M19.66,20.62C19.68,20.59,19.67,20.6,19.66,20.62L19.66,20.62z"/>
						<path class="st7" d="M20.01,20.55L20.01,20.55C20.01,20.55,20.01,20.55,20.01,20.55c0,0-0.01,0-0.01,0
							C19.99,20.54,20,20.55,20.01,20.55L20.01,20.55z"/>
						<polygon class="st7" points="19.65,20.62 19.65,20.62 19.65,20.62 19.65,20.62 						"/>
					</g>
					<path class="st8" d="M20.99,19.62c-0.45-0.3-1.02-0.33-1.52-0.13c-0.13,0.05-0.25,0.11-0.35,0.21
						c-0.02,0.01-0.02,0.03-0.03,0.05c-0.08,0.07-0.16,0.14-0.22,0.22c-0.31,0.41-0.47,1-0.3,1.49c0.21,0.63,0.93,0.9,1.55,0.8
						c0.39-0.06,0.75-0.29,1.02-0.58c0.25-0.28,0.45-0.65,0.45-1.03C21.58,20.23,21.35,19.86,20.99,19.62z M20.3,21.99
						c-0.52,0.19-1.2,0-1.47-0.51c-0.2-0.4-0.12-0.91,0.09-1.28c0.07-0.12,0.16-0.24,0.26-0.34c0,0,0.01,0,0.01,0
						c0.22-0.05,0.42-0.13,0.65-0.15c0.03,0,0.07,0,0.1,0c0.02,0.01,0.05,0.02,0.07,0.03c0.02,0.01,0.06,0,0.07-0.03
						c0.13,0.01,0.27,0.04,0.39,0.08c0.34,0.13,0.65,0.41,0.75,0.77C21.37,21.21,20.87,21.79,20.3,21.99L20.3,21.99z"/>
					<path class="st8" d="M22.36,19.46c-0.31-0.44-0.8-0.71-1.32-0.84c-0.54-0.13-1.15-0.18-1.67,0.03
						c-0.12,0.05-0.22,0.11-0.32,0.19l0,0c-0.22,0.11-0.43,0.26-0.61,0.42c-0.45,0.39-0.82,0.94-0.98,1.52
						c-0.32,1.18,0.63,2.44,1.77,2.71c1.06,0.25,2.2-0.31,2.86-1.12c0.33-0.41,0.58-0.89,0.64-1.41
						C22.8,20.43,22.66,19.9,22.36,19.46L22.36,19.46z M22.05,21.92c-0.25,0.4-0.58,0.71-0.98,0.96c-0.17,0.1-0.4,0.21-0.61,0.26
						c-0.22,0.07-0.46,0.1-0.69,0.1c-0.53-0.01-1.05-0.18-1.44-0.55c-0.4-0.37-0.68-0.92-0.69-1.47c-0.01-0.53,0.27-1.05,0.59-1.45
						c0.23-0.29,0.5-0.56,0.83-0.74c0.03,0,0.07-0.01,0.1-0.03c0.39-0.26,0.92-0.25,1.36-0.16c0.26,0.05,0.51,0.14,0.75,0.25
						c0.2,0.09,0.4,0.21,0.57,0.36c0.32,0.3,0.54,0.78,0.56,1.22c0.02,0.45-0.11,0.89-0.34,1.26H22.05z"/>
					<path class="st8" d="M23.5,19.44c-0.19-0.47-0.49-0.92-0.87-1.25c-0.29-0.26-0.66-0.44-1.02-0.56
						c-0.78-0.25-1.66-0.23-2.45-0.02c-0.42,0.11-0.82,0.29-1.18,0.52c-0.18,0.11-0.34,0.25-0.5,0.4c-0.15,0.15-0.25,0.3-0.36,0.47
						c-0.02,0.02-0.03,0.05-0.04,0.07c-0.17,0.22-0.3,0.46-0.41,0.71c-0.1,0.24-0.17,0.49-0.19,0.75c-0.01,0.25-0.02,0.5-0.01,0.74
						c0.02,0.28,0.07,0.54,0.19,0.79c0,0.01,0.01,0.01,0.02,0.02c0.05,0.26,0.13,0.5,0.25,0.74c0.27,0.59,0.75,1.08,1.33,1.37
						c0.77,0.38,1.69,0.46,2.51,0.24c0.25-0.07,0.5-0.16,0.73-0.29c0.24-0.12,0.44-0.29,0.65-0.46c0.39-0.33,0.72-0.73,0.98-1.17
						c0.15-0.24,0.27-0.5,0.37-0.77c0.1-0.26,0.16-0.51,0.19-0.78C23.77,20.44,23.71,19.92,23.5,19.44L23.5,19.44z M23.27,21.82
						c-0.19,0.47-0.45,0.91-0.8,1.28c-0.33,0.35-0.73,0.59-1.15,0.79c-0.76,0.36-1.66,0.44-2.46,0.18
						c-0.58-0.19-1.08-0.58-1.42-1.09c-0.32-0.49-0.5-1.08-0.54-1.66c-0.04-0.61,0.07-1.23,0.36-1.77c0.31-0.57,0.79-1.05,1.37-1.35
						c0.15-0.08,0.32-0.15,0.48-0.2c0,0,0.01,0,0.01-0.01c0.01,0,0.02,0,0.02,0c0.02-0.01,0.05-0.01,0.07-0.02
						c0.19-0.05,0.38-0.09,0.57-0.12c0.19-0.03,0.36-0.04,0.57-0.04c0.19,0,0.38,0.01,0.57,0.04c0.76,0.11,1.46,0.47,1.97,1.05
						c0.34,0.39,0.6,0.88,0.65,1.4C23.59,20.83,23.46,21.34,23.27,21.82L23.27,21.82z"/>
					<path class="st8" d="M23.19,17.57c-0.75-0.53-1.72-0.72-2.62-0.74c-0.88-0.01-1.8,0.16-2.59,0.58
						c-0.77,0.41-1.44,1.05-1.69,1.91c-0.01,0.04-0.02,0.08-0.03,0.12c-0.15,0.32-0.27,0.65-0.35,1c-0.25,1.03-0.2,2.11,0.36,3.04
						c0.48,0.8,1.29,1.37,2.2,1.6c0.95,0.24,1.99,0.15,2.9-0.18c0.84-0.3,1.57-0.9,2.06-1.63c0.26-0.38,0.46-0.81,0.61-1.24
						c0.2-0.57,0.36-1.18,0.38-1.78c0.04-1.04-0.36-2.08-1.22-2.69L23.19,17.57z M23.93,21.3c-0.11,0.47-0.26,0.94-0.48,1.37
						c-0.36,0.71-0.9,1.34-1.6,1.69c-0.79,0.39-1.71,0.56-2.6,0.48c-0.86-0.07-1.71-0.41-2.3-1.05c-0.66-0.71-1.01-1.69-0.97-2.66
						c0.02-0.38,0.09-0.76,0.2-1.13c0.04,0.02,0.12-0.02,0.13-0.07c0.07-0.41,0.31-0.81,0.55-1.15c0.1-0.15,0.24-0.3,0.37-0.44
						c0.15-0.15,0.25-0.23,0.43-0.36c0.08-0.06,0.17-0.11,0.25-0.16c0.02-0.01,0.03-0.02,0.05-0.03c0,0,0.04-0.02,0.05-0.03
						c0.04-0.02,0.09-0.04,0.13-0.07c0.18-0.09,0.37-0.17,0.57-0.23c0.05-0.02,0.05-0.02,0.11-0.04c0.05-0.02,0.1-0.03,0.15-0.04
						c0.1-0.03,0.2-0.05,0.3-0.07c0.2-0.04,0.41-0.07,0.6-0.09c0.84-0.07,1.73,0.02,2.5,0.37c0.37,0.17,0.72,0.41,0.98,0.72
						c0.29,0.34,0.48,0.75,0.59,1.19C24.09,20.1,24.08,20.7,23.93,21.3L23.93,21.3z"/>
					<path class="st8" d="M24.7,17.41c-0.65-0.85-1.66-1.37-2.72-1.52c-1.28-0.19-2.59,0.04-3.8,0.48
						c-0.57,0.21-1.17,0.46-1.61,0.89c-0.2,0.19-0.35,0.43-0.48,0.67c-0.1,0.2-0.19,0.4-0.27,0.61c-0.34,0.65-0.55,1.37-0.65,2.09
						c-0.15,1.12-0.06,2.35,0.56,3.33c0.34,0.54,0.84,0.97,1.37,1.33c0.27,0.19,0.56,0.35,0.87,0.46c0.3,0.1,0.63,0.15,0.95,0.15
						c0.63,0,1.28-0.13,1.89-0.29c0.52-0.13,1.04-0.3,1.52-0.53c0.47-0.22,0.92-0.49,1.32-0.84s0.73-0.75,1-1.21
						c0.26-0.46,0.46-0.96,0.61-1.47c0.07-0.24,0.15-0.49,0.18-0.74c0.04-0.24,0.06-0.48,0.06-0.73
						C25.52,19.14,25.28,18.17,24.7,17.41L24.7,17.41z M25.01,20.9c-0.02,0.22-0.04,0.44-0.09,0.67c-0.05,0.23-0.12,0.46-0.19,0.68
						c-0.33,0.96-0.97,1.75-1.84,2.28c-0.89,0.55-1.93,0.74-2.94,0.9c-0.6,0.1-1.21,0.15-1.79-0.05c-0.3-0.1-0.56-0.27-0.82-0.44
						c-0.25-0.17-0.49-0.36-0.71-0.56c-0.42-0.4-0.77-0.86-0.97-1.41c-0.18-0.5-0.29-1.02-0.32-1.55c-0.03-0.63,0.04-1.27,0.21-1.89
						c0.04,0,0.1-0.02,0.11-0.06c0.05-0.13,0.15-0.25,0.21-0.38c0.06-0.12,0.12-0.25,0.18-0.37c0.12-0.24,0.23-0.48,0.38-0.7
						c0.14-0.2,0.3-0.39,0.49-0.56c0.01-0.01,0.02-0.02,0.04-0.04c0,0,0.01-0.01,0.02-0.01c0.01-0.01,0.05-0.04,0.05-0.04
						c0.06-0.04,0.12-0.09,0.18-0.13c0.1-0.07,0.2-0.11,0.34-0.18c1.05-0.5,2.23-0.81,3.41-0.8c1.06,0.01,2.11,0.3,2.91,1.02
						c0.3,0.28,0.58,0.65,0.77,1.04c0.04,0.09,0.08,0.17,0.12,0.27c0.04,0.1,0.07,0.21,0.1,0.31c0.06,0.21,0.11,0.43,0.14,0.65
						C25.06,19.99,25.07,20.44,25.01,20.9L25.01,20.9z"/>
					<path class="st8" d="M26.28,19.2c-0.08-1.08-0.44-2.13-1.22-2.9c-0.96-0.95-2.31-1.38-3.63-1.46c-0.72-0.04-1.45,0-2.16,0.15
						c-0.69,0.15-1.33,0.42-1.92,0.8c-0.28,0.18-0.55,0.38-0.82,0.59c-0.28,0.22-0.55,0.44-0.79,0.71c-0.36,0.42-0.62,0.92-0.8,1.44
						c-0.17,0.33-0.3,0.7-0.41,1.06c-0.18,0.62-0.28,1.26-0.32,1.9c-0.08,1.34,0.16,2.79,1.12,3.79c0.46,0.48,1,0.85,1.62,1.09
						c0.58,0.22,1.21,0.3,1.82,0.29c1.32-0.03,2.63-0.42,3.81-0.99c0.58-0.28,1.12-0.63,1.6-1.06c0.51-0.44,0.97-0.97,1.32-1.55
						c0.36-0.61,0.57-1.29,0.68-1.99C26.29,20.46,26.32,19.82,26.28,19.2z M25.91,20.18c-0.03,0.65-0.12,1.3-0.32,1.92
						c-0.41,1.21-1.27,2.23-2.34,2.92c-0.51,0.33-1.06,0.57-1.64,0.76c-0.6,0.2-1.22,0.34-1.84,0.44c-0.58,0.08-1.18,0.11-1.77,0.02
						c-0.59-0.1-1.15-0.31-1.64-0.64c-0.55-0.37-1.05-0.84-1.36-1.43c-0.31-0.6-0.43-1.29-0.49-1.96c-0.05-0.57-0.02-1.16,0.05-1.73
						c0.03-0.26,0.08-0.52,0.14-0.78c0.05,0,0.09-0.04,0.11-0.09c0.06-0.15,0.15-0.3,0.22-0.46c0.06-0.15,0.12-0.29,0.17-0.44
						c0.11-0.26,0.2-0.53,0.33-0.78c0.13-0.26,0.28-0.5,0.47-0.71c0.22-0.25,0.48-0.45,0.74-0.65c0.51-0.39,1.05-0.74,1.64-0.98
						c0.62-0.25,1.27-0.36,1.93-0.4c1.33-0.08,2.71,0.14,3.84,0.9c0.43,0.29,0.81,0.66,1.09,1.1c0.27,0.42,0.45,0.9,0.56,1.39
						C25.91,19.11,25.94,19.66,25.91,20.18L25.91,20.18z"/>
					<path class="st8" d="M27.08,19.29c-0.05-0.78-0.19-1.57-0.5-2.3c-0.27-0.63-0.67-1.18-1.19-1.61
						c-0.52-0.43-1.13-0.74-1.76-0.98c-0.76-0.3-1.56-0.48-2.37-0.51c-1.62-0.07-3.19,0.44-4.53,1.31c-0.64,0.41-1.21,0.9-1.66,1.51
						c-0.4,0.55-0.69,1.16-0.83,1.82c-0.02,0.08-0.04,0.17-0.05,0.26c-0.16,0.38-0.27,0.78-0.35,1.18c-0.15,0.71-0.2,1.43-0.16,2.15
						c0.03,0.68,0.14,1.36,0.32,2.01c0.17,0.6,0.46,1.18,0.88,1.65c0.82,0.92,2.02,1.31,3.22,1.36c0.42,0.02,0.85,0,1.28-0.01
						c0.45-0.01,0.91-0.04,1.36-0.1c0.42-0.05,0.84-0.13,1.24-0.26c0.35-0.12,0.69-0.3,1.01-0.49c0.33-0.2,0.64-0.43,0.96-0.65
						c0.28-0.19,0.57-0.39,0.84-0.6c0.52-0.4,1-0.84,1.39-1.37c0.2-0.27,0.36-0.58,0.49-0.89c0.14-0.35,0.22-0.72,0.29-1.09
						c0.14-0.78,0.19-1.59,0.14-2.38L27.08,19.29z M26.67,20.67c-0.02,0.37-0.06,0.74-0.12,1.11c-0.05,0.35-0.12,0.69-0.24,1.02
						c-0.46,1.22-1.57,1.96-2.59,2.67c-0.59,0.41-1.19,0.82-1.88,1.04c-0.39,0.12-0.8,0.19-1.2,0.23c-0.44,0.05-0.87,0.07-1.31,0.08
						c-0.7,0.02-1.4,0.04-2.09-0.11c-0.55-0.12-1.07-0.33-1.53-0.66c-0.46-0.33-0.82-0.78-1.08-1.28c-0.29-0.56-0.45-1.18-0.57-1.79
						c-0.12-0.67-0.18-1.37-0.15-2.06c0.02-0.47,0.07-0.93,0.17-1.38c0.03,0.04,0.14,0,0.15-0.07c0.03-0.18,0.09-0.35,0.14-0.52
						c0.05-0.17,0.1-0.33,0.17-0.49c0.11-0.3,0.24-0.59,0.39-0.87c0.31-0.59,0.67-1.09,1.17-1.53c0.55-0.49,1.23-0.9,1.91-1.2
						c0.68-0.3,1.4-0.51,2.14-0.58c1.45-0.15,2.96,0.21,4.21,0.93c0.54,0.31,1.02,0.7,1.38,1.21c0.41,0.57,0.64,1.25,0.77,1.93
						C26.68,19.13,26.71,19.9,26.67,20.67L26.67,20.67z"/>
					<path class="st8" d="M27.96,19c-0.08-0.78-0.29-1.53-0.62-2.24c-0.34-0.72-0.82-1.37-1.4-1.92c-1.14-1.07-2.64-1.66-4.21-1.72
						c-0.78-0.03-1.57,0.07-2.32,0.27c-0.77,0.21-1.49,0.53-2.19,0.92c-1.37,0.77-2.76,1.79-3.46,3.24
						c-0.17,0.34-0.26,0.71-0.32,1.09c0,0.02,0,0.03,0,0.04c-0.47,1.52-0.87,3.09-0.77,4.7c0.05,0.89,0.25,1.8,0.7,2.57
						c0.35,0.61,0.88,1.11,1.48,1.48c0.62,0.38,1.32,0.64,2.02,0.79c0.71,0.15,1.45,0.23,2.18,0.19c0.77-0.04,1.54-0.2,2.29-0.43
						c0.42-0.12,0.82-0.28,1.22-0.43c0.4-0.15,0.8-0.33,1.18-0.53c0.76-0.41,1.47-0.9,2.09-1.51c0.56-0.55,1.02-1.2,1.37-1.9
						c0.17-0.36,0.34-0.72,0.45-1.1c0.12-0.38,0.2-0.78,0.26-1.18C28.05,20.57,28.05,19.78,27.96,19L27.96,19z M27.69,20.37
						c-0.03,0.38-0.08,0.75-0.16,1.12c-0.08,0.37-0.2,0.74-0.33,1.1c-0.26,0.71-0.57,1.36-1.02,1.98c-0.11,0.15-0.18,0.25-0.31,0.39
						c-0.12,0.15-0.26,0.29-0.4,0.42c-0.28,0.27-0.55,0.49-0.88,0.73c-1.33,0.96-2.86,1.67-4.49,1.91c-1.37,0.2-2.83,0.07-4.12-0.44
						c-0.62-0.25-1.22-0.61-1.69-1.09c-0.54-0.56-0.87-1.25-1.06-2c-0.22-0.87-0.23-1.78-0.15-2.67c0.08-0.91,0.27-1.82,0.47-2.71
						c0.03-0.14,0.07-0.28,0.1-0.42c0.03-0.03,0.06-0.07,0.06-0.11c0.07-0.37,0.22-0.74,0.39-1.07c0.17-0.33,0.38-0.64,0.62-0.93
						c0.5-0.59,1.11-1.08,1.75-1.52c1.26-0.84,2.66-1.48,4.18-1.63c1.48-0.15,3,0.18,4.25,1c1.29,0.85,2.21,2.16,2.6,3.65
						C27.69,18.84,27.76,19.61,27.69,20.37L27.69,20.37z"/>
					<path class="st8" d="M28.74,19.99c-0.1-1.77-0.56-3.61-1.68-5.03c-0.93-1.18-2.29-1.93-3.74-2.27
						c-1.46-0.34-3.02-0.29-4.45,0.15c-0.93,0.29-1.81,0.74-2.64,1.24c-0.44,0.26-0.87,0.55-1.3,0.84c-0.35,0.24-0.7,0.49-0.98,0.8
						c-0.27,0.3-0.47,0.65-0.53,1.06c0,0.01,0,0.02,0,0.04c-0.1,0.18-0.18,0.35-0.27,0.54c-0.08,0.17-0.17,0.33-0.23,0.51
						c-0.15,0.41-0.33,0.81-0.47,1.23c-0.08,0.24-0.14,0.48-0.2,0.72c-0.1,0.34-0.2,0.69-0.27,1.03c-0.22,0.97-0.14,2,0.02,2.98
						c0.08,0.49,0.17,0.97,0.35,1.44c0.17,0.45,0.39,0.87,0.66,1.27c0.25,0.38,0.54,0.77,0.88,1.08c0.31,0.27,0.67,0.47,1.05,0.64
						c0.77,0.35,1.63,0.52,2.47,0.62c1.06,0.12,2.14,0.08,3.19-0.05c0.94-0.12,1.86-0.32,2.74-0.67c0.82-0.33,1.57-0.8,2.26-1.34
						c0.68-0.54,1.29-1.16,1.79-1.87c0.5-0.7,0.88-1.47,1.11-2.3C28.72,21.77,28.79,20.88,28.74,19.99L28.74,19.99z M28.39,21.48
						c-0.08,0.82-0.31,1.63-0.69,2.37c-0.76,1.49-2.02,2.69-3.44,3.54c-0.72,0.43-1.49,0.74-2.31,0.93
						c-0.99,0.23-2.01,0.35-3.02,0.36c-0.93,0.01-1.87-0.08-2.77-0.31c-0.76-0.19-1.55-0.49-2.1-1.08c-0.63-0.68-1.14-1.46-1.5-2.32
						c-0.18-0.44-0.28-0.9-0.36-1.37c-0.08-0.48-0.14-0.97-0.15-1.46c0-0.07,0-0.14,0-0.21c0.05-0.23,0.09-0.46,0.14-0.69
						s0.09-0.46,0.13-0.69c0.07-0.44,0.16-0.89,0.29-1.32c0.06-0.21,0.13-0.41,0.22-0.61c0.08-0.2,0.16-0.41,0.27-0.59
						c0.22-0.4,0.42-0.82,0.63-1.23c0.12-0.22,0.22-0.45,0.33-0.69c0.07-0.16,0.14-0.32,0.22-0.48c0.29-0.27,0.64-0.5,0.95-0.7
						c0.83-0.56,1.69-1.09,2.6-1.5c0.72-0.32,1.46-0.56,2.24-0.67c0.72-0.11,1.46-0.12,2.19-0.04c1.44,0.16,2.85,0.7,3.94,1.67
						c1.26,1.13,1.92,2.79,2.17,4.43C28.49,19.7,28.48,20.6,28.39,21.48L28.39,21.48z"/>
					<path class="st8" d="M29.1,18.1c-0.23-0.87-0.6-1.71-1.03-2.5c-0.4-0.74-0.9-1.43-1.49-2.03c-0.6-0.59-1.29-1.08-2.07-1.41
						c-0.88-0.37-1.85-0.52-2.8-0.51c-1.02,0.01-2.04,0.2-2.99,0.56c-0.99,0.37-1.96,0.81-2.89,1.32c-0.46,0.25-0.9,0.52-1.33,0.83
						c-0.4,0.29-0.76,0.63-1.08,1c-0.65,0.74-1.13,1.6-1.48,2.52c-0.09,0.24-0.17,0.48-0.22,0.73c-0.01,0.03-0.01,0.06-0.02,0.08
						c-0.09,0.26-0.17,0.52-0.22,0.78c-0.1,0.54-0.14,1.08-0.19,1.63c-0.05,0.55-0.08,1.1-0.07,1.65c0.01,0.53,0.06,1.06,0.17,1.58
						c0.1,0.49,0.27,0.96,0.47,1.42c0.32,0.77,0.72,1.54,1.29,2.15c0.28,0.3,0.61,0.56,0.99,0.74c0.47,0.23,1,0.35,1.51,0.46
						c0.27,0.06,0.55,0.11,0.82,0.16c0.27,0.06,0.54,0.13,0.81,0.21c0.53,0.15,1.05,0.26,1.59,0.28c0.57,0.02,1.14,0,1.72-0.06
						c0.55-0.06,1.1-0.17,1.65-0.24c0.55-0.07,1.1-0.16,1.63-0.35c0.43-0.15,0.85-0.36,1.24-0.6c0.81-0.5,1.53-1.17,2.11-1.92
						c0.6-0.76,1.1-1.62,1.44-2.52C29.37,22.15,29.61,20.08,29.1,18.1L29.1,18.1z M27.68,25.4c-0.45,0.78-1.02,1.51-1.67,2.14
						c-0.65,0.62-1.42,1.13-2.28,1.41c-0.52,0.17-1.07,0.24-1.6,0.32c-0.54,0.07-1.07,0.18-1.62,0.23c-0.56,0.06-1.13,0.07-1.7,0.05
						c-0.54-0.01-1.06-0.16-1.58-0.3c-0.52-0.15-1.05-0.23-1.58-0.35c-0.5-0.11-1.01-0.23-1.46-0.47c-0.73-0.39-1.26-1.06-1.65-1.78
						c-0.2-0.36-0.37-0.73-0.52-1.11c-0.19-0.45-0.35-0.92-0.44-1.4c-0.21-1.05-0.17-2.13-0.08-3.19c0.05-0.54,0.09-1.09,0.2-1.62
						c0.08-0.42,0.2-0.82,0.35-1.22c0.03-0.08,0.07-0.17,0.11-0.25c0.2-0.43,0.43-0.84,0.69-1.24c0.52-0.79,1.12-1.53,1.89-2.08
						c0.84-0.6,1.74-1.09,2.69-1.51c0.9-0.41,1.82-0.78,2.8-0.96c0.96-0.17,1.97-0.19,2.93,0c0.84,0.17,1.63,0.5,2.32,1
						c1.35,0.96,2.28,2.41,2.9,3.92c0.37,0.89,0.62,1.81,0.7,2.77c0.07,0.98-0.02,1.98-0.26,2.93c-0.24,0.95-0.64,1.87-1.14,2.71
						L27.68,25.4z"/>
					<path class="st8" d="M29.69,19.38c-0.08-0.61-0.22-1.2-0.4-1.78c-0.19-0.61-0.42-1.22-0.66-1.82
						c-0.21-0.55-0.45-1.07-0.79-1.56c-0.35-0.49-0.79-0.9-1.23-1.3c-0.23-0.21-0.47-0.42-0.68-0.65c-0.18-0.19-0.38-0.35-0.6-0.5
						c-0.45-0.3-0.95-0.51-1.47-0.65c-1.2-0.33-2.47-0.34-3.7-0.14c-1.23,0.2-2.42,0.62-3.57,1.11c-1,0.43-1.99,0.9-2.84,1.59
						c-0.42,0.34-0.8,0.74-1.12,1.18c-0.32,0.45-0.62,0.93-0.85,1.43c-0.09,0.19-0.15,0.37-0.2,0.57c-0.8,1.46-1.14,3.12-1.14,4.78
						c0,0.89,0.1,1.79,0.27,2.66c0.17,0.81,0.4,1.6,0.77,2.34c0.35,0.69,0.82,1.32,1.39,1.82c0.3,0.26,0.62,0.48,0.97,0.67
						c0.39,0.21,0.81,0.35,1.23,0.48c0.96,0.3,1.95,0.47,2.94,0.62c0.51,0.08,1.02,0.17,1.53,0.25c0.51,0.08,1.02,0.14,1.54,0.11
						c0.52-0.04,1.03-0.15,1.53-0.28c0.46-0.12,0.91-0.26,1.35-0.42c0.85-0.31,1.65-0.73,2.37-1.28c0.18-0.14,0.36-0.29,0.52-0.44
						c0.02-0.01,0.03-0.04,0.03-0.06c0.22-0.22,0.42-0.46,0.65-0.68c0.2-0.21,0.41-0.41,0.59-0.64c0.18-0.23,0.34-0.47,0.49-0.72
						c0.57-0.99,0.9-2.11,1.07-3.23C29.86,21.69,29.85,20.52,29.69,19.38L29.69,19.38z M29.6,21.98c-0.08,1.11-0.31,2.22-0.76,3.24
						c-0.23,0.52-0.52,1.03-0.88,1.47c-0.18,0.22-0.38,0.42-0.59,0.62c-0.2,0.2-0.38,0.4-0.58,0.6c-0.19,0.19-0.4,0.37-0.62,0.53
						c-0.03,0.02-0.06,0.06-0.07,0.1c-0.5,0.37-1.03,0.67-1.6,0.93c-0.41,0.18-0.83,0.33-1.26,0.47c-0.47,0.15-0.96,0.28-1.45,0.37
						c-0.5,0.09-1.01,0.13-1.52,0.09c-0.52-0.04-1.03-0.13-1.54-0.21c-0.97-0.14-1.94-0.26-2.9-0.51c-0.85-0.21-1.69-0.48-2.41-0.99
						c-0.62-0.44-1.14-1.01-1.53-1.66c-0.42-0.68-0.69-1.42-0.89-2.19c-0.22-0.85-0.35-1.73-0.4-2.61
						c-0.09-1.74,0.18-3.54,0.93-5.13c0.01-0.03,0.03-0.06,0.04-0.09c0.01,0.01,0.03,0,0.03-0.01c0.03-0.08,0.06-0.16,0.09-0.24
						c0.05-0.08,0.09-0.17,0.14-0.25c0.01-0.01,0-0.02-0.02-0.02c0.16-0.34,0.36-0.67,0.57-0.98c0.29-0.45,0.59-0.89,0.97-1.27
						c0.75-0.76,1.69-1.29,2.65-1.73c1.08-0.5,2.19-0.93,3.35-1.21c1.19-0.29,2.43-0.4,3.64-0.2c0.55,0.09,1.11,0.23,1.62,0.47
						c0.25,0.11,0.48,0.25,0.71,0.4c0.22,0.15,0.4,0.33,0.59,0.52c0.42,0.43,0.9,0.8,1.32,1.23c0.4,0.41,0.72,0.9,0.97,1.41
						c0.13,0.26,0.22,0.53,0.33,0.8c0.11,0.3,0.22,0.59,0.33,0.89c0.22,0.59,0.42,1.19,0.55,1.81c0.24,1.1,0.3,2.23,0.22,3.35
						L29.6,21.98z"/>
					<path class="st8" d="M30.07,17.85c-0.15-0.56-0.34-1.11-0.58-1.63c-0.25-0.54-0.53-1.06-0.8-1.59
						c-0.28-0.54-0.57-1.08-0.94-1.57c-0.35-0.46-0.77-0.85-1.24-1.19c-0.47-0.34-0.97-0.63-1.48-0.9c-0.54-0.3-1.09-0.57-1.69-0.72
						c-1.17-0.3-2.41-0.24-3.6-0.09c-1.09,0.13-2.18,0.31-3.21,0.7c-1,0.37-1.95,0.9-2.78,1.56c-0.87,0.7-1.57,1.55-2.12,2.52
						c-0.14,0.24-0.26,0.49-0.38,0.74c-0.12,0.26-0.22,0.53-0.32,0.8c-0.02,0.04,0.01,0.08,0.05,0.09
						c-0.62,1.53-0.99,3.15-1.05,4.81c-0.07,2.1,0.41,4.23,1.54,6.01c0.53,0.84,1.24,1.56,2.09,2.08c0.83,0.52,1.76,0.87,2.72,1.08
						c1.24,0.27,2.51,0.36,3.76,0.55c0.63,0.09,1.27,0.13,1.9,0.08c0.52-0.04,1.03-0.14,1.53-0.28c1.92-0.54,3.74-1.65,4.94-3.25
						c0.65-0.87,1.07-1.91,1.4-2.94c0.35-1.11,0.57-2.28,0.62-3.45c0.04-1.15-0.06-2.3-0.35-3.41L30.07,17.85z M28.93,26.39
						c-0.21,0.44-0.45,0.86-0.75,1.25c-0.29,0.38-0.62,0.73-0.98,1.05c-0.74,0.67-1.6,1.21-2.51,1.61
						c-0.93,0.42-1.95,0.69-2.97,0.73c-0.63,0.03-1.24-0.04-1.87-0.13c-0.63-0.09-1.27-0.16-1.89-0.25
						c-1.07-0.15-2.12-0.32-3.13-0.73c-0.89-0.36-1.72-0.89-2.39-1.59c-0.71-0.73-1.23-1.63-1.62-2.57
						c-0.39-0.95-0.62-1.96-0.72-2.99c-0.19-2.06,0.17-4.17,0.89-6.11c0.02-0.05,0.04-0.09,0.05-0.14c0.02-0.02,0.05-0.04,0.05-0.07
						c0.11-0.27,0.25-0.54,0.37-0.8s0.26-0.52,0.41-0.78c0.28-0.48,0.59-0.94,0.96-1.36c0.68-0.78,1.52-1.41,2.43-1.9
						c0.9-0.48,1.87-0.84,2.88-1.03c0.57-0.11,1.14-0.19,1.71-0.25c0.59-0.07,1.18-0.11,1.78-0.1c0.58,0.01,1.17,0.08,1.73,0.24
						c0.59,0.17,1.14,0.45,1.67,0.75c0.49,0.27,0.98,0.56,1.43,0.89c0.45,0.34,0.85,0.74,1.18,1.21c0.35,0.49,0.63,1.02,0.9,1.55
						c0.27,0.52,0.55,1.04,0.79,1.58c0.44,1.02,0.71,2.11,0.81,3.21C30.36,21.98,29.92,24.3,28.93,26.39L28.93,26.39z"/>
					<path class="st8" d="M31.08,19.73c-0.05-0.6-0.14-1.19-0.28-1.78c-0.14-0.58-0.35-1.13-0.58-1.67
						c-0.24-0.56-0.52-1.1-0.79-1.64c-0.25-0.5-0.48-1.02-0.8-1.48c-0.31-0.43-0.69-0.81-1.12-1.12c-0.23-0.17-0.47-0.32-0.71-0.48
						c-0.25-0.17-0.51-0.35-0.76-0.53c-0.48-0.34-0.96-0.7-1.5-0.96c-0.51-0.24-1.06-0.36-1.61-0.44c-0.55-0.07-1.09-0.11-1.64-0.14
						c-0.57-0.04-1.13-0.03-1.69,0.03c-1.14,0.1-2.25,0.36-3.32,0.76s-2.06,0.96-2.97,1.63c-0.47,0.34-0.92,0.72-1.31,1.15
						c-0.2,0.22-0.36,0.46-0.52,0.71c-0.09,0.14-0.18,0.26-0.28,0.39c-0.19,0.19-0.36,0.39-0.52,0.6c-0.06,0.07-0.12,0.15-0.17,0.23
						c-0.07,0.11-0.15,0.22-0.22,0.33c-0.29,0.47-0.49,1-0.64,1.53c-0.16,0.54-0.27,1.09-0.38,1.64c-0.11,0.59-0.24,1.19-0.3,1.79
						c-0.15,1.33,0.18,2.68,0.55,3.95c0.18,0.63,0.38,1.26,0.61,1.87c0.2,0.54,0.47,1.06,0.79,1.54c0.65,0.99,1.5,1.82,2.51,2.44
						c1.05,0.63,2.21,1.02,3.41,1.26c0.6,0.11,1.21,0.19,1.82,0.25s1.22,0.1,1.84,0.1c1.22,0,2.44-0.16,3.6-0.5
						c1.17-0.34,2.31-0.88,3.26-1.65c0.5-0.41,0.94-0.89,1.34-1.38c0.35-0.44,0.7-0.89,1.01-1.36c0.05-0.01,0.09-0.04,0.11-0.07
						c0.28-0.53,0.49-1.11,0.66-1.68c0.17-0.57,0.32-1.16,0.43-1.75c0.22-1.17,0.29-2.37,0.19-3.55L31.08,19.73z M29.86,25.89
						c-0.06,0.16-0.12,0.31-0.18,0.47c-0.05,0.09-0.1,0.19-0.16,0.28c-0.16,0.26-0.34,0.51-0.52,0.75
						c-0.37,0.49-0.76,0.98-1.19,1.42c-0.85,0.86-1.89,1.48-3.02,1.91c-1.1,0.41-2.28,0.64-3.45,0.7c-1.19,0.07-2.4-0.02-3.58-0.19
						c-1.17-0.16-2.34-0.45-3.41-0.97c-1.05-0.51-1.98-1.22-2.71-2.13c-0.35-0.44-0.66-0.92-0.92-1.41
						c-0.27-0.53-0.48-1.1-0.68-1.66c-0.43-1.25-0.79-2.52-0.78-3.86c0-0.33,0.02-0.65,0.05-0.98c0.03-0.31,0.1-0.61,0.15-0.91
						c0.1-0.54,0.18-1.08,0.3-1.62c0.22-1.04,0.57-2.09,1.17-2.98c0.03-0.04,0.06-0.08,0.09-0.12c0.04-0.04,0.07-0.07,0.11-0.11
						c0.2-0.2,0.37-0.41,0.54-0.64c0.17-0.23,0.34-0.46,0.53-0.67c0.19-0.2,0.39-0.4,0.6-0.58c0.43-0.37,0.9-0.69,1.37-1
						c0.45-0.29,0.93-0.55,1.42-0.77c1.01-0.46,2.09-0.78,3.18-0.94c0.55-0.08,1.11-0.13,1.67-0.13c0.54,0,1.07,0.04,1.61,0.08
						c0.55,0.04,1.1,0.11,1.64,0.26c0.26,0.07,0.51,0.16,0.75,0.29c0.26,0.13,0.5,0.29,0.74,0.45c0.5,0.33,0.98,0.7,1.49,1.04
						c0.44,0.3,0.87,0.58,1.24,0.96c0.37,0.38,0.65,0.82,0.89,1.3c0.26,0.52,0.53,1.04,0.79,1.56c0.26,0.54,0.5,1.08,0.7,1.64
						c0.19,0.55,0.32,1.11,0.4,1.69C31.05,21.33,30.7,23.7,29.86,25.89L29.86,25.89z"/>
				</g>
				<path class="st9" d="M31.91,19.83c-0.05-0.67-0.15-1.35-0.32-2c-0.17-0.65-0.4-1.28-0.65-1.9c-0.26-0.63-0.55-1.25-0.9-1.83
					c-0.35-0.58-0.75-1.08-1.24-1.56c-0.24-0.24-0.5-0.46-0.75-0.69s-0.49-0.47-0.73-0.7c-0.47-0.44-1-0.79-1.56-1.08
					c-1.14-0.57-2.39-0.85-3.64-1.03c-0.72-0.11-1.43-0.15-2.15-0.09c-0.74,0.06-1.48,0.2-2.2,0.38c-0.73,0.19-1.45,0.41-2.17,0.65
					c-0.35,0.11-0.7,0.22-1.03,0.35c-0.32,0.13-0.65,0.28-0.95,0.45c-0.95,0.52-1.9,1.14-2.56,2.03c-0.09,0.12-0.18,0.26-0.21,0.41
					c-0.42,0.51-0.82,1.04-1.16,1.61c-0.59,0.97-1.02,2.03-1.26,3.13c-0.13,0.6-0.18,1.21-0.24,1.82c-0.06,0.65-0.12,1.3-0.12,1.96
					c-0.01,1.3,0.17,2.59,0.67,3.8c0.12,0.3,0.26,0.59,0.4,0.89c0.12,0.27,0.26,0.55,0.45,0.78c0.19,0.25,0.44,0.45,0.66,0.66
					c0.23,0.22,0.43,0.45,0.61,0.72c0.31,0.46,0.63,0.93,1.02,1.32c0.2,0.19,0.4,0.37,0.63,0.53c0.24,0.17,0.5,0.31,0.76,0.45
					c1.07,0.61,2.17,1.22,3.38,1.52c0.57,0.14,1.17,0.19,1.76,0.11c0.35-0.05,0.7-0.11,1.05-0.14c0.35-0.03,0.71-0.04,1.07-0.06
					c0.71-0.03,1.43-0.05,2.13-0.15c0.61-0.09,1.2-0.24,1.79-0.43c1.15-0.38,2.25-0.94,3.21-1.69c0.08-0.06,0.15-0.12,0.23-0.19
					c0.95-0.58,1.8-1.32,2.39-2.28c0.33-0.55,0.57-1.15,0.79-1.75c0.23-0.64,0.42-1.29,0.57-1.96
					C31.89,22.58,32.02,21.2,31.91,19.83L31.91,19.83z M31.58,22.93c-0.2,1.31-0.57,2.59-1.1,3.8c-0.23,0.54-0.53,1.04-0.9,1.5
					c-0.37,0.44-0.79,0.81-1.26,1.14c-0.01,0.01-0.03,0.02-0.04,0.03c-0.03-0.01-0.07,0-0.1,0.03c-0.05,0.05-0.11,0.1-0.16,0.15
					c-0.14,0.09-0.28,0.18-0.43,0.26c-0.04,0.03-0.08,0.09-0.05,0.14c-0.73,0.56-1.53,1.03-2.39,1.38
					c-1.18,0.48-2.42,0.75-3.69,0.82c-0.7,0.04-1.39,0.04-2.09,0.11c-0.33,0.03-0.66,0.09-0.99,0.14c-0.3,0.04-0.59,0.04-0.89,0.02
					c-1.22-0.1-2.37-0.65-3.43-1.23c-0.26-0.14-0.52-0.29-0.78-0.44c-0.25-0.15-0.5-0.28-0.74-0.45c-0.45-0.32-0.82-0.73-1.14-1.16
					c-0.17-0.22-0.32-0.46-0.48-0.69c-0.17-0.25-0.37-0.47-0.59-0.67c-0.23-0.21-0.47-0.41-0.66-0.67
					c-0.19-0.25-0.32-0.52-0.45-0.81c-0.27-0.59-0.53-1.18-0.7-1.81c-0.17-0.61-0.26-1.24-0.31-1.87c-0.09-1.27,0-2.56,0.15-3.82
					c0.14-1.13,0.48-2.23,1-3.24c0.51-1,1.17-1.91,1.92-2.75c0.19-0.21,0.38-0.42,0.58-0.62c0.04-0.04-0.02-0.07-0.05-0.04
					c-0.3,0.31-0.6,0.63-0.88,0.96c0.06-0.12,0.16-0.24,0.25-0.34c0.16-0.19,0.33-0.35,0.51-0.52c0.38-0.35,0.8-0.63,1.24-0.91
					c0.59-0.37,1.21-0.69,1.86-0.93c0.68-0.25,1.38-0.46,2.08-0.67c1.4-0.41,2.85-0.74,4.32-0.63c0.65,0.04,1.29,0.15,1.92,0.29
					c0.61,0.13,1.21,0.29,1.79,0.51c0.57,0.22,1.12,0.51,1.63,0.87c0.52,0.37,0.96,0.85,1.44,1.28c0.49,0.44,0.99,0.89,1.39,1.42
					c0.4,0.52,0.72,1.1,1,1.68c0.57,1.19,1.03,2.46,1.24,3.77C31.82,20.27,31.78,21.62,31.58,22.93L31.58,22.93z"/>
				<path class="st9" d="M32.26,16.96c-0.3-1.38-0.91-2.67-1.75-3.81c-0.82-1.11-1.81-2.09-2.84-3c-0.93-0.82-2.05-1.39-3.24-1.73
					c-1.2-0.34-2.46-0.44-3.7-0.37c-1.25,0.07-2.49,0.3-3.68,0.67c-1.2,0.37-2.39,0.81-3.51,1.38c-1.1,0.56-2.14,1.26-2.96,2.18
					c-0.16,0.18-0.32,0.37-0.46,0.56c-0.29,0.35-0.53,0.74-0.75,1.13c-0.32,0.57-0.63,1.16-0.91,1.76
					c-0.62,1.35-0.96,2.81-1.07,4.29c-0.12,1.45-0.03,2.95,0.37,4.36c0.37,1.3,0.88,2.58,1.53,3.76c0.33,0.59,0.71,1.17,1.16,1.69
					c0.45,0.52,0.98,0.91,1.57,1.25c0.62,0.36,1.28,0.67,1.91,1.01c0.67,0.37,1.35,0.74,2.08,1c1.4,0.49,2.92,0.52,4.37,0.29
					c0.75-0.11,1.49-0.31,2.23-0.5c0.76-0.2,1.52-0.41,2.27-0.65c0.74-0.24,1.47-0.5,2.18-0.81c0.53-0.23,1.04-0.51,1.51-0.86
					c0.92-0.68,1.66-1.57,2.25-2.55c0.6-1,1.05-2.09,1.34-3.22c0.3-1.14,0.42-2.28,0.44-3.45C32.61,19.87,32.57,18.4,32.26,16.96
					L32.26,16.96z M32.35,21.44c-0.01,0.57-0.03,1.14-0.1,1.7c-0.15,1.12-0.44,2.23-0.87,3.28c-0.43,1.05-1,2.05-1.75,2.91
					c-0.36,0.41-0.76,0.79-1.19,1.12c-0.47,0.35-0.97,0.62-1.5,0.85c-1.42,0.62-2.9,1.06-4.39,1.45c-1.44,0.38-2.9,0.69-4.4,0.6
					c-0.74-0.04-1.47-0.19-2.17-0.44c-0.72-0.27-1.39-0.64-2.07-1.01c-0.61-0.33-1.24-0.63-1.84-0.97c-0.6-0.34-1.12-0.75-1.57-1.28
					C9.62,28.61,9,27.38,8.51,26.13c-0.24-0.6-0.46-1.22-0.64-1.85c-0.19-0.69-0.31-1.4-0.36-2.11c-0.11-1.44,0-2.92,0.34-4.32
					c0.33-1.37,0.93-2.64,1.62-3.86c0.02-0.04,0.04-0.07,0.06-0.11c0.04,0.04,0.15,0.03,0.18-0.04c0.59-1.08,1.45-1.98,2.45-2.68
					c1-0.7,2.12-1.22,3.26-1.65c1.14-0.44,2.31-0.81,3.53-1.02c1.21-0.22,2.45-0.28,3.67-0.15c1.2,0.13,2.4,0.46,3.46,1.04
					c0.53,0.29,1.03,0.64,1.48,1.05c0.5,0.45,1,0.92,1.47,1.41c0.93,0.98,1.77,2.06,2.34,3.29c0.61,1.3,0.86,2.74,0.94,4.17
					C32.36,20,32.36,20.72,32.35,21.44L32.35,21.44z"/>
				<path class="st9" d="M33.1,17.19c-0.25-1.3-0.7-2.58-1.3-3.76c-0.6-1.17-1.38-2.25-2.32-3.17c-1.02-1-2.26-1.77-3.59-2.28
					c-1.4-0.54-2.9-0.77-4.39-0.76c-0.76,0-1.52,0.07-2.27,0.17c-0.77,0.11-1.55,0.24-2.3,0.44c-1.54,0.4-3,1.11-4.34,1.96
					c-1.07,0.68-2.12,1.46-2.97,2.41c-0.07,0.07-0.14,0.15-0.21,0.24c-0.1,0.11-0.19,0.23-0.28,0.36c-0.45,0.62-0.83,1.27-1.14,1.98
					c-0.02,0.04,0.01,0.08,0.05,0.1c-0.28,0.59-0.47,1.22-0.64,1.85c-0.22,0.81-0.39,1.63-0.49,2.47c-0.2,1.59-0.17,3.23,0.12,4.8
					c0.24,1.26,0.67,2.48,1.26,3.61c0.6,1.14,1.36,2.19,2.28,3.1c0.9,0.89,1.95,1.62,3.11,2.14c0.64,0.29,1.31,0.48,1.99,0.67
					c0.8,0.23,1.61,0.44,2.44,0.56c0.83,0.12,1.66,0.13,2.49,0c0.83-0.13,1.64-0.33,2.45-0.56c0.79-0.22,1.57-0.48,2.34-0.75
					c0.67-0.23,1.34-0.48,1.98-0.79c0.63-0.3,1.24-0.64,1.79-1.06c0.56-0.43,1.05-0.93,1.47-1.49c0.87-1.17,1.5-2.51,1.92-3.91
					c0.42-1.4,0.65-2.85,0.74-4.31C33.37,19.86,33.35,18.52,33.1,17.19L33.1,17.19z M32.82,23.4c-0.24,1.42-0.64,2.82-1.27,4.12
					c-0.61,1.26-1.39,2.45-2.53,3.3c-1.1,0.83-2.4,1.34-3.69,1.8c-1.55,0.54-3.12,1.04-4.75,1.3c-0.83,0.13-1.67,0.11-2.5-0.01
					c-0.8-0.12-1.59-0.33-2.37-0.56c-0.66-0.19-1.32-0.38-1.94-0.66c-0.58-0.26-1.13-0.57-1.65-0.93c-1.02-0.71-1.92-1.6-2.65-2.61
					C7.88,27,7.05,24.4,6.95,21.74c-0.06-1.65,0.15-3.3,0.57-4.9c0.2-0.74,0.41-1.49,0.77-2.18c0.13-0.25,0.29-0.49,0.42-0.74
					c0.13-0.25,0.25-0.5,0.39-0.75c0.53-0.76,1.18-1.44,1.9-2.02c1.2-0.96,2.51-1.79,3.92-2.41c1.42-0.63,2.93-0.96,4.47-1.16
					c1.46-0.19,2.96-0.22,4.41,0.04c1.48,0.26,2.9,0.83,4.15,1.68c1.05,0.72,1.95,1.64,2.69,2.68c1.49,2.1,2.38,4.67,2.48,7.24
					C33.16,20.62,33.05,22.03,32.82,23.4z"/>
				<path class="st9" d="M34,18.39c-0.16-1.25-0.44-2.48-0.87-3.67c-0.42-1.15-0.96-2.27-1.67-3.28c-0.68-0.99-1.52-1.88-2.48-2.59
					c-1.13-0.84-2.44-1.43-3.8-1.8c-1.54-0.42-3.16-0.57-4.75-0.49s-3.16,0.4-4.66,0.96c-1.63,0.61-3.16,1.47-4.63,2.41
					c-0.66,0.43-1.32,0.85-1.91,1.38c-0.54,0.48-1,1.05-1.36,1.67c-0.42,0.72-0.61,1.53-0.94,2.29c-0.02,0.04,0,0.08,0.04,0.1
					c-0.2,0.44-0.38,0.89-0.55,1.34c-0.59,1.63-0.87,3.35-0.78,5.09c0.08,1.71,0.5,3.35,1.2,4.91c0.64,1.42,1.43,2.8,2.46,3.97
					c1.06,1.21,2.44,2.08,3.9,2.73c0.76,0.34,1.55,0.62,2.36,0.85c0.85,0.25,1.69,0.44,2.57,0.51c0.9,0.06,1.81,0.02,2.71-0.08
					c0.89-0.1,1.77-0.23,2.64-0.41c1.71-0.35,3.38-0.88,4.93-1.7c0.67-0.36,1.3-0.78,1.86-1.3c0.53-0.5,1-1.07,1.4-1.68
					c0.8-1.2,1.38-2.56,1.79-3.94c0.34-1.15,0.55-2.34,0.64-3.53c0.1-1.25,0.06-2.5-0.1-3.74L34,18.39z M8.16,12.95
					c0.02-0.03,0.03-0.05,0.05-0.08c-0.15,0.29-0.3,0.58-0.45,0.87C7.88,13.47,8.01,13.2,8.16,12.95L8.16,12.95z M33.64,23.98
					c-0.22,1.25-0.61,2.47-1.12,3.63c-0.59,1.33-1.37,2.6-2.45,3.6c-1.18,1.1-2.73,1.77-4.25,2.27c-1.64,0.54-3.37,0.85-5.08,1.03
					c-0.9,0.09-1.8,0.13-2.7,0.05c-0.87-0.07-1.71-0.29-2.54-0.54c-1.57-0.48-3.09-1.12-4.43-2.08c-1.27-0.9-2.24-2.11-3.03-3.45
					c-0.81-1.36-1.47-2.83-1.84-4.37c-0.4-1.66-0.48-3.41-0.21-5.09c0.21-1.3,0.65-2.54,1.18-3.74c0,0,0.01-0.01,0.01-0.02
					c0.02-0.04,0.03-0.07,0.05-0.11c0.13-0.29,0.26-0.58,0.4-0.86c0.3-0.63,0.62-1.27,0.92-1.9c0.28-0.38,0.61-0.74,0.97-1.04
					c0.6-0.52,1.28-0.95,1.94-1.37c0.72-0.46,1.45-0.9,2.21-1.3c1.46-0.76,2.99-1.35,4.61-1.66c1.54-0.29,3.13-0.34,4.68-0.17
					c1.54,0.18,3.07,0.59,4.45,1.3c1.07,0.55,2.02,1.29,2.84,2.16c0.81,0.88,1.47,1.88,2,2.94c0.54,1.1,0.94,2.26,1.22,3.45
					c0.27,1.2,0.42,2.44,0.45,3.67C33.94,21.6,33.85,22.81,33.64,23.98L33.64,23.98z"/>
				<path class="st9" d="M34.85,17.84c-0.22-1.72-0.79-3.39-1.54-4.96c-0.66-1.39-1.56-2.61-2.69-3.66
					c-1.15-1.08-2.46-2.04-3.93-2.63c-1.47-0.6-3.07-0.85-4.65-0.9c-0.82-0.03-1.65-0.02-2.46,0.06c-0.88,0.09-1.75,0.27-2.6,0.52
					c-1.68,0.49-3.28,1.22-4.85,2.01C10.69,9,9.42,10.05,8.36,11.25c-0.52,0.59-1,1.22-1.42,1.89c-0.21,0.34-0.42,0.68-0.62,1.04
					c-0.01,0-0.02,0-0.03,0.01c-0.04,0.03-0.07,0.07-0.09,0.11c-0.06,0.11-0.12,0.22-0.17,0.33c-0.05,0.12-0.1,0.24-0.15,0.36
					c-0.06,0.11-0.11,0.23-0.17,0.34c-0.17,0.37-0.29,0.74-0.37,1.13c-0.04,0.19-0.07,0.37-0.11,0.56c-0.01,0-0.02,0.01-0.03,0.02
					c-0.07,0.14-0.09,0.3-0.12,0.44c-0.03,0.17-0.05,0.35-0.05,0.52C5.01,18.19,5,18.36,5,18.54c0,0.15-0.02,0.33,0.02,0.48
					c-0.18,1.46-0.21,2.94,0,4.41c0.22,1.49,0.72,2.94,1.39,4.29c0.66,1.33,1.5,2.59,2.51,3.69c0.98,1.06,2.13,1.98,3.43,2.62
					c1.52,0.74,3.16,1.19,4.83,1.38c1.69,0.19,3.4,0.13,5.08-0.14c1.6-0.25,3.2-0.66,4.68-1.31c1.43-0.63,2.84-1.49,3.91-2.65
					c0.54-0.59,0.99-1.25,1.4-1.93c0.41-0.67,0.82-1.34,1.16-2.05c0.7-1.46,1.12-3.04,1.34-4.63c0.22-1.6,0.29-3.26,0.08-4.86
					L34.85,17.84z M5.17,17.77c0,0,0.02-0.02,0.02-0.04c0.03-0.12,0.06-0.24,0.1-0.37c-0.05,0.29-0.1,0.57-0.14,0.86
					c0-0.07,0-0.14,0-0.2C5.15,17.95,5.16,17.86,5.17,17.77L5.17,17.77z M34.79,20.43c-0.04,1.6-0.26,3.21-0.71,4.75
					c-0.22,0.76-0.5,1.5-0.85,2.22c-0.34,0.7-0.75,1.37-1.16,2.03c-0.42,0.68-0.87,1.33-1.42,1.92c-0.55,0.58-1.19,1.06-1.86,1.49
					c-1.32,0.85-2.79,1.43-4.3,1.83c-1.62,0.43-3.3,0.68-4.98,0.7c-3.17,0.05-6.49-0.73-9.01-2.74c-2.26-1.81-3.91-4.41-4.81-7.15
					C5.19,23.9,5,22.26,5.06,20.61c0.03-0.86,0.14-1.7,0.27-2.55c0.13-0.83,0.25-1.69,0.62-2.45c0.17-0.36,0.38-0.7,0.55-1.07
					c0.15-0.33,0.4-0.63,0.51-0.99c0.01-0.02-0.02-0.02-0.03,0c-0.08,0.2-0.2,0.37-0.33,0.55c-0.13,0.19-0.23,0.37-0.33,0.57
					c-0.12,0.25-0.26,0.48-0.4,0.73c0.02-0.04,0.03-0.07,0.05-0.11c0.36-0.72,0.77-1.43,1.21-2.11c0.85-1.35,1.95-2.56,3.21-3.55
					c0.62-0.48,1.28-0.89,1.98-1.23c0.78-0.39,1.56-0.76,2.36-1.09c1.58-0.66,3.24-1.19,4.95-1.33c0.82-0.07,1.65-0.07,2.47-0.04
					c0.78,0.04,1.56,0.11,2.33,0.27c0.75,0.15,1.49,0.37,2.21,0.66c0.75,0.32,1.45,0.73,2.12,1.2c1.21,0.86,2.34,1.85,3.23,3.06
					c0.95,1.3,1.62,2.83,2.1,4.36c0.26,0.83,0.45,1.67,0.55,2.53C34.79,18.82,34.81,19.63,34.79,20.43L34.79,20.43z"/>
				<path class="st9" d="M35.88,18.49c-0.14-1.71-0.65-3.42-1.31-5c-0.62-1.49-1.51-2.84-2.56-4.07c-0.51-0.59-1.04-1.18-1.65-1.66
					c-0.62-0.48-1.3-0.88-2.02-1.22c-0.71-0.34-1.44-0.62-2.19-0.87c-0.77-0.26-1.54-0.53-2.34-0.7c-1.74-0.37-3.56-0.33-5.3,0.01
					C17.65,5.14,16.82,5.39,16,5.65c-0.78,0.25-1.55,0.52-2.31,0.84c-1.5,0.63-2.94,1.43-4.14,2.52c-0.65,0.59-1.23,1.25-1.78,1.92
					c-0.57,0.69-1.1,1.41-1.59,2.16c-0.47,0.73-0.94,1.51-1.24,2.33c-0.29,0.8-0.39,1.66-0.41,2.51c-0.01,0.43-0.01,0.86,0,1.3
					c0.01,0.45,0.02,0.9-0.05,1.35c-0.01,0.07,0.05,0.08,0.11,0.05c0,0.08-0.01,0.16-0.02,0.24c-0.06,0.94-0.04,1.89,0.11,2.82
					c0.28,1.72,0.85,3.39,1.64,4.94c0.71,1.39,1.6,2.65,2.72,3.74c1.08,1.05,2.33,1.92,3.68,2.57c1.35,0.65,2.8,1.09,4.28,1.28
					c1.7,0.22,3.44,0.14,5.13-0.12c1.55-0.24,3.08-0.69,4.55-1.24c1.44-0.54,2.85-1.22,4.01-2.23c1.27-1.1,2.16-2.62,2.9-4.11
					c0.77-1.55,1.45-3.14,1.82-4.83c0.19-0.85,0.32-1.7,0.4-2.56C35.92,20.25,35.96,19.37,35.88,18.49L35.88,18.49z M35.6,21.3
					c-0.17,1.68-0.51,3.37-1.17,4.94c-0.66,1.59-1.39,3.16-2.39,4.58c-0.45,0.64-0.95,1.25-1.54,1.76c-0.58,0.5-1.23,0.93-1.91,1.29
					c-1.35,0.72-2.81,1.21-4.28,1.63c-1.62,0.46-3.3,0.69-4.98,0.71c-1.59,0.02-3.16-0.18-4.68-0.66c-2.81-0.9-5.34-2.69-7.05-5.09
					c-0.96-1.34-1.7-2.86-2.21-4.43c-0.27-0.82-0.47-1.66-0.61-2.51c-0.15-0.95-0.13-1.9-0.11-2.85c0-0.04,0-0.08,0-0.12
					c0-0.01,0.01-0.01,0.01-0.02c0.15-0.88,0.04-1.79,0.07-2.68c0.02-0.86,0.12-1.72,0.44-2.53c0.31-0.82,0.79-1.59,1.27-2.32
					c0.48-0.73,1-1.43,1.57-2.1c0.55-0.65,1.12-1.29,1.75-1.86c0.6-0.54,1.27-1,1.97-1.41c1.4-0.81,2.93-1.37,4.46-1.86
					c1.67-0.53,3.36-0.88,5.12-0.87c0.89,0.01,1.77,0.11,2.64,0.31c0.75,0.19,1.5,0.44,2.23,0.69c1.46,0.51,2.91,1.13,4.11,2.11
					c0.62,0.51,1.16,1.12,1.67,1.74c0.5,0.6,0.97,1.23,1.38,1.89c0.87,1.41,1.47,2.99,1.9,4.59c0.22,0.82,0.37,1.67,0.42,2.52
					S35.69,20.45,35.6,21.3L35.6,21.3z"/>
				<path class="st9" d="M36.54,18.45c-0.21-1.76-0.72-3.48-1.46-5.09c-0.36-0.79-0.78-1.56-1.26-2.28
					c-0.5-0.75-1.01-1.51-1.61-2.19c-0.59-0.67-1.3-1.23-2.01-1.78c-0.35-0.27-0.72-0.53-1.11-0.76c-0.41-0.23-0.84-0.43-1.27-0.62
					c-0.92-0.4-1.85-0.76-2.79-1.09c-0.93-0.33-1.87-0.61-2.85-0.75c-1.91-0.28-3.82-0.06-5.63,0.59c-1.59,0.57-3.2,1.17-4.69,1.97
					c-0.73,0.39-1.43,0.84-2.08,1.35C9.11,8.35,8.53,8.98,7.94,9.63c-0.64,0.7-1.27,1.42-1.81,2.2c-0.54,0.76-0.97,1.59-1.31,2.45
					c-0.35,0.88-0.63,1.79-0.86,2.71c-0.24,0.95-0.4,1.92-0.44,2.89c-0.02,0.46-0.01,0.92,0.05,1.37c0.05,0.33,0.11,0.67,0.15,1
					c0.04,0.46,0.1,0.92,0.18,1.37c0.33,1.8,1.04,3.55,1.86,5.19c0.76,1.52,1.64,3,2.85,4.21c1.06,1.06,2.32,1.89,3.69,2.49
					c1.41,0.62,2.92,1,4.45,1.19c0.85,0.11,1.7,0.13,2.55,0.21c0.98,0.1,1.98,0.27,2.97,0.12c0.93-0.14,1.83-0.48,2.72-0.78
					c0.81-0.27,1.62-0.55,2.4-0.88c1.54-0.64,3.02-1.48,4.2-2.67c1.22-1.23,2.21-2.71,3-4.25c0.77-1.52,1.34-3.15,1.68-4.82
					C36.64,21.92,36.75,20.18,36.54,18.45L36.54,18.45z M36.39,21.2c-0.22,3.37-1.43,6.73-3.38,9.49c-0.49,0.7-1.02,1.37-1.63,1.98
					c-0.59,0.59-1.26,1.09-1.97,1.52c-1.43,0.87-3.01,1.43-4.59,1.95c-0.9,0.3-1.81,0.64-2.76,0.74c-0.99,0.11-2.01-0.1-3-0.19
					c-0.81-0.07-1.62-0.09-2.43-0.21c-0.76-0.11-1.51-0.26-2.24-0.46c-1.44-0.4-2.81-1-4.04-1.85c-1.26-0.87-2.34-1.99-3.16-3.29
					c-0.97-1.52-1.77-3.15-2.39-4.85c-0.39-1.07-0.67-2.17-0.83-3.29c0.02-0.02,0.03-0.04,0.03-0.07c-0.03-0.44-0.11-0.87-0.17-1.31
					c-0.02-0.26-0.02-0.51-0.03-0.76c-0.01-0.74,0.02-1.49,0.11-2.23c0.07-0.49,0.18-0.97,0.3-1.45c0.45-1.79,1.08-3.58,2.16-5.09
					c0.55-0.77,1.18-1.48,1.82-2.19c0.57-0.63,1.15-1.26,1.83-1.78c1.31-1.01,2.81-1.74,4.35-2.35c1.65-0.67,3.34-1.34,5.13-1.49
					c0.95-0.08,1.92-0.04,2.86,0.13c0.96,0.16,1.87,0.46,2.79,0.79c0.92,0.33,1.84,0.68,2.73,1.08c0.43,0.19,0.85,0.39,1.25,0.64
					c0.38,0.23,0.74,0.5,1.09,0.78c0.71,0.56,1.4,1.12,1.98,1.82c0.56,0.67,1.06,1.4,1.53,2.13c1.85,2.88,2.89,6.39,2.67,9.82
					L36.39,21.2z"/>
			</g>
		</g>
	</g>
</g>
</svg>
