<?xml version="1.0" encoding="utf-8"?>
<!-- Generator: Adobe Illustrator 27.2.0, SVG Export Plug-In . SVG Version: 6.00 Build 0)  -->
<svg version="1.1" id="Calque_1" xmlns="http://www.w3.org/2000/svg" xmlns:xlink="http://www.w3.org/1999/xlink" x="0px" y="0px"
	 viewBox="0 0 70 120" style="enable-background:new 0 0 70 120;" xml:space="preserve">
<style type="text/css">
	.st0{fill:#B16248;}
	.st1{fill:#7D481E;}
	.st2{fill:#F09A68;}
	.st3{fill:#BA6F48;}
	.st4{fill:#CC895A;}
	.st5{fill:#99632A;}
	.st6{fill:#F8C6A3;}
	.st7{fill:#CCA084;}
	.st8{fill:#734C2E;}
	.st9{fill:#FFFFFF;}
	.st10{fill:#513411;}
	.st11{fill:#9A9B63;}
	.st12{fill:#53734E;}
	.st13{fill:#9FA582;}
	.st14{fill:#156B92;}
	.st15{fill:#075969;}
	.st16{opacity:0.5;fill:#CC895A;enable-background:new    ;}
</style>
<g>
	<g>
		<g>
			<g>
				<path class="st0" d="M40.2,60.1c0,0,0.8,3.3-4.3,5.1c-5.1,1.8-15,5.9-17.8,11.8c-1.8,3.8-6.9,1.5-6.5-4.4
					c0.2-3.3,3.4-9.2,6.6-12.3C27,51.8,37,50.5,40.2,60.1z"/>
				<path class="st1" d="M15.5,79.1c-0.9,0-1.8-0.4-2.5-1.2c-1.2-1.2-1.8-3.2-1.7-5.4c0.2-3.3,3.4-9.4,6.6-12.4
					c4.6-4.4,9.6-7,13.8-7c4.1,0,7.2,2.4,8.7,6.8c0,0.1,0.8,3.6-4.5,5.4c-5.4,1.9-14.9,5.9-17.6,11.7C17.7,78.4,16.7,79.1,15.5,79.1
					z M31.8,53.7c-4,0-8.9,2.5-13.4,6.8c-3.1,3-6.3,8.9-6.5,12.1c-0.1,2.1,0.4,3.9,1.5,5c0.6,0.6,1.4,1,2.1,1c1,0,1.8-0.6,2.3-1.7
					c2.8-5.9,12.4-10,17.9-12c4.8-1.7,4.2-4.6,4.1-4.8C38.5,55.9,35.7,53.7,31.8,53.7z"/>
			</g>
			<g>
				<g>
					<g>
						<path class="st2" d="M17.8,79.6c0,0,2.9-1.6,1.8-4.2c-1-2.7-5.9-5.1-7.8-3.9c-2,1.2-5,5.2-2,8.5C15.2,86,17.8,79.6,17.8,79.6z
							"/>
						<path class="st3" d="M14.2,82.8L14.2,82.8c-1.4,0-3-0.9-4.6-2.7c-1-1.1-1.5-2.5-1.3-3.9c0.3-2.1,1.9-4.1,3.3-5
							c0.4-0.3,0.9-0.4,1.5-0.4c2.3,0,5.8,2,6.7,4.4c1,2.6-1.4,4.2-1.9,4.5C17.8,80.3,16.6,82.8,14.2,82.8z M13.2,71.4
							c-0.5,0-0.9,0.1-1.2,0.3c-1.1,0.7-2.8,2.5-3.1,4.6c-0.2,1.3,0.2,2.5,1.1,3.5c1.5,1.7,2.9,2.5,4.2,2.5c2.3,0,3.4-2.7,3.4-2.8
							c0-0.1,0.1-0.1,0.1-0.1c0.1-0.1,2.6-1.5,1.7-3.9C18.6,73.3,15.2,71.4,13.2,71.4z"/>
					</g>
					<g>
						<path class="st3" d="M12.7,80.2c0.1-0.2,0.1-0.3,0.2-0.5c0.5-1.3,1.7-2.8,2.9-2.9c0.4,0,0.9,0.1,1.3,0.7
							c1,1.7-1.1,4.8-1.2,4.9c-0.1,0.1-0.3,0.2-0.4,0.1c-0.1-0.1-0.2-0.2-0.1-0.4c0.6-0.8,1.9-3.2,1.2-4.4c-0.2-0.3-0.4-0.4-0.7-0.4
							c-0.8,0.1-2,1.3-2.4,2.6c-0.6,1.6-0.4,2.3-0.4,2.3c0,0.1-0.1,0.3-0.2,0.3c-0.1,0-0.3-0.1-0.3-0.2
							C12.4,82.2,12.3,81.6,12.7,80.2z"/>
						<path class="st3" d="M10.3,78.8c0.1-0.4,0.3-0.7,0.4-1c0.6-1.1,1.8-2.1,2.7-2.3c0.4-0.1,0.8,0,1.1,0.2
							c0.6,0.4,0.7,1.5,0.8,1.5c0,0.1-0.1,0.3-0.2,0.3c-0.1,0-0.3-0.1-0.3-0.2c0-0.2-0.2-0.9-0.5-1.1c-0.2-0.1-0.4-0.1-0.6-0.1
							c-0.7,0.2-1.7,1-2.3,2.1c-0.4,0.6-0.7,1.6-0.4,2.6c0,0.1,0,0.3-0.2,0.3c-0.1,0-0.3,0-0.3-0.2C10,80.1,10.1,79.4,10.3,78.8z"/>
						<path class="st3" d="M8.4,77C8.4,77,8.5,77,8.4,77c0.1-0.2,1.7-2.5,3.3-2.4c0.6,0,1.1,0.4,1.4,1c0.1,0.1,0,0.3-0.1,0.4
							c-0.1,0.1-0.3,0-0.4-0.1c-0.3-0.5-0.6-0.7-1-0.7c-1,0-2.3,1.5-2.8,2.1c-0.1,0.1-0.3,0.2-0.4,0.1C8.4,77.3,8.4,77.2,8.4,77z"/>
						<path class="st3" d="M9.5,73.4c0-0.1,0.1-0.1,0.1-0.1c0,0,0.8-0.5,1.5-0.2c0.6,0.2,0.9,0.9,1.1,1.8c0,0.1-0.1,0.3-0.2,0.3
							c-0.2,0-0.3-0.1-0.3-0.2c-0.1-0.8-0.4-1.3-0.7-1.4c-0.5-0.2-1,0.2-1,0.2c-0.1,0.1-0.3,0.1-0.4-0.1C9.5,73.6,9.5,73.5,9.5,73.4
							z"/>
						<path class="st3" d="M13.5,74.2c0-0.1,0-0.1,0.1-0.2c0.2-0.4,0.4-0.6,0.8-0.7c1.5-0.5,4.3,1.2,4.4,1.3
							c0.1,0.1,0.2,0.2,0.1,0.4c-0.1,0.1-0.2,0.2-0.4,0.1c-0.7-0.4-2.9-1.5-4-1.2c-0.2,0.1-0.4,0.2-0.5,0.4c-0.1,0.3-0.1,0.6,0,0.9
							c0.5,1.1,2.4,1.9,2.4,1.9c0.1,0.1,0.2,0.2,0.2,0.3c-0.1,0.1-0.2,0.2-0.4,0.1c-0.1,0-2.2-0.8-2.7-2.1
							C13.4,74.9,13.4,74.6,13.5,74.2z"/>
					</g>
				</g>
			</g>
		</g>
		<g>
			<path class="st4" d="M21.2,83.9c0.6-2.1,0-4.1-1.7-5.4c-2.3-1.7-6.8-0.4-8,2c-0.2,0.3,0.3,0.4,0.5,0.3c0.3-0.1,0.6-0.1,0.9-0.2
				c-1.3,0.8-2.4,2-2.3,3.7c0,0.1,0.1,0.1,0.1,0.1c0.4,0.1,0.9,0,1.4-0.2c-0.6,0.9-1,1.8-0.7,3.1c0,0.1,0.2,0.1,0.2,0.1
				c0.5,0.1,0.9-0.1,1.3-0.3c0.1,1.3,0.6,2.6,1.8,2.8c0.7,0.1,1.2-0.1,1.4-0.5c0.8,0.2,1.7-0.1,2.4-0.9c0.5-0.5,0.8-1,1.1-1.5
				C20.5,86.1,20.9,84.8,21.2,83.9z"/>
			<path class="st5" d="M15,90.1c-0.1,0-0.2,0-0.4,0c-1.2-0.2-1.8-1.4-2-2.6c-0.4,0.2-0.7,0.2-1.1,0.1c-0.1,0-0.4-0.1-0.5-0.3
				c-0.2-1-0.2-1.8,0.3-2.7c-0.3,0-0.6,0-0.8,0c-0.2,0-0.3-0.1-0.3-0.3c0,0,0-0.1,0-0.1c-0.1-1.2,0.5-2.3,1.5-3.2
				c-0.3,0-0.5-0.1-0.6-0.2c-0.1-0.1-0.1-0.2,0-0.5c0.8-1.6,3.2-2.9,5.6-2.9c1.1,0,2.1,0.3,2.8,0.8c1.8,1.3,2.5,3.5,1.9,5.7
				c-0.3,1-0.7,2.3-1.5,3.2c-0.3,0.5-0.7,1-1.1,1.5c-0.6,0.7-1.4,1-2.2,1l0,0c-0.1,0-0.2,0-0.4,0C16,90,15.6,90.1,15,90.1z
				 M12.9,86.8c0,0,0.1,0,0.1,0c0.1,0,0.1,0.1,0.2,0.2c0.1,1.1,0.5,2.4,1.6,2.6c0.6,0.1,0.9,0,1.2-0.4c0.1-0.1,0.2-0.1,0.3-0.1
				c0.8,0.2,1.6-0.1,2.2-0.8c0.4-0.5,0.8-0.9,1.1-1.5c0.8-0.8,1.2-2,1.5-3c0.6-2,0-3.9-1.7-5.1c-0.6-0.5-1.5-0.7-2.5-0.7
				c-2.1,0-4.3,1.1-5.1,2.5c0.1,0,0.1,0,0.2,0c0.3,0,0.5-0.1,0.8-0.2l0.2,0c0.1,0,0.3,0,0.3,0.2c0.1,0.1,0,0.3-0.1,0.3
				c-1.5,1-2.2,2.1-2.2,3.3c0.3,0,0.6,0,1.1-0.2c0.1,0,0.2,0,0.3,0.1c0.1,0.1,0.1,0.2,0,0.3c-0.7,0.9-0.9,1.8-0.6,2.8c0,0,0,0,0,0
				c0.4,0.1,0.7,0,1.1-0.3C12.8,86.8,12.9,86.8,12.9,86.8z"/>
		</g>
		<g>
			<path class="st0" d="M40.5,77.5c0,0,7.7,2.9,13.4,10c5.7,7.1,8.9,17.8,8.9,17.8s7.4,0.5,4.5,3.4c-3.2,3.3-14,10.9-15,6.5
				c-1.2-5-7.4-14.6-16.6-18C26.4,94,28.7,74,40.5,77.5z"/>
			<path class="st1" d="M54.1,116.9c-1.2,0-1.9-0.5-2.1-1.6c-1.1-4.5-7-14.3-16.5-17.8c-4.9-1.8-6.5-8-5.6-12.9
				c0.7-3.8,3.2-7.9,7.9-7.9c0.9,0,1.8,0.1,2.8,0.4c0.1,0,7.8,3,13.5,10.1c5.3,6.6,8.4,16.3,8.9,17.7c1,0.1,4.5,0.5,5.1,2
				c0.2,0.6,0,1.2-0.6,1.9C65.2,111.4,57.9,116.9,54.1,116.9z M37.8,77.4c-4.4,0-6.7,3.9-7.4,7.4c-0.9,4.7,0.7,10.6,5.2,12.3
				c8.9,3.2,15.5,12.6,16.8,18.1c0.2,0.8,0.7,1.1,1.6,1.1c3.3,0,10.4-5.1,12.9-7.7c0.5-0.5,0.7-1,0.5-1.4c-0.5-1.1-3.7-1.6-4.9-1.6
				c-0.1,0-0.2-0.1-0.2-0.2c0-0.1-3.2-10.7-8.8-17.7c-5.6-7-13.2-9.9-13.3-9.9C39.5,77.5,38.6,77.4,37.8,77.4z"/>
		</g>
		<g>
			<g>
				<path class="st4" d="M30.6,48.1c0,0-2.8,1.2-6.5,10.7c-3.6,9.5-15,24.8-4.2,32.6c10.8,7.8,31.3-0.1,32.9-5.9
					c1.6-5.8-4.5-30.6-9.6-36.7C38.2,42.7,30.6,48.1,30.6,48.1z"/>
				<path class="st5" d="M31.5,95L31.5,95c-4.6,0-8.7-1.1-11.6-3.3c-8.7-6.3-3.3-17.4,1.1-26.4c1.2-2.4,2.3-4.6,3-6.6
					c3.5-9.1,6.2-10.7,6.6-10.9c0.3-0.2,3.3-2.2,6.8-2.2c2.5,0,4.6,1,6.2,3c5.3,6.4,11.2,31.3,9.6,37C52,89.7,41.5,95,31.5,95z
					 M37.3,46.2c-3.4,0-6.5,2.1-6.5,2.1c0,0,0,0-0.1,0c0,0-2.8,1.4-6.3,10.6c-0.8,2-1.9,4.2-3,6.6c-4.3,8.8-9.6,19.7-1.3,25.7
					c2.9,2.1,6.8,3.2,11.3,3.2c8.1,0,19.8-4.4,21.1-9c1.5-5.4-4.4-30.4-9.5-36.5C41.5,47.1,39.6,46.2,37.3,46.2z"/>
			</g>
			<g>
				<path class="st6" d="M46.1,53.8c-0.8-0.5-1.6-0.6-2.3,0.3c-1.2,1.3-1.7,3.2-2.1,4.8c-0.9,4-1.3,8.2-1.4,12.3
					c-0.1,5.2,1.1,18.1,7.5,19.2c2.7-1.5,4.5-3.3,5-4.9C54.2,80.8,50.3,63.3,46.1,53.8z"/>
				<path class="st7" d="M47.9,90.7C47.9,90.7,47.8,90.7,47.9,90.7c-6.4-1.1-7.9-13.3-7.8-19.5c0.1-4.7,0.5-8.7,1.4-12.4
					c0.4-1.7,0.9-3.6,2.1-4.9c0.7-0.8,1.7-0.9,2.7-0.3c0.1,0,0.1,0.1,0.1,0.1c4,9.1,8.2,26.9,6.8,31.9c-0.5,1.6-2.3,3.4-5.1,5
					C48,90.6,47.9,90.7,47.9,90.7z M45,53.7c-0.4,0-0.7,0.2-1,0.5c-1.1,1.2-1.6,3.1-2,4.7c-0.8,3.6-1.3,7.6-1.4,12.3
					c-0.1,6.1,1.3,17.8,7.2,19c2.6-1.5,4.4-3.2,4.8-4.7c1.3-4.6-2.4-21.6-6.7-31.5C45.6,53.8,45.3,53.7,45,53.7z"/>
			</g>
		</g>
		<g>
			<g>
				<path class="st4" d="M26.5,61.5c0,0,0.9,3.1,9.2,6.7c8.3,3.6,21.6,4.3,25.3,2.3c3.7-2-0.4-6.8-5.8-8.2
					c-9.9-2.6-15.7-10.3-22.5-9C22.9,55.3,26.5,61.5,26.5,61.5z"/>
				<path class="st5" d="M53.6,71.9L53.6,71.9c-6.3,0-13.4-1.3-18.1-3.4c-7.9-3.5-9.2-6.5-9.3-6.9C26.1,61.3,25,59.2,26,57
					c0.9-1.9,3.1-3.2,6.6-3.9c0.5-0.1,1.1-0.2,1.6-0.2c3.2,0,6.3,1.8,9.8,4c3.2,1.9,6.8,4.1,11.1,5.2c3.8,1,7.1,3.7,7.4,6.1
					c0.1,0.8-0.1,1.9-1.6,2.7C59.7,71.5,57,71.9,53.6,71.9z M34.3,53.4c-0.5,0-1,0-1.5,0.2c-3.3,0.7-5.4,1.9-6.2,3.6
					c-1,2.1,0.2,4.2,0.2,4.2c0,0,0,0,0,0.1c0,0,1,3,9,6.5c4.6,2,11.7,3.4,17.9,3.4l0,0c3.3,0,5.9-0.4,7.2-1.1c1-0.5,1.4-1.2,1.3-2.1
					c-0.3-2.1-3.5-4.7-7-5.6c-4.4-1.1-8.1-3.3-11.3-5.3C40.4,55.2,37.4,53.4,34.3,53.4z"/>
			</g>
			<g>
				<g>
					<path class="st6" d="M61.2,62.6c-1.5-0.1-3.1,0.1-3.9,0.5c-1.3,0.5-2.2,2.3-2.7,4.7c-0.9,4,3.5,6,5.8,6.1
						c2.3,0.1,5.1-4.1,4.6-6.8c-0.4-2.6-0.6-2.5-0.9-2.7C64,64.4,63.4,62.8,61.2,62.6z"/>
					<path class="st7" d="M60.5,74.3c0,0-0.1,0-0.1,0c-1.6-0.1-3.9-1-5.2-2.6c-0.9-1.1-1.2-2.4-0.9-3.8c0.6-2.7,1.5-4.4,2.9-4.9
						c0.8-0.5,2.5-0.6,3.2-0.6c0.3,0,0.5,0,0.8,0c1.4,0.1,2.5,0.8,3.1,1.9c0.4,0.2,0.6,0.5,1,2.9c0.3,1.9-0.8,4.2-2,5.5
						C62.4,73.7,61.4,74.3,60.5,74.3z M60.4,62.9c-1.3,0-2.4,0.2-2.9,0.5c-1.2,0.5-2,2-2.6,4.5c-0.3,1.3,0,2.4,0.8,3.4
						c1.3,1.6,3.6,2.3,4.8,2.4c0,0,0.1,0,0.1,0l0,0c0.7,0,1.6-0.5,2.4-1.4c1.3-1.5,2.1-3.6,1.9-5.1c-0.4-2.3-0.5-2.4-0.8-2.5l-0.1,0
						l-0.1-0.1c0,0,0,0-0.1-0.1c-0.5-1-1.4-1.6-2.6-1.7C60.9,62.9,60.7,62.9,60.4,62.9z"/>
				</g>
				<g>
					<g>
						<path class="st7" d="M65.1,66.6c0,0,0,0.1-0.1,0.1c-1,0.7-2.8,0.6-2.9,0.6c-0.1,0-0.2-0.1-0.2-0.3c0-0.1,0.1-0.2,0.3-0.2
							c0,0,1.7,0.1,2.5-0.5c0.1-0.1,0.3-0.1,0.4,0C65.1,66.5,65.1,66.6,65.1,66.6z"/>
						<path class="st7" d="M65,69.5c-0.5,1.3-3.1,1-3.2,1c-0.1,0-0.2-0.1-0.2-0.3s0.1-0.2,0.3-0.2c0.6,0.1,2.4,0.1,2.6-0.7
							c0.1-0.1,0.2-0.2,0.3-0.2C65,69.1,65.1,69.3,65,69.5C65.1,69.4,65.1,69.5,65,69.5z"/>
						<path class="st7" d="M63.6,72.4c0,0-0.1,0.1-0.1,0.1c-1.4,0.9-2.8,0.6-2.9,0.5c-0.1,0-0.2-0.2-0.2-0.3s0.2-0.2,0.3-0.2
							c0,0,1.3,0.3,2.5-0.5c0.1-0.1,0.3,0,0.4,0.1C63.6,72.2,63.6,72.3,63.6,72.4z"/>
					</g>
					<path class="st7" d="M64.3,64.6C64.3,64.6,64.3,64.6,64.3,64.6c-0.1,0.2-0.3,0.2-0.4,0.1c-0.6-0.4-2.3-0.4-2.8-0.4
						c-0.1,0-0.3-0.1-0.3-0.2c0-0.1,0.1-0.3,0.2-0.3c0.2,0,2.4-0.1,3.2,0.5C64.3,64.4,64.4,64.5,64.3,64.6z"/>
				</g>
			</g>
		</g>
		<g>
			<g>
				<g>
					<path class="st4" d="M56.9,33.8c0.1-0.9,0.2-1.7,0.2-2.6c0.1-10.6-8.3-19.3-18.7-19.4c-10.4-0.1-22,10.7-22,21.4
						c-0.1,10.6,11.4,17.1,21.8,17.2c0.5,0,1,0,1.5-0.1c14.3,0.9,22.1-9,22-11.7C61.5,37.3,59.2,35.4,56.9,33.8z"/>
					<path class="st5" d="M38.2,50.7L38.2,50.7c-5.5,0-10.9-1.7-15.1-4.7c-4.6-3.3-7.1-7.8-7.1-12.8c0.1-10.5,11.5-21.6,22.2-21.6
						h0.1c10.5,0.1,19.1,8.9,19,19.7c0,0.8-0.1,1.7-0.2,2.5c3,2.1,4.6,3.7,4.7,4.9c0.1,1.1-1.1,3.2-2.9,5.1c-2,2.1-7.8,7-17.5,7l0,0
						c-0.6,0-1.2,0-1.8-0.1C39.1,50.6,38.7,50.7,38.2,50.7z M38.3,12.1c-10.5,0-21.6,10.9-21.7,21.1c0,4.8,2.4,9.2,6.9,12.4
						c4.1,2.9,9.4,4.6,14.7,4.6h0.1c0.4,0,0.9,0,1.4-0.1c0.6,0,1.2,0.1,1.8,0.1c9.5,0,15.1-4.8,17.1-6.8c2-2,2.8-3.8,2.8-4.7
						c-0.1-1-1.7-2.6-4.6-4.6c-0.1-0.1-0.1-0.2-0.1-0.3c0.1-0.9,0.2-1.8,0.2-2.6C56.9,20.7,48.6,12.1,38.3,12.1L38.3,12.1z"/>
				</g>
				<path class="st4" d="M26.2,42.7c1.7-3.2,4.7-5,7.8-6.7c4.2-2.4,8.5-4.6,12.8-6.7c3.1-1.5,6.3-2.7,9.4-4.2
					c-2.5-7.6-9.5-13.2-17.8-13.2c-10.4-0.1-22,10.7-22,21.4c0,6.1,3.7,10.8,8.9,13.8C25.1,45.5,25.5,44,26.2,42.7z"/>
				<g>
					<path class="st6" d="M56.9,33.8C56.9,33.8,56.9,33.8,56.9,33.8c-2.6,1-4.4,4.5-5.3,6.9c-1,2.5-1.8,5.4-1.2,8.1
						c7.4-2.7,11.4-8.3,11.3-10.2C61.5,37.3,59.2,35.4,56.9,33.8z"/>
					<path class="st7" d="M50.3,49.1c0,0-0.1,0-0.1,0c-0.1,0-0.1-0.1-0.1-0.2c-0.4-2.3,0-4.9,1.2-8.2c1-2.6,2.8-6,5.5-7.1
						c0.1,0,0.2,0,0.3,0c0.1,0,0.1,0.1,0.1,0.1c3.1,2.1,4.6,3.7,4.7,4.9c0.1,2.2-4.1,7.8-11.5,10.5C50.4,49.1,50.4,49.1,50.3,49.1z
						 M56.8,34.1c-2.6,1.2-4.2,4.7-5,6.7c-1.2,3-1.6,5.5-1.3,7.6c7.2-2.8,10.9-8.2,10.8-9.8C61.3,37.7,59.7,36.1,56.8,34.1z"/>
				</g>
				<g>
					<path class="st5" d="M61,36.1c-1.8-1.7-3-0.1-3.4,1.7c-0.3,1.3-1,4.6,1.1,4.9c1.3,0.2,2.3-1.1,2.7-2.1
						C62,39.1,62.2,37.3,61,36.1z"/>
					<path class="st8" d="M59,43L59,43c-0.1,0-0.2,0-0.3,0c-0.5-0.1-0.9-0.3-1.2-0.7c-0.9-1.2-0.3-3.5-0.1-4.5
						c0.4-1.6,1.2-2.6,2.2-2.6c0.5,0,1.1,0.3,1.6,0.8c1.7,1.5,0.8,4,0.5,4.7C61.3,41.7,60.3,43,59,43z M59.5,35.7
						c-0.9,0-1.4,1.1-1.7,2.2c-0.2,0.8-0.7,3.1,0,4.1c0.2,0.3,0.5,0.4,0.8,0.5c1.2,0.2,2-1,2.4-2c0.3-0.6,1-2.8-0.4-4.1
						C60.3,35.9,59.9,35.7,59.5,35.7z"/>
				</g>
			</g>
			<g>
				<path class="st9" d="M54.5,32.8c-0.2,3.2-1.8,5.7-3.6,5.6c-1.8-0.1-3.2-2.7-3-5.9c0.2-3.2,1.8-5.7,3.6-5.6
					C53.4,27,54.7,29.7,54.5,32.8z"/>
				<g>
					<path class="st10" d="M53.9,33.6c-0.1,1.8-1,3.3-1.9,3.2c-1,0-1.7-1.6-1.6-3.4c0.1-1.8,1-3.3,1.9-3.2
						C53.3,30.3,54,31.8,53.9,33.6z"/>
					<path class="st9" d="M52.2,32.4c0,0.6-0.3,1.1-0.6,1c-0.3,0-0.5-0.5-0.5-1.1c0-0.6,0.3-1.1,0.6-1C52,31.3,52.2,31.8,52.2,32.4z
						"/>
				</g>
				<path class="st8" d="M46.5,28.2c0,0,4-4.7,7.2-1.9c0,0,1.6,1.3,0.7,3.5C54.3,29.8,52,26.4,46.5,28.2z"/>
			</g>
			<g>
				<g>
					<path class="st11" d="M51.5,16.5c0-0.4,0.1-0.8,0.2-1.2C43.3-1,20.7,5.4,13.3,16.5c-7.4,11.1,0.2,19.9,0.2,19.9l1,1.1
						l36.6-18.3l0.4-2.2C51.5,16.8,51.5,16.7,51.5,16.5z"/>
					<path class="st12" d="M14.5,37.7c-0.1,0-0.2,0-0.2-0.1l-1-1.1c-0.1-0.1-7.6-9.1-0.2-20.2C17.4,9.9,26.7,5.2,35.2,5.2
						c7.5,0,13.5,3.6,16.8,10c0,0.1,0,0.1,0,0.2c-0.1,0.4-0.2,0.8-0.2,1.1l0,0.1c0,0.1,0,0.2,0,0.3l0,0.1l-0.5,2.2
						c0,0.1-0.1,0.1-0.1,0.2L14.6,37.7C14.6,37.7,14.5,37.7,14.5,37.7z M35.2,5.7c-8.3,0-17.4,4.6-21.6,11
						c-3.8,5.6-3.5,10.7-2.7,13.9c0.9,3.5,2.8,5.7,2.8,5.7l0.8,0.9L50.8,19l0.4-2.2c0-0.1,0-0.2,0-0.3c0-0.4,0.1-0.8,0.2-1.2
						C48.2,9.1,42.4,5.7,35.2,5.7z"/>
				</g>
				<path class="st13" d="M19.6,14.9c2-4,5.5-6.7,9.5-8.5C22.5,8,16.5,11.9,13.4,16.7C6,27.8,13.5,36.6,13.5,36.6l1,1.1l8.5-5.2
					C19.5,25.5,16.3,21.4,19.6,14.9z"/>
				<g>
					<path class="st14" d="M51.5,16.5c0-0.4,0.1-0.8,0.2-1.2c-0.9-1.7-1.2-2.4-2.4-3.6c-9.9,2.2-28.1,13.6-31.3,16
						c-2.3,1.7-4.3,3.6-6.5,5.5c0.9,2,1.9,3.2,1.9,3.2l1,1.1l36.6-18.3l0.4-2.2C51.5,16.8,51.5,16.7,51.5,16.5z"/>
					<path class="st15" d="M14.5,37.7c-0.1,0-0.2,0-0.2-0.1l-1-1.1c-0.1-0.1-1-1.2-2-3.3c0-0.1,0-0.2,0.1-0.3
						c0.5-0.4,0.9-0.8,1.4-1.2c1.6-1.4,3.3-2.9,5.1-4.3c3.4-2.5,21.6-13.8,31.4-16c0.1,0,0.2,0,0.3,0.1c1.2,1.3,1.6,2,2.4,3.7
						c0,0.1,0,0.1,0,0.2c-0.1,0.4-0.2,0.8-0.2,1.1l0,0.1c0,0.1,0,0.2,0,0.3l0,0.1l-0.5,2.2c0,0.1-0.1,0.1-0.1,0.2L14.6,37.7
						C14.6,37.7,14.5,37.7,14.5,37.7z M11.9,33.3c0.9,1.9,1.8,2.9,1.8,3l0.8,0.9L50.8,19l0.4-2.2c0-0.1,0-0.2,0-0.3
						c0-0.4,0.1-0.8,0.2-1.2c-0.8-1.6-1.2-2.2-2.2-3.4c-9.8,2.3-27.8,13.4-31.1,15.9c-1.8,1.3-3.4,2.8-5.1,4.3
						C12.7,32.5,12.3,32.9,11.9,33.3z"/>
				</g>
				<path class="st14" d="M22,30.1c-0.6-1.3-1.2-2.6-2-3.7c-0.9,0.6-1.5,1-2,1.4c-2.3,1.7-4.3,3.6-6.5,5.5c0.9,2,1.9,3.2,1.9,3.2
					l1,1.1l9-4.5C22.9,32,22.4,31,22,30.1z"/>
				<g>
					<path class="st11" d="M13.5,36.4c0,0-1.2,8,0,10c0,0,0.5,0.8,1.1,0.3c0.6-0.5,23.3-16.7,44.3-25c0,0,2.4-0.5,1.7-1.6
						c-0.4-0.7-8.8-4.7-8.8-4.7S33.4,21.8,13.5,36.4z"/>
					<path class="st12" d="M14.2,47.1L14.2,47.1c-0.6,0-0.9-0.6-0.9-0.6c-1.3-2-0.1-9.8-0.1-10.2c0-0.1,0.1-0.1,0.1-0.2
						c19.7-14.5,38.2-21,38.4-21.1c0.1,0,0.1,0,0.2,0c1.4,0.7,8.5,4.1,8.9,4.8c0.2,0.4,0.2,0.7,0.1,0.9c-0.3,0.8-1.8,1.1-2,1.1
						c-21.2,8.4-44,24.8-44.1,24.9C14.6,47,14.4,47.1,14.2,47.1z M13.7,36.5c-0.1,1-1.1,7.9,0,9.7c0.1,0.1,0.3,0.4,0.5,0.4l0,0
						c0.1,0,0.2,0,0.2-0.1c0.2-0.1,23-16.6,44.3-25c0.6-0.1,1.4-0.4,1.6-0.8c0-0.1,0.1-0.2-0.1-0.4c-0.3-0.4-4.6-2.7-8.6-4.6
						C50.2,16.2,32.6,22.7,13.7,36.5z"/>
				</g>
				<path class="st13" d="M22,30.5c-2.3,1.5-6.1,4.1-8.5,5.9c0,0-1.2,8,0,10c0,0,0.5,0.8,1.1,0.3c0.2-0.2,3.5-2.5,8.6-5.8
					C23.1,40.6,22.6,33.4,22,30.5z"/>
			</g>
			<path class="st8" d="M54.3,46.5c0,0-0.1,0-0.1,0c-0.8,0-1.3-0.3-1.7-0.8c-0.8-1.2,0-3.3,0-3.4c0.1-0.1,0.2-0.2,0.3-0.2
				c0.1,0,0.2,0.2,0.2,0.3c0,0-0.7,2-0.1,2.9c0.2,0.4,0.6,0.5,1.2,0.5c0,0,0.1,0,0.1,0c2.6,0,4.7-3.5,4.7-3.5
				c0.1-0.1,0.2-0.2,0.4-0.1c0.1,0.1,0.2,0.2,0.1,0.4C59.5,42.9,57.3,46.5,54.3,46.5z"/>
			<g>
				<g>
					<g>
						<path class="st4" d="M24.7,21.5c-9-0.5-11.5-12.3-3.9-15.2c10.8-4,10.7,10.4,10.7,10.4S30.9,21.8,24.7,21.5z"/>
						<path class="st5" d="M25.3,21.8c-0.2,0-0.4,0-0.6,0c-5.1-0.3-8-4-8.5-7.5c-0.6-3.7,1.2-6.9,4.5-8.1c3.3-1.2,6-0.9,7.9,1
							c3.2,3.1,3.2,9.4,3.2,9.7C31.7,16.8,31.1,21.8,25.3,21.8z M24.3,5.9c-1,0-2.2,0.2-3.4,0.7c-3.1,1.2-4.8,4.1-4.2,7.6
							c0.5,3.3,3.2,6.8,8,7.1c5.9,0.3,6.4-4.5,6.5-4.5c0,0,0-6.3-3-9.3C27.1,6.4,25.8,5.9,24.3,5.9z"/>
					</g>
					<path class="st4" d="M30.8,18.6c-0.7-3.8-2.7-7.8-6-9.7c-0.9-0.3-1.9-0.2-2.7,0.4c-3.7,2.5-1.6,7.2,1.9,9.7
						c1.5,0.9,3.2,1.5,4.9,1.5C29.6,19.9,30.4,19.3,30.8,18.6z"/>
					<path class="st5" d="M28.6,20.6c-4,0-6.9-2.8-8.1-5.6c-1-2.3-0.7-4.4,0.6-5.5c1.1-0.9,2.1-1.3,3.2-1c2.3,0.4,3.8,3.3,3.9,3.4
						c0.1,0.1,0,0.3-0.1,0.4c-0.1,0.1-0.3,0-0.4-0.1c0,0-1.4-2.7-3.5-3.1c-0.9-0.2-1.8,0.1-2.8,0.9c-1.2,1-1.3,2.9-0.5,4.9
						c1.2,2.8,4.2,5.5,8.2,5.2c0.2,0,0.3,0.1,0.3,0.2c0,0.1-0.1,0.3-0.3,0.3C29,20.6,28.8,20.6,28.6,20.6z"/>
				</g>
				<path class="st16" d="M19,8.5c-1.2,1.1-1.9,2.7-1.8,4.4c0,1,0.2,2,0.6,2.8c0.2,0.5,1.2,1.9,1.7,0.9c0.5-0.9,0.1-2-0.1-2.9
					c-0.5-2,0-3.6,1.9-5.1c0.5-0.4,1.7-1.8,0.1-1.5C20.6,7.4,19.7,7.9,19,8.5z"/>
			</g>
		</g>
		<g>
			<path class="st4" d="M40.1,94.7c-2.4,3.9-6.7,6.8-11.2,8.5C20.3,106.6,12,105,12,105s-2.2,8.1-5.3,4.9c-2.8-3-7.1-15.7-2.5-15.9
				c4.7-0.2,14.1-2.9,20-10.5c4.2-5.4,16.4-5.2,17.7,2.4C42.4,89.2,41.7,92.1,40.1,94.7z"/>
			<path class="st5" d="M8.1,110.9c-0.6,0-1.1-0.3-1.7-0.9c-2.2-2.4-5.7-11.4-4.2-14.9c0.4-0.9,1.1-1.4,2-1.4
				c4.2-0.2,13.7-2.6,19.8-10.4c1.8-2.4,5.3-3.9,9-3.9c3.7,0,8.4,1.7,9.2,6.4c0.5,3.2-0.1,6.2-1.8,8.9c-2.2,3.6-6.2,6.7-11.4,8.6
				c-4.7,1.8-9.2,2.2-12.2,2.2c-2.3,0-4-0.2-4.6-0.3C11.8,106.5,10.4,110.9,8.1,110.9z M32.9,80c-3.6,0-6.9,1.4-8.6,3.6
				c-6.1,8-15.9,10.4-20.2,10.6c-0.7,0-1.2,0.4-1.5,1.1c-1.3,3.1,1.8,11.9,4.1,14.4c0.4,0.5,0.9,0.7,1.3,0.7c1.7,0,3.2-3.9,3.6-5.5
				c0-0.1,0.2-0.2,0.3-0.2c0,0,1.9,0.3,4.7,0.3c3,0,7.5-0.4,12-2.2c5-1.9,8.9-4.9,11.1-8.4c1.6-2.7,2.2-5.6,1.7-8.6
				C40.8,81.6,36.5,80,32.9,80z"/>
		</g>
	</g>
</g>
</svg>
